<svg width="40" height="40" viewBox="0 0 40 40" fill="none" xmlns="http://www.w3.org/2000/svg">
<path d="M11.6667 20C11.6667 21.841 10.1743 23.3334 8.33333 23.3334C6.49238 23.3334 5 21.841 5 20C5 18.1591 6.49238 16.6667 8.33333 16.6667C10.1743 16.6667 11.6667 18.1591 11.6667 20Z" fill="#343E4C"/>
<path d="M23.3333 20C23.3333 21.841 21.8409 23.3334 20 23.3334C18.1591 23.3334 16.6667 21.841 16.6667 20C16.6667 18.1591 18.1591 16.6667 20 16.6667C21.8409 16.6667 23.3333 18.1591 23.3333 20Z" fill="#343E4C"/>
<path d="M35 20C35 21.841 33.5076 23.3334 31.6667 23.3334C29.8257 23.3334 28.3333 21.841 28.3333 20C28.3333 18.1591 29.8257 16.6667 31.6667 16.6667C33.5076 16.6667 35 18.1591 35 20Z" fill="#343E4C"/>
</svg>
