<svg width="52" height="47" viewBox="0 0 52 47" fill="none" xmlns="http://www.w3.org/2000/svg">
<path d="M41.1667 0H35.3333C34.689 0 34.1667 0.522334 34.1667 1.16667V1.30412L42.3333 7.83745V1.16667C42.3333 0.522334 41.811 0 41.1667 0Z" fill="#539AFF"/>
<path fill-rule="evenodd" clip-rule="evenodd" d="M23.0833 15.1667C23.0833 13.5558 24.3892 12.25 26 12.25C27.6108 12.25 28.9167 13.5558 28.9167 15.1667C28.9167 16.7775 27.6108 18.0833 26 18.0833C24.3892 18.0833 23.0833 16.7775 23.0833 15.1667Z" fill="#343E4C"/>
<path fill-rule="evenodd" clip-rule="evenodd" d="M46.4167 18.5744L48.2401 20.0332C48.9948 20.637 50.0961 20.5146 50.6998 19.7599C51.3036 19.0052 51.1812 17.9039 50.4265 17.3001L31.4661 2.13177C28.2704 -0.424757 23.7296 -0.424757 20.5339 2.13177L1.57344 17.3001C0.818735 17.9039 0.696373 19.0052 1.30014 19.7599C1.90391 20.5146 3.00517 20.637 3.75988 20.0332L5.58333 18.5744V42.5833H2.66666C1.70016 42.5833 0.91666 43.3668 0.91666 44.3333C0.91666 45.2998 1.70016 46.0833 2.66666 46.0833H49.3333C50.2998 46.0833 51.0833 45.2998 51.0833 44.3333C51.0833 43.3668 50.2998 42.5833 49.3333 42.5833H46.4167V18.5744ZM19.5833 15.1667C19.5833 11.6228 22.4562 8.75 26 8.75C29.5438 8.75 32.4167 11.6228 32.4167 15.1667C32.4167 18.7105 29.5438 21.5833 26 21.5833C22.4562 21.5833 19.5833 18.7105 19.5833 15.1667ZM26.1152 23.9167C27.6665 23.9166 29.0032 23.9165 30.0736 24.0604C31.2208 24.2146 32.3204 24.5624 33.2123 25.4544C34.1042 26.3463 34.452 27.4459 34.6062 28.593C34.7412 29.5965 34.7495 30.8341 34.75 32.2631C34.75 32.3584 34.75 32.4545 34.75 32.5515L34.75 42.5833H31.25V32.6667C31.25 30.9673 31.2463 29.8688 31.1375 29.0594C31.0354 28.3004 30.8706 28.0624 30.7374 27.9292C30.6042 27.796 30.3663 27.6313 29.6073 27.5292C28.7979 27.4204 27.6994 27.4167 26 27.4167C24.3006 27.4167 23.2021 27.4204 22.3927 27.5292C21.6337 27.6313 21.3958 27.796 21.2626 27.9292C21.1293 28.0624 20.9646 28.3004 20.8625 29.0594C20.7537 29.8688 20.75 30.9673 20.75 32.6667V42.5833H17.25L17.25 32.5515C17.2499 31.0001 17.2498 29.6634 17.3937 28.593C17.548 27.4459 17.8958 26.3463 18.7877 25.4544C19.6796 24.5624 20.7792 24.2146 21.9264 24.0604C22.9968 23.9165 24.3334 23.9166 25.8848 23.9167H26.1152Z" fill="#539AFF"/>
<path fill-rule="evenodd" clip-rule="evenodd" d="M23.0833 15.1667C23.0833 13.5558 24.3892 12.25 26 12.25C27.6108 12.25 28.9167 13.5558 28.9167 15.1667C28.9167 16.7775 27.6108 18.0833 26 18.0833C24.3892 18.0833 23.0833 16.7775 23.0833 15.1667Z" fill="#539AFF"/>
</svg>
