<svg width="24" height="24" viewBox="0 0 24 24" fill="none" xmlns="http://www.w3.org/2000/svg">
<mask id="mask0_955_1449" style="mask-type:alpha" maskUnits="userSpaceOnUse" x="0" y="0" width="24" height="24">
<rect width="24" height="24" fill="#D9D9D9"/>
</mask>
<g mask="url(#mask0_955_1449)">
<path d="M4.39231 21.4605C4.31426 21.4605 4.24109 21.446 4.17279 21.417C4.10449 21.388 4.04106 21.3445 3.98251 21.2866L2.85699 20.155C2.66641 19.9645 2.61976 19.7552 2.71704 19.5273C2.81432 19.2994 2.99557 19.1855 3.26079 19.1855H20.7771C21.0423 19.1855 21.2246 19.2994 21.3238 19.5273C21.4231 19.7552 21.3781 19.9638 21.1889 20.153L20.0535 21.2884C19.9968 21.3451 19.9348 21.388 19.8676 21.417C19.8004 21.446 19.7284 21.4605 19.6515 21.4605H4.39231ZM2.96514 18.1855C3.05716 17.8536 3.19646 17.5314 3.38306 17.2189C3.56966 16.9064 3.78162 16.6335 4.01894 16.4001V9.08982H3.81676C3.58628 9.08982 3.39569 9.01504 3.24499 8.86549C3.09429 8.71596 3.01894 8.52684 3.01894 8.29812C3.01894 8.0694 3.09429 7.87923 3.24499 7.72759C3.39569 7.57596 3.58628 7.50014 3.81676 7.50014H4.01894V6.75014H3.81676C3.58628 6.75014 3.39569 6.67479 3.24499 6.52409C3.09429 6.37339 3.01894 6.1828 3.01894 5.95232C3.01894 5.72357 3.09429 5.5344 3.24499 5.38482C3.39569 5.23525 3.58628 5.16047 3.81676 5.16047H4.01894V4.41047H3.81676C3.58628 4.41047 3.39569 4.33512 3.24499 4.18442C3.09429 4.03372 3.01894 3.84313 3.01894 3.61264C3.01894 3.38216 3.09429 3.19157 3.24499 3.04087C3.39569 2.89017 3.58628 2.81482 3.81676 2.81482H9.74501C10.3783 2.81482 10.9117 3.03149 11.345 3.46482C11.7783 3.89815 11.995 4.43149 11.995 5.06482V5.16047H20.3168C20.5472 5.16047 20.7378 5.23524 20.8885 5.38479C21.0392 5.53433 21.1146 5.72345 21.1146 5.95217C21.1146 6.18089 21.0392 6.37106 20.8885 6.52269C20.7378 6.67433 20.5472 6.75014 20.3168 6.75014H11.995V6.83982C11.995 7.47315 11.7783 8.00649 11.345 8.43982C10.9117 8.87315 10.3783 9.08982 9.74501 9.08982H8.01894V15.0882C8.23307 15.1135 8.43968 15.1556 8.63876 15.2143C8.83786 15.273 9.02346 15.357 9.19556 15.4664C9.62346 14.3972 10.3109 13.5213 11.2578 12.8387C12.2047 12.1561 13.2918 11.8148 14.5189 11.8148C16.1715 11.8148 17.5553 12.4135 18.6706 13.6107C19.7858 14.808 20.2823 16.2373 20.1602 17.8985V18.1855H2.96514ZM8.01894 5.16047H9.89936V4.41047H8.01894V5.16047ZM8.01894 7.50014H9.89936V6.75014H8.01894V7.50014ZM5.51894 5.16047H6.51894V4.41047H5.51894V5.16047ZM5.51894 7.50014H6.51894V6.75014H5.51894V7.50014ZM5.51894 15.3621C5.66496 15.2788 5.82229 15.2143 5.99094 15.1686C6.15961 15.123 6.33561 15.0837 6.51894 15.0509V9.08982H5.51894V15.3621Z" fill="#8C95A1"/>
</g>
</svg>
