<svg width="124" height="60" viewBox="0 0 124 60" fill="none" xmlns="http://www.w3.org/2000/svg">
<path fill-rule="evenodd" clip-rule="evenodd" d="M29.3164 19.7757L29.205 20.0269L29.0936 20.2741C29.5936 20.6362 29.9771 21.1376 30.1969 21.7164C30.4167 22.2952 30.4632 22.9261 30.3306 23.5312L33.9031 25.1308C34.2618 24.6275 34.7596 24.2413 35.3346 24.0201C35.9096 23.799 36.5366 23.7525 37.1376 23.8867C37.176 23.8094 37.2106 23.7244 37.249 23.6394L37.3604 23.3882C36.8601 23.0267 36.4764 22.5252 36.2572 21.9461C36.0379 21.367 35.9928 20.7359 36.1273 20.1312L32.8045 18.6437L32.5586 18.5316C32.1984 19.0351 31.6992 19.4213 31.1229 19.6425C30.5467 19.8636 29.9186 19.9099 29.3164 19.7757ZM32.5509 17.1446L32.4779 17.1175C32.1697 16.9816 31.8542 16.863 31.533 16.7621C31.0485 16.5682 30.5093 16.5643 30.0221 16.751C29.5348 16.9377 29.135 17.3015 28.9016 17.7705C28.7301 18.0616 28.5749 18.3621 28.4367 18.6707C28.4225 18.693 28.4097 18.7163 28.3983 18.7403C28.3902 18.7576 28.3838 18.7757 28.3791 18.7943L28.0756 19.4705L28.0411 19.5478C27.9335 19.7873 27.8336 20.0114 27.7414 20.2239C27.7414 20.2432 27.7222 20.2587 27.7145 20.278C27.7039 20.3018 27.6949 20.3263 27.6877 20.3514C27.5503 20.6605 27.4322 20.9779 27.3342 21.3019C27.1408 21.7885 27.1365 22.3306 27.3223 22.8202C27.5081 23.3099 27.8703 23.7113 28.3369 23.9446C28.6254 24.12 28.9243 24.2774 29.2319 24.416L29.3011 24.4546H29.3548L30.0271 24.7598L33.1656 26.1739L33.8378 26.4714L33.8878 26.4985L33.9608 26.5255C34.2729 26.6702 34.5936 26.7954 34.9211 26.9003C35.4056 27.0942 35.9448 27.0981 36.432 26.9114C36.9193 26.7247 37.3191 26.3609 37.5525 25.8919C37.7157 25.6053 37.8632 25.3099 37.9943 25.0071L38.0288 24.9376L38.0519 24.8835C38.1479 24.6748 38.2478 24.4469 38.3515 24.2112L38.3899 24.1301L38.6857 23.4539L38.7126 23.3998C38.7239 23.3763 38.7329 23.3517 38.7395 23.3264C38.8763 23.0166 38.9956 22.6993 39.0968 22.376C39.2663 21.8842 39.2663 21.3493 39.0968 20.8575C38.8966 20.3771 38.5387 19.9802 38.0826 19.7332C37.807 19.5539 37.5209 19.3914 37.226 19.2464C37.2055 19.2303 37.182 19.2185 37.1568 19.2116C37.14 19.2016 37.1219 19.1938 37.1031 19.1884L36.4346 18.8832L33.277 17.473L32.6162 17.1716L32.5509 17.1446ZM31.1757 17.9752C30.9531 17.8806 30.705 17.8656 30.4727 17.9327C30.3267 17.9868 30.1769 18.1027 29.9733 18.435C29.9426 18.4814 29.9157 18.5316 29.885 18.5818C30.1525 18.5987 30.4204 18.5577 30.6709 18.4617C30.9213 18.3658 31.1485 18.217 31.337 18.0255L31.1757 17.9752ZM28.5405 21.6612C28.4464 21.8851 28.4315 22.1346 28.4982 22.3682C28.552 22.5151 28.6672 22.6657 28.9976 22.8705L29.1436 22.9594C29.1603 22.6903 29.1196 22.4208 29.0242 22.1689C28.9288 21.917 28.7809 21.6886 28.5904 21.4989C28.5712 21.553 28.5558 21.6071 28.5405 21.6612ZM35.263 25.691C35.4873 25.7849 35.7368 25.7986 35.9698 25.7296C36.112 25.6755 36.2618 25.5596 36.4692 25.2273L36.5537 25.0805C36.2862 25.0637 36.0183 25.1047 35.7678 25.2006C35.5174 25.2966 35.2902 25.4453 35.1017 25.6369L35.263 25.691ZM37.9021 22.005C37.9958 21.7796 38.0094 21.5285 37.9405 21.2941C37.8867 21.1473 37.7715 20.9966 37.4411 20.7919L37.2951 20.7069C37.2811 20.9756 37.3231 21.2444 37.4183 21.4959C37.5136 21.7474 37.66 21.9761 37.8483 22.1673L37.9021 22.005ZM33.0273 21.7462C33.0101 21.7847 33.0048 21.8274 33.0118 21.8689C33.0189 21.9105 33.0381 21.949 33.067 21.9795C33.0958 22.0101 33.1331 22.0313 33.174 22.0405C33.2149 22.0497 33.2576 22.0464 33.2967 22.0311C33.3357 22.0159 33.3694 21.9892 33.3934 21.9547C33.4173 21.9201 33.4306 21.8791 33.4313 21.837C33.4321 21.7949 33.4204 21.7534 33.3977 21.718C33.375 21.6826 33.3423 21.6547 33.3039 21.638C33.2529 21.6159 33.1953 21.6148 33.1435 21.635C33.0917 21.6553 33.05 21.6952 33.0273 21.7462ZM32.6162 23.1796C32.3491 23.0631 32.1224 22.8692 31.9651 22.6227C31.8078 22.3763 31.727 22.0883 31.7329 21.7954C31.7388 21.5026 31.8313 21.2181 31.9984 20.9783C32.1656 20.7385 32.3999 20.5541 32.6716 20.4486C32.9433 20.3431 33.24 20.3213 33.524 20.386C33.8081 20.4507 34.0665 20.5989 34.2666 20.8118C34.4666 21.0247 34.5991 21.2926 34.6472 21.5814C34.6954 21.8703 34.657 22.1671 34.537 22.4339C34.3774 22.7862 34.087 23.0616 33.7279 23.201C33.3688 23.3404 32.9697 23.3327 32.6162 23.1796ZM36.3732 32.1433C36.4284 32.2832 36.4323 32.4383 36.3842 32.5808C36.3361 32.7233 36.2391 32.844 36.1106 32.9211C35.9821 32.9983 35.8305 33.0269 35.683 33.0019C35.5354 32.9769 35.4015 32.8999 35.3053 32.7847C34.5868 31.5858 33.631 30.5481 32.4972 29.7362C31.3447 28.9133 30.0847 28.4612 28.9438 28.5965C28.8446 28.6083 28.7476 28.6344 28.6557 28.6737C28.5786 28.7072 28.509 28.7558 28.451 28.8168C28.393 28.8778 28.3478 28.9499 28.3181 29.0289C28.2883 29.1078 28.2747 29.1919 28.2779 29.2763C28.2811 29.3606 28.3012 29.4435 28.3369 29.5199C28.3501 29.5481 28.3655 29.5752 28.383 29.601C28.7879 29.8352 29.2152 30.0281 29.6583 30.1767C29.7986 30.2414 29.9104 30.3555 29.9725 30.4975C30.0346 30.6396 30.0428 30.7996 29.9954 30.9473C29.948 31.0949 29.8485 31.22 29.7155 31.2987C29.5826 31.3775 29.4255 31.4044 29.2742 31.3744C28.7622 31.2016 28.2682 30.979 27.7991 30.7099C27.7533 30.6882 27.7096 30.6623 27.6684 30.6326C27.5801 30.5824 27.4956 30.5283 27.4188 30.4781C26.7246 29.9803 26.1648 29.3163 25.79 28.5462L24.8757 26.8733C24.7752 26.7023 24.6244 26.567 24.4441 26.486C24.2638 26.405 24.0629 26.3824 23.8693 26.4212C23.8071 26.4248 23.7463 26.4414 23.6909 26.47C23.6355 26.4986 23.5866 26.5387 23.5475 26.5874C23.5084 26.6362 23.4799 26.6927 23.4639 26.7533C23.4479 26.8138 23.4446 26.8771 23.4544 26.939C23.5301 27.6156 23.6848 28.2808 23.9154 28.921C24.4951 30.1093 25.3914 31.1124 26.5045 31.8188C27.6969 32.6025 29.0205 33.1628 30.4112 33.4724C31.2813 33.666 32.1295 33.9482 32.9428 34.3147L34.6714 35.0874C34.8242 35.1556 34.9439 35.282 35.004 35.4388C35.0642 35.5957 35.0599 35.7702 34.9922 35.9239C34.9244 36.0776 34.7987 36.198 34.6428 36.2585C34.4868 36.319 34.3133 36.3147 34.1605 36.2465L32.4319 35.4738C31.6914 35.1388 30.9192 34.88 30.127 34.7011C28.587 34.3583 27.1216 33.7378 25.8015 32.8697C25.1333 32.4448 24.5302 31.9241 24.0114 31.3242C23.5025 30.7428 23.077 30.0925 22.7476 29.3924C22.4715 28.645 22.287 27.8665 22.1982 27.0742C22.1426 26.6422 22.2533 26.2052 22.5075 25.8525C22.7617 25.4999 23.1403 25.2583 23.5658 25.1771C24.0258 25.0779 24.5054 25.1285 24.9349 25.3216C25.3645 25.5147 25.7218 25.8403 25.9552 26.2512L26.8694 27.9242C26.9693 28.1058 27.0692 28.2758 27.1729 28.4381C27.3653 28.0219 27.701 27.6897 28.1179 27.503C28.3268 27.411 28.5482 27.3511 28.7748 27.3253C30.3421 27.1399 31.8979 27.7658 33.2001 28.6853C34.4845 29.6057 35.5661 30.7829 36.377 32.1433H36.3732Z" fill="#3366FF"/>
<path d="M49.1437 44.3883C49.8732 44.7796 50.6432 45.1954 51.4538 45.6356C52.2643 46.0595 53.0424 46.5079 53.7881 46.9807C54.0151 47.1275 54.1286 47.3965 54.1286 47.7878C54.1124 48.1954 53.9827 48.6112 53.7395 49.0351C53.5126 49.459 53.1964 49.7607 52.7912 49.94C52.6453 50.0052 52.4913 50.0297 52.3292 50.0134C52.1833 49.9971 52.0455 49.9645 51.9158 49.9156C51.5916 49.8014 51.2349 49.6628 50.8459 49.4998C50.473 49.3204 50.0839 49.1411 49.6787 48.9617C49.2734 48.7824 48.8681 48.5949 48.4628 48.3992C48.0576 48.2036 47.6766 48.0079 47.32 47.8123C46.9796 48.1547 46.6715 48.4726 46.396 48.7661C46.1204 49.0433 45.8529 49.3123 45.5935 49.5732C45.3341 49.834 45.0667 50.0868 44.7911 50.3313C44.5155 50.5759 44.2075 50.8205 43.8671 51.065C43.6887 51.1955 43.5266 51.2933 43.3807 51.3585C43.2348 51.4074 43.0484 51.4156 42.8214 51.383C42.3513 51.3341 41.9217 51.1547 41.5327 50.8449C41.1598 50.5188 40.941 50.1194 40.8761 49.6465C40.8275 49.2389 40.9248 48.8965 41.1679 48.6193C41.7029 48.0487 42.2703 47.4373 42.8701 46.7851C43.4861 46.1166 44.1588 45.4155 44.8883 44.6818C44.8721 44.4535 44.8559 44.1763 44.8397 43.8502C44.8397 43.5078 44.8316 43.141 44.8154 42.7497C43.5996 42.7986 42.4729 42.823 41.4354 42.823C41.0626 42.823 40.7708 42.7089 40.56 42.4806C40.3493 42.2361 40.2358 41.804 40.2196 41.1844C40.2034 40.6301 40.2844 40.198 40.4628 39.8882C40.6411 39.5621 40.941 39.3827 41.3625 39.3501C41.8974 39.3175 42.4486 39.2931 43.016 39.2768C43.5834 39.2605 44.1588 39.236 44.7424 39.2034C44.7424 39.024 44.7343 38.861 44.7181 38.7143C44.7181 38.5512 44.7181 38.4045 44.7181 38.274C44.6857 37.736 44.8235 37.3121 45.1315 37.0023C45.4557 36.6925 46.0231 36.505 46.8337 36.4398C47.7253 36.3745 48.3332 36.4642 48.6574 36.7088C48.9816 36.9534 49.1437 37.3121 49.1437 37.7849V39.0077C49.8084 38.9751 50.4649 38.9588 51.1133 38.9588C51.7618 38.9425 52.4102 38.9181 53.0586 38.8855C53.8043 38.8692 54.2015 39.3827 54.2501 40.4262C54.2826 41.0295 54.1853 41.4616 53.9584 41.7225C53.7476 41.967 53.4558 42.1056 53.083 42.1382C52.6615 42.1872 52.1103 42.2442 51.4294 42.3094C50.7486 42.3584 49.9867 42.4154 49.1437 42.4806V44.3883ZM53.4963 54.6602C53.853 54.807 54.2664 54.97 54.7365 55.1494C55.2066 55.3287 55.6848 55.5162 56.1711 55.7119C56.6737 55.8912 57.16 56.0706 57.6301 56.2499C58.1002 56.4456 58.5217 56.6249 58.8946 56.788C59.2026 56.9184 59.3566 57.1793 59.3566 57.5706C59.3728 57.9945 59.2431 58.3858 58.9675 58.7445C58.7082 59.1032 58.4326 59.3397 58.1408 59.4538C57.8652 59.5842 57.5491 59.5842 57.1924 59.4538C56.8682 59.356 56.4629 59.2092 55.9766 59.0136C55.4903 58.8179 54.9796 58.6059 54.4447 58.3777C53.9097 58.1657 53.3829 57.9375 52.8641 57.6929C52.3616 57.4646 51.9239 57.2527 51.551 57.057C51.162 57.3342 50.7405 57.5951 50.2866 57.8396C49.8327 58.1005 49.3788 58.3451 48.9249 58.5733C48.471 58.8179 48.0333 59.0462 47.6118 59.2581C47.1903 59.4701 46.8093 59.6576 46.4689 59.8206C46.2744 59.9185 46.1042 59.9755 45.9583 59.9918C45.8124 60.0082 45.6503 60 45.4719 59.9674C45.0991 59.8859 44.8073 59.7065 44.5965 59.4293C44.3858 59.1685 44.248 58.8668 44.1832 58.5244C44.1507 58.2799 44.1589 58.0842 44.2075 57.9375C44.2723 57.7907 44.3939 57.6521 44.5722 57.5217C44.8154 57.3586 45.1315 57.1711 45.5206 56.9592C45.9258 56.7635 46.3473 56.5516 46.785 56.3233C47.2389 56.095 47.6928 55.8668 48.1467 55.6385C48.6006 55.3939 49.0221 55.1575 49.4112 54.9292L49.3626 54.3178C48.6006 54.3504 47.8711 54.383 47.1741 54.4156C46.477 54.432 45.8448 54.4483 45.2774 54.4646C45.0342 54.4646 44.8073 54.383 44.5965 54.22C44.402 54.0406 44.2885 53.6412 44.2561 53.0216C44.2237 52.5162 44.2966 52.1656 44.475 51.97C44.6695 51.758 44.9127 51.6357 45.2045 51.6031C46.0798 51.5542 47.0444 51.5053 48.0981 51.4564C49.168 51.4074 50.2623 51.3667 51.3808 51.3341C52.5156 51.3015 53.6422 51.2688 54.7608 51.2362C55.8793 51.2036 56.9412 51.171 57.9462 51.1384C58.2218 51.1221 58.4407 51.1955 58.6028 51.3585C58.7649 51.5216 58.8622 51.864 58.8946 52.3857C58.9108 52.6792 58.8946 52.9156 58.8459 53.095C58.7973 53.2743 58.7244 53.4129 58.6271 53.5107C58.546 53.6086 58.4488 53.6738 58.3353 53.7064C58.2218 53.739 58.1002 53.7635 57.9706 53.7798C57.5491 53.8287 56.9412 53.8858 56.1468 53.951C55.3525 53.9999 54.469 54.0488 53.4963 54.0977V54.6602ZM59.0648 40.8909C59.081 41.3638 59.0891 41.8448 59.0891 42.3339C59.3161 42.3339 59.5268 42.3339 59.7213 42.3339C59.9321 42.3339 60.1104 42.342 60.2563 42.3583C60.7264 42.4073 61.0506 42.5622 61.229 42.823C61.4235 43.0839 61.5207 43.4671 61.5207 43.9725C61.5207 44.5758 61.4073 44.9916 61.1803 45.2198C60.9696 45.4481 60.6697 45.5948 60.2806 45.66C60.1347 45.6927 59.9483 45.7171 59.7213 45.7334C59.5106 45.7497 59.2836 45.7579 59.0405 45.7579C59.0243 46.3775 59.0081 46.9726 58.9919 47.5432C58.9756 48.1139 58.9513 48.6438 58.9189 49.1329C58.8865 49.4916 58.7892 49.777 58.6271 49.9889C58.4812 50.1846 58.2461 50.3476 57.9219 50.4781C57.8247 50.5107 57.6869 50.5433 57.5086 50.5759C57.3302 50.5922 57.1357 50.6085 56.925 50.6248C56.7142 50.6248 56.5116 50.6167 56.317 50.6004C56.1225 50.5677 55.9685 50.527 55.855 50.4781C55.6443 50.3802 55.4579 50.2335 55.2958 50.0378C55.1499 49.8259 55.0769 49.5569 55.0769 49.2308C55.0607 48.546 55.0445 47.8123 55.0283 47.0296C55.0283 46.2307 55.0202 45.4073 55.004 44.5595C54.9877 43.7116 54.9796 42.8638 54.9796 42.016C54.9796 41.1681 54.9877 40.3366 55.004 39.5213C55.004 38.9018 55.2552 38.4941 55.7578 38.2985C56.1468 38.1518 56.5926 38.0865 57.0952 38.1028C57.5977 38.1028 58.0354 38.1762 58.4083 38.3229C58.6676 38.4208 58.8378 38.5594 58.9189 38.7387C59.0162 38.9181 59.0648 39.1708 59.0648 39.4969C59.0648 39.9371 59.0648 40.4018 59.0648 40.8909Z" fill="#343E4C"/>
<path d="M74.7946 49.3041C74.4866 50.0868 74.0489 50.7552 73.4816 51.3096C72.9142 51.864 72.2252 52.296 71.4147 52.6058C70.6041 52.8993 69.6963 53.0542 68.6912 53.0705C66.6 53.0705 64.9789 52.5488 63.828 51.5053C62.677 50.4455 62.1015 48.815 62.1015 46.6139C62.1015 45.7008 62.2474 44.8367 62.5392 44.0214C62.8472 43.2062 63.293 42.4969 63.8766 41.8937C64.4764 41.2741 65.2059 40.7931 66.0651 40.4507C66.9405 40.092 67.9455 39.9127 69.0803 39.9127C70.0692 39.9127 70.9446 40.0838 71.7065 40.4262C72.4846 40.7523 73.133 41.2089 73.6518 41.7958C74.1705 42.3828 74.5677 43.0921 74.8433 43.9236C75.1189 44.7388 75.2567 45.6356 75.2567 46.6139C75.2567 47.6248 75.1027 48.5215 74.7946 49.3041ZM80.6306 42.3583C80.6306 43.2551 80.6144 44.1682 80.5819 45.0975C80.8089 45.0975 81.0196 45.0975 81.2142 45.0975C81.4087 45.0975 81.587 45.1057 81.7491 45.122C82.2193 45.1709 82.5435 45.334 82.7218 45.6111C82.9163 45.872 83.0136 46.2552 83.0136 46.7606C83.0136 47.3639 82.9001 47.7878 82.6732 48.0324C82.4624 48.2606 82.1625 48.4074 81.7735 48.4726C81.6113 48.5052 81.4168 48.5297 81.1899 48.546C80.9629 48.5623 80.7197 48.5704 80.4604 48.5704C80.3955 49.8422 80.3226 51.114 80.2415 52.3857C80.1605 53.6412 80.0551 54.8885 79.9254 56.1276C79.893 56.4863 79.7633 56.7717 79.5363 56.9836C79.3256 57.2119 79.0824 57.3749 78.8069 57.4728C78.6285 57.538 78.3773 57.5625 78.053 57.5462C77.7288 57.5298 77.4532 57.4809 77.2263 57.3994C77.0155 57.3179 76.8291 57.1793 76.667 56.9836C76.5211 56.8043 76.4482 56.5516 76.4482 56.2255C76.4319 54.807 76.4239 53.4211 76.4239 52.0678C76.4239 50.7145 76.4239 49.3694 76.4239 48.0324C76.4401 46.6791 76.4563 45.3177 76.4725 43.9481C76.5049 42.5622 76.5373 41.1273 76.5697 39.6436C76.586 38.9914 76.8372 38.5594 77.3236 38.3474C77.7126 38.1681 78.1584 38.0865 78.661 38.1028C79.1635 38.1028 79.6012 38.1925 79.974 38.3719C80.2334 38.5023 80.4036 38.6653 80.4847 38.861C80.5819 39.0404 80.6306 39.2931 80.6306 39.6192C80.6306 40.5322 80.6306 41.4453 80.6306 42.3583ZM68.594 49.6221C69.4694 49.6058 70.1259 49.3286 70.5636 48.7905C71.0013 48.2362 71.2201 47.5106 71.2201 46.6139C71.2201 45.6193 71.0094 44.853 70.5879 44.3149C70.1826 43.7606 69.599 43.4834 68.8371 43.4834C67.8969 43.4834 67.216 43.785 66.7946 44.3883C66.3731 44.9753 66.1623 45.7334 66.1623 46.6628C66.1623 48.6356 66.9729 49.6221 68.594 49.6221Z" fill="#343E4C"/>
<path d="M94.3422 52.2145C95.3148 52.1819 96.2064 52.1575 97.017 52.1411C97.8275 52.1248 98.4111 52.1167 98.7678 52.1167C99.2703 52.1167 99.5378 52.3857 99.5702 52.9238C99.5864 53.2336 99.5945 53.6249 99.5945 54.0977C99.5945 54.5705 99.5864 55.0678 99.5702 55.5896C99.5702 56.095 99.5621 56.5923 99.5459 57.0815C99.5297 57.5869 99.5135 58.0271 99.4972 58.4021C99.4648 58.8587 99.3676 59.1685 99.2055 59.3315C99.0433 59.4946 98.7921 59.5924 98.4516 59.625C97.8356 59.7065 97.017 59.7636 95.9957 59.7962C94.9906 59.8288 93.9369 59.8451 92.8346 59.8451C91.7322 59.8614 90.6623 59.8696 89.6248 59.8696C88.6035 59.8859 87.7686 59.9022 87.1202 59.9185C86.5042 59.9348 86.0746 59.788 85.8314 59.4783C85.5883 59.1848 85.4424 58.7282 85.3937 58.1087C85.3451 57.4239 85.2965 56.7309 85.2478 56.0298C85.2154 55.3287 85.1911 54.5379 85.1749 53.6575C85.1749 53.2825 85.2641 53.0053 85.4424 52.8259C85.6369 52.6303 85.8882 52.5243 86.1962 52.508C86.5204 52.4917 87.0554 52.4672 87.8011 52.4346C88.563 52.402 89.4222 52.3694 90.3786 52.3368V50.9183C89.26 50.9509 88.1739 50.9835 87.1202 51.0161C86.0665 51.0324 85.0776 51.0487 84.1536 51.065C83.9753 51.065 83.8294 51.0161 83.7159 50.9183C83.6187 50.8205 83.5457 50.7063 83.4971 50.5759C83.4484 50.4292 83.416 50.2743 83.3998 50.1112C83.3836 49.9319 83.3755 49.7688 83.3755 49.6221C83.3755 49.296 83.416 48.9862 83.4971 48.6927C83.5781 48.3992 83.8051 48.2443 84.1779 48.228C85.4586 48.1791 86.8122 48.1302 88.2388 48.0813C89.6815 48.0324 91.1243 47.9916 92.5671 47.959C94.0099 47.9101 95.4202 47.8775 96.7981 47.8612C98.1923 47.8286 99.481 47.8123 100.664 47.8123C101.021 47.8123 101.248 47.9427 101.345 48.2036C101.443 48.4644 101.491 48.7579 101.491 49.084C101.491 49.4101 101.434 49.7199 101.321 50.0134C101.208 50.3069 100.997 50.4618 100.689 50.4781C99.7647 50.5433 98.7597 50.6085 97.6735 50.6737C96.6036 50.7226 95.4932 50.7634 94.3422 50.796V52.2145ZM99.5702 37.6871C100.3 37.6708 100.681 38.1844 100.713 39.2279C100.745 39.8311 100.656 40.2306 100.446 40.4262C100.251 40.6219 99.9674 40.736 99.5945 40.7686C99.1406 40.8176 98.3949 40.8746 97.3574 40.9398C96.3199 41.0051 95.1446 41.0703 93.8315 41.1355C93.8315 41.2659 93.8234 41.3882 93.8072 41.5024C93.8072 41.6002 93.8072 41.698 93.8072 41.7958C94.326 42.0404 94.8933 42.2931 95.5094 42.554C96.1254 42.7986 96.7414 43.0431 97.3574 43.2877C97.9734 43.5323 98.5651 43.7687 99.1325 43.997C99.6999 44.2252 100.194 44.4372 100.616 44.6329C100.891 44.7633 101.062 44.9671 101.126 45.2443C101.207 45.5215 101.135 45.8883 100.908 46.3448C100.681 46.8503 100.413 47.1601 100.105 47.2742C99.8134 47.3883 99.4648 47.3802 99.0596 47.2498C98.557 47.103 98.0058 46.9237 97.406 46.7117C96.8062 46.4997 96.1902 46.2796 95.558 46.0514C94.9258 45.8068 94.3016 45.5704 93.6856 45.3421C93.0696 45.0975 92.4941 44.8611 91.9592 44.6329C90.8892 45.3177 89.8193 45.9291 88.7494 46.4671C87.6957 47.0052 86.723 47.478 85.8314 47.8856C85.5234 48.0161 85.1992 48.0487 84.8588 47.9835C84.5346 47.9182 84.2266 47.6981 83.9348 47.3231C83.6592 46.9481 83.5376 46.622 83.57 46.3448C83.6024 46.0677 83.7402 45.8394 83.9834 45.66C84.3076 45.4318 84.6886 45.1872 85.1263 44.9263C85.5802 44.6492 86.0503 44.3638 86.5366 44.0703C87.0392 43.7769 87.5417 43.4834 88.0442 43.1899C88.5468 42.8801 89.0169 42.5785 89.4546 42.285C89.4384 42.1545 89.4303 42.016 89.4303 41.8692C89.4303 41.7062 89.4222 41.535 89.406 41.3556C88.4657 41.3882 87.5903 41.4127 86.7798 41.429C85.9692 41.4453 85.2803 41.4534 84.7129 41.4534C84.3562 41.4534 84.0726 41.3638 83.8618 41.1844C83.6511 41.0051 83.5376 40.6056 83.5214 39.986C83.5052 39.4317 83.5862 38.9996 83.7645 38.6898C83.9429 38.3637 84.2347 38.1844 84.6399 38.1517C85.2073 38.1191 85.8801 38.0865 86.6582 38.0539C87.4363 38.0213 88.2712 37.9968 89.1628 37.9805C90.0544 37.9479 90.9703 37.9235 91.9105 37.9072C92.867 37.8746 93.8072 37.8501 94.7312 37.8338C95.6553 37.8012 96.5306 37.7767 97.3574 37.7604C98.1842 37.7278 98.9218 37.7034 99.5702 37.6871ZM95.7768 56.6902C95.7768 56.5108 95.7687 56.2499 95.7525 55.9075C95.7525 55.5651 95.7444 55.2553 95.7282 54.9782C95.3878 54.9782 94.9177 54.9945 94.3179 55.0271C93.7343 55.0434 93.1183 55.0678 92.4698 55.1004C91.8376 55.1167 91.2216 55.1331 90.6218 55.1494C90.022 55.1657 89.5437 55.182 89.1871 55.1983C89.1871 55.345 89.1952 55.5162 89.2114 55.7119C89.2276 55.9075 89.2357 56.095 89.2357 56.2744C89.2519 56.47 89.2682 56.6494 89.2844 56.8124C89.3006 56.9918 89.3087 57.1304 89.3087 57.2282C89.6167 57.2282 90.0463 57.2201 90.5975 57.2038C91.1486 57.2038 91.716 57.1956 92.2996 57.1793C92.8994 57.163 93.4668 57.1467 94.0017 57.1304C94.5529 57.1304 94.9906 57.1222 95.3148 57.1059C95.4931 57.0896 95.6147 57.057 95.6796 57.0081C95.7444 56.9755 95.7768 56.8777 95.7768 56.7146V56.6902Z" fill="#343E4C"/>
<path d="M113.641 38.8365C114.192 38.8365 114.63 38.8447 114.954 38.861C115.473 38.861 115.749 39.13 115.781 39.6681C115.813 41.9018 115.83 44.1193 115.83 46.3204C115.83 48.5052 115.789 50.7145 115.708 52.9482C115.692 53.4048 115.595 53.7146 115.416 53.8776C115.254 54.0406 114.995 54.1385 114.638 54.1711C114.006 54.22 113.301 54.2689 112.523 54.3178C111.761 54.3504 110.975 54.383 110.164 54.4156C109.353 54.432 108.551 54.4483 107.757 54.4646C106.962 54.4646 106.225 54.4564 105.544 54.4401C104.912 54.4238 104.466 54.2771 104.206 53.9999C103.947 53.7064 103.801 53.2499 103.769 52.6303C103.704 51.5542 103.655 50.5107 103.623 49.4998C103.59 48.4889 103.566 47.4862 103.55 46.4916C103.55 45.4807 103.55 44.4617 103.55 43.4345C103.566 42.391 103.59 41.3149 103.623 40.2061C103.655 39.4724 104.004 39.0893 104.668 39.0567C104.96 39.0404 105.374 39.024 105.909 39.0077C106.444 38.9914 107.035 38.9751 107.684 38.9588C108.348 38.9262 109.037 38.9018 109.751 38.8855C110.48 38.8692 111.169 38.861 111.817 38.861C112.482 38.8447 113.09 38.8365 113.641 38.8365ZM121.617 42.3583C121.617 43.2551 121.601 44.1682 121.568 45.0975C121.795 45.0975 122.006 45.0975 122.201 45.0975C122.395 45.0975 122.573 45.1057 122.736 45.122C123.206 45.1709 123.53 45.334 123.708 45.6111C123.903 45.872 124 46.2552 124 46.7606C124 47.3639 123.887 47.7878 123.66 48.0324C123.449 48.2606 123.149 48.4074 122.76 48.4726C122.598 48.5052 122.403 48.5297 122.176 48.546C121.949 48.5623 121.706 48.5704 121.447 48.5704C121.382 49.8422 121.309 51.114 121.228 52.3857C121.147 53.6412 121.042 54.8885 120.912 56.1276C120.879 56.4863 120.75 56.7717 120.523 56.9836C120.312 57.2119 120.069 57.3749 119.793 57.4728C119.615 57.538 119.364 57.5625 119.039 57.5462C118.715 57.5298 118.44 57.4809 118.213 57.3994C118.002 57.3179 117.816 57.1793 117.653 56.9836C117.508 56.8043 117.435 56.5516 117.435 56.2255C117.418 54.807 117.41 53.4211 117.41 52.0678C117.41 50.7145 117.41 49.3694 117.41 48.0324C117.426 46.6791 117.443 45.3177 117.459 43.9481C117.491 42.5622 117.524 41.1273 117.556 39.6436C117.572 38.9914 117.824 38.5594 118.31 38.3474C118.699 38.1681 119.145 38.0865 119.647 38.1028C120.15 38.1028 120.588 38.1925 120.96 38.3719C121.22 38.5023 121.39 38.6653 121.471 38.861C121.568 39.0404 121.617 39.2931 121.617 39.6192C121.617 40.5322 121.617 41.4453 121.617 42.3583ZM111.988 50.5025C111.988 49.8666 111.98 49.2389 111.963 48.6193C111.947 47.9835 111.931 47.3476 111.915 46.7117C111.899 46.0758 111.874 45.4236 111.842 44.7551C111.809 44.0703 111.777 43.3529 111.745 42.6029L107.586 42.554C107.603 43.3529 107.619 44.103 107.635 44.8041C107.667 45.4888 107.692 46.1655 107.708 46.834C107.74 47.5025 107.765 48.1791 107.781 48.8639C107.797 49.5487 107.822 50.2743 107.854 51.0406C108.519 51.008 109.126 50.9917 109.678 50.9917C110.245 50.9754 110.861 50.9591 111.526 50.9428C111.834 50.9428 111.988 50.8042 111.988 50.527V50.5025Z" fill="#343E4C"/>
<path d="M11.609 42.0339C11.609 44.2335 11.5708 46.2947 11.4943 48.2174C11.4331 50.1401 11.3184 51.9398 11.1502 53.6164C11.1043 54.1548 10.959 54.5624 10.7143 54.8393C10.4697 55.1008 10.0032 55.2315 9.315 55.2315C8.67268 55.2315 8.23682 55.1008 8.00742 54.8393C7.79331 54.5778 7.67861 54.1702 7.66332 53.6164C7.64803 52.6781 7.63273 51.7937 7.61744 50.963C7.60215 50.117 7.5945 49.2864 7.5945 48.4712C7.5945 47.656 7.5945 46.833 7.5945 46.0024C7.60979 45.1718 7.62509 44.295 7.64038 43.3721C6.53926 43.3721 5.44578 43.3721 4.35996 43.3721C3.27413 43.3568 2.1883 43.3337 1.10247 43.3029C0.842484 43.2875 0.590144 43.1568 0.34545 42.9107C0.100756 42.6492 -0.0139439 42.2108 0.00134941 41.5955C0.0166428 41.0879 0.108403 40.7111 0.27663 40.465C0.444857 40.2035 0.750724 40.0574 1.19423 40.0266C2.72357 39.9497 4.16114 39.8958 5.50696 39.8651C6.85277 39.8189 8.24447 39.7959 9.68204 39.7959C10.0185 39.7959 10.3091 39.8036 10.5538 39.8189C10.7985 39.8189 10.9973 39.8574 11.1502 39.9343C11.3031 39.9958 11.4178 40.0958 11.4943 40.2343C11.5708 40.3727 11.609 40.5727 11.609 40.8341V42.0339ZM17.1146 43.0722C17.1146 43.9182 17.0993 44.7719 17.0687 45.6333C17.3287 45.6333 17.5734 45.6333 17.8028 45.6333C18.0322 45.6333 18.231 45.641 18.3993 45.6563C18.8428 45.7025 19.1486 45.8563 19.3169 46.1178C19.5004 46.3639 19.5921 46.7254 19.5921 47.2022C19.5921 47.7713 19.4851 48.1713 19.271 48.402C19.0722 48.6173 18.7892 48.7558 18.4222 48.8173C18.254 48.8481 18.0399 48.8711 17.7799 48.8865C17.5199 48.9019 17.2446 48.9096 16.954 48.9096C16.8929 50.1247 16.824 51.3322 16.7476 52.532C16.6711 53.7318 16.5717 54.9239 16.4494 56.1083C16.4188 56.4467 16.2964 56.7158 16.0823 56.9158C15.8835 57.1311 15.6541 57.285 15.3941 57.3773C15.2259 57.4388 14.9888 57.4619 14.683 57.4465C14.3771 57.4311 14.1171 57.3849 13.903 57.308C13.7042 57.2311 13.5283 57.1004 13.3754 56.9158C13.2377 56.7466 13.1689 56.5082 13.1689 56.2006C13.1536 54.8623 13.146 53.5549 13.146 52.2782C13.146 51.0015 13.146 49.7325 13.146 48.4712C13.1613 47.1945 13.1766 45.9101 13.1919 44.6181C13.2225 43.3106 13.253 41.957 13.2836 40.5573C13.2989 39.942 13.536 39.5344 13.9948 39.3344C14.3618 39.1652 14.7824 39.0883 15.2565 39.1037C15.7306 39.1037 16.1435 39.1883 16.4952 39.3575C16.7399 39.4805 16.9005 39.6344 16.977 39.8189C17.0687 39.9881 17.1146 40.2266 17.1146 40.5342C17.1146 41.3802 17.1146 42.2262 17.1146 43.0722Z" fill="#3366FF"/>
<path d="M31.0014 41.0418C31.4449 41.011 31.8884 40.9957 32.3319 40.9957C32.7907 40.9803 33.1884 40.9726 33.5248 40.9726C33.5248 40.8803 33.5248 40.7957 33.5248 40.7188C33.5401 40.6265 33.5477 40.5342 33.5477 40.4419C33.5477 39.8574 33.7848 39.4729 34.2589 39.2883C34.6259 39.1498 35.0465 39.0883 35.5206 39.1037C35.9947 39.1037 36.4076 39.1729 36.7593 39.3113C37.004 39.4036 37.1646 39.5344 37.2411 39.7036C37.3329 39.8728 37.3787 40.1112 37.3787 40.4188C37.394 41.1418 37.4017 41.8955 37.4017 42.68C37.4017 43.4644 37.394 44.2489 37.3787 45.0334C37.3787 45.8025 37.3634 46.5562 37.3329 47.2945C37.3176 48.0174 37.287 48.6865 37.2411 49.3018C37.2105 49.6402 37.1187 49.9094 36.9658 50.1094C36.8282 50.2939 36.6064 50.4478 36.3005 50.5708C36.2088 50.6016 36.0788 50.6323 35.9106 50.6631C35.7423 50.6785 35.5588 50.6939 35.36 50.7093C35.1612 50.7093 34.97 50.7016 34.7865 50.6862C34.603 50.6554 34.4577 50.617 34.3506 50.5708C34.1518 50.4785 33.976 50.3401 33.823 50.1555C33.6854 49.9555 33.6166 49.7017 33.6166 49.3941C33.6013 49.2249 33.5936 49.048 33.5936 48.8634C33.5936 48.6789 33.5936 48.4943 33.5936 48.3097C33.196 48.3405 32.7296 48.3635 32.1943 48.3789C31.659 48.3943 31.1773 48.4097 30.7491 48.4251C30.7338 48.502 30.7185 48.5789 30.7032 48.6558C30.7032 48.7173 30.7032 48.7865 30.7032 48.8634C30.642 49.4018 30.4738 49.8094 30.1985 50.0863C29.9385 50.3478 29.4644 50.4785 28.7762 50.4785C28.1339 50.4785 27.698 50.3478 27.4686 50.0863C27.2392 49.8248 27.1092 49.4172 27.0787 48.8634C27.0481 48.3866 27.0251 47.879 27.0098 47.3406C27.0098 46.7869 27.0022 46.2332 26.9869 45.6794C26.9869 45.1257 26.9869 44.595 26.9869 44.0874C26.9869 43.5798 26.9869 43.1183 26.9869 42.703C25.8858 42.703 24.8535 42.703 23.89 42.703C22.9265 42.6876 21.9095 42.6646 20.839 42.6338C20.579 42.6184 20.3266 42.4877 20.0819 42.2416C19.8372 41.9801 19.7226 41.5417 19.7378 40.9264C19.7531 40.4188 19.8449 40.042 20.0131 39.7959C20.1814 39.5344 20.4872 39.3883 20.9307 39.3575C21.6801 39.3267 22.3912 39.296 23.0641 39.2652C23.7524 39.2344 24.4176 39.2114 25.0599 39.196C25.7175 39.1652 26.3675 39.1498 27.0098 39.1498C27.6675 39.1345 28.3557 39.1268 29.0744 39.1268C29.4109 39.1268 29.7015 39.1345 29.9462 39.1498C30.1909 39.1498 30.3897 39.1883 30.5426 39.2652C30.6955 39.3267 30.8102 39.4267 30.8867 39.5651C30.9632 39.7036 31.0014 39.9035 31.0014 40.165V41.0418ZM26.1152 54.5855C25.3046 54.5855 24.6011 54.5778 24.0047 54.5624C23.5612 54.5316 23.263 54.2855 23.11 53.8241C23.0336 53.6087 23.003 53.3395 23.0183 53.0165C23.0489 52.6935 23.1177 52.4166 23.2247 52.1859C23.3012 52.0321 23.4083 51.909 23.5459 51.8167C23.6835 51.7091 23.8594 51.6475 24.0735 51.6322C24.5782 51.6014 25.1593 51.5706 25.817 51.5399C26.4746 51.5091 27.1704 51.486 27.9045 51.4706C28.6539 51.4399 29.4109 51.4091 30.1756 51.3784C30.9402 51.3476 31.682 51.3245 32.4007 51.3091C33.1348 51.2938 33.823 51.2784 34.4653 51.263C35.1077 51.2476 35.6659 51.2399 36.14 51.2399C36.4458 51.2399 36.6523 51.3091 36.7593 51.4476C36.8664 51.586 36.9199 51.809 36.9199 52.1167C36.9199 52.5781 36.9123 53.0857 36.897 53.6395C36.8817 54.1932 36.8511 54.7547 36.8052 55.3238C36.7746 55.8775 36.7364 56.4236 36.6905 56.9619C36.6599 57.5003 36.6217 57.9925 36.5758 58.4386C36.5147 58.9001 36.3694 59.2385 36.14 59.4538C35.9106 59.6691 35.5129 59.7999 34.9471 59.846C34.3812 59.8922 33.9683 59.8153 33.7083 59.6153C33.4636 59.4307 33.326 59.1846 33.2954 58.877C33.2801 58.6001 33.2648 58.2771 33.2495 57.9079C33.2495 57.5388 33.2419 57.1465 33.2266 56.7312C33.2266 56.3313 33.2266 55.9314 33.2266 55.5314C33.2266 55.1161 33.2189 54.7393 33.2036 54.4009C32.6378 54.4163 31.9496 54.4393 31.139 54.4701C30.3438 54.4855 29.5103 54.5086 28.6386 54.5393C27.7822 54.5547 26.941 54.5701 26.1152 54.5855ZM32.309 45.3102C32.7831 45.2949 33.196 45.2872 33.5477 45.2872C33.5477 45.0718 33.5401 44.8565 33.5248 44.6411C33.5248 44.4258 33.5248 44.2104 33.5248 43.9951C33.1731 44.0259 32.7601 44.0489 32.286 44.0643C31.812 44.0797 31.3761 44.0951 30.9785 44.1105C30.9632 44.3258 30.9555 44.5412 30.9555 44.7565C30.9555 44.9565 30.9479 45.1641 30.9326 45.3795C31.3761 45.3487 31.8349 45.3256 32.309 45.3102Z" fill="#3366FF"/>
<path d="M59.7694 9.89652C58.8586 9.42509 57.8293 9.23553 56.8115 9.35174C56.6831 9.3707 56.5675 9.44017 56.49 9.54487C56.4126 9.64957 56.3797 9.78093 56.3985 9.91004C56.4174 10.0392 56.4864 10.1554 56.5905 10.2333C56.6946 10.3112 56.8253 10.3443 56.9536 10.3254C57.7452 10.2452 58.5433 10.3884 59.2585 10.7388C59.3696 10.8053 59.5023 10.8248 59.6277 10.7929C59.753 10.761 59.8606 10.6804 59.9269 10.5688C59.9602 10.5136 59.9822 10.4523 59.9917 10.3885C60.0012 10.3247 59.998 10.2596 59.9822 10.1971C59.9665 10.1345 59.9386 10.0757 59.9001 10.0241C59.8615 9.97255 59.8132 9.92916 59.7579 9.89652H59.7694Z" fill="#343E4C"/>
<path d="M62.3624 10.5687C62.4056 10.6416 62.4669 10.7021 62.5403 10.7441C62.6137 10.7861 62.6967 10.8082 62.7811 10.8082C62.8702 10.8081 62.9577 10.7841 63.0346 10.7387C63.7497 10.3877 64.5479 10.2445 65.3395 10.3253C65.4679 10.3442 65.5985 10.3111 65.7026 10.2332C65.8067 10.1553 65.8758 10.039 65.8946 9.90994C65.9134 9.78082 65.8805 9.64947 65.8031 9.54477C65.7256 9.44006 65.61 9.37059 65.4816 9.35164C64.4638 9.23565 63.4346 9.4252 62.5237 9.89641C62.414 9.96435 62.3355 10.0732 62.3053 10.1991C62.2751 10.3251 62.2956 10.4579 62.3624 10.5687Z" fill="#343E4C"/>
<path d="M64.8055 19.0302H57.5068C57.4346 19.0283 57.3629 19.0422 57.2966 19.0709C57.2303 19.0996 57.1709 19.1424 57.1226 19.1964C57.0766 19.2486 57.0422 19.31 57.0217 19.3766C57.0011 19.4433 56.995 19.5135 57.0036 19.5827C57.0609 20.0303 57.2263 20.457 57.4855 20.8254C57.7447 21.1939 58.0896 21.4928 58.4902 21.6962C59.3115 22.1202 60.2214 22.3414 61.1446 22.3414C62.0678 22.3414 62.9778 22.1202 63.7991 21.6962C64.1987 21.4921 64.5428 21.1928 64.8012 20.8245C65.0596 20.4561 65.2246 20.0299 65.2819 19.5827C65.2912 19.5135 65.2854 19.443 65.2649 19.3763C65.2443 19.3095 65.2095 19.2481 65.1628 19.1964C65.1178 19.1454 65.0629 19.1044 65.0014 19.0758C64.9399 19.0472 64.8733 19.0317 64.8055 19.0302ZM58.1483 20.0155H60.6606V21.333C59.6081 21.2325 58.5555 20.8075 58.1483 20.0155ZM61.6402 21.333V20.0155H64.1602C63.7491 20.8075 62.6966 21.2325 61.6402 21.333Z" fill="#343E4C"/>
<path d="M58.0139 13.0183C57.9468 13.0167 57.8802 13.0289 57.8181 13.0543C57.756 13.0797 57.6998 13.1177 57.6529 13.1659C57.606 13.2141 57.5696 13.2715 57.5457 13.3345C57.5219 13.3976 57.5113 13.4648 57.5145 13.5322V14.6295C57.5145 14.7596 57.5659 14.8844 57.6574 14.9764C57.7489 15.0685 57.8729 15.1202 58.0023 15.1202C58.1317 15.1202 58.2558 15.0685 58.3473 14.9764C58.4388 14.8844 58.4902 14.7596 58.4902 14.6295V13.5322C58.4933 13.4668 58.4833 13.4014 58.4609 13.34C58.4385 13.2785 58.4041 13.2222 58.3597 13.1743C58.3153 13.1264 58.2619 13.0879 58.2025 13.0611C58.1431 13.0344 58.0789 13.0198 58.0139 13.0183Z" fill="#343E4C"/>
<path d="M64.2985 13.0184C64.2324 13.0183 64.167 13.0317 64.1063 13.0578C64.0455 13.0839 63.9907 13.1221 63.9451 13.1702C63.8995 13.2182 63.864 13.2751 63.8409 13.3373C63.8178 13.3996 63.8075 13.4659 63.8106 13.5322V14.6295C63.8215 14.7526 63.8778 14.8672 63.9684 14.9507C64.0591 15.0341 64.1775 15.0804 64.3004 15.0804C64.4233 15.0804 64.5417 15.0341 64.6324 14.9507C64.723 14.8672 64.7793 14.7526 64.7902 14.6295V13.5322C64.7928 13.4657 64.782 13.3993 64.7584 13.337C64.7349 13.2748 64.699 13.218 64.6531 13.17C64.6072 13.122 64.5521 13.0838 64.4912 13.0578C64.4302 13.0317 64.3647 13.0183 64.2985 13.0184Z" fill="#343E4C"/>
<path d="M70.6907 17.9638C71.2707 17.1911 71.5627 16.0629 71.5627 14.6372C71.5868 13.9719 71.4552 13.3102 71.1785 12.7054C71.076 12.4618 70.9067 12.2525 70.6904 12.102C70.4741 11.9515 70.2197 11.866 69.9569 11.8554C69.8389 11.8562 69.7215 11.8718 69.6074 11.9017V10.391C70.2911 7.45466 69.496 5.6851 66.9644 4.51441C65.9734 3.11576 63.5532 2.03007 61.1677 2.61735C58.7821 2.03007 56.3428 3.10031 55.3517 4.51441C52.8202 5.67351 52.0289 7.45466 52.7088 10.391V11.8901C52.3945 11.8044 52.0597 11.8391 51.7693 11.9876C51.479 12.1361 51.2539 12.3878 51.1377 12.6938C50.8627 13.2992 50.7312 13.9605 50.7535 14.6256C50.7535 16.0513 51.0493 17.1718 51.6255 17.9522C51.79 18.2132 52.0074 18.4363 52.2636 18.6067C52.5199 18.7772 52.809 18.8912 53.1122 18.9413C53.6182 20.5992 54.5543 22.0916 55.8242 23.2648C56.0701 23.4966 56.3313 23.713 56.5925 23.9177V25.5096L55.3248 25.8959C55.006 25.7414 54.8331 25.6332 54.8255 25.6293C54.7345 25.5715 54.627 25.5455 54.5198 25.5554C54.4127 25.5654 54.3118 25.6107 54.2328 25.6843C54.1539 25.7579 54.1014 25.8558 54.0836 25.9625C54.0657 26.0693 54.0834 26.179 54.134 26.2746L53.0622 26.6184C52.9388 26.6584 52.836 26.7457 52.7763 26.8615C52.7166 26.9773 52.7047 27.1121 52.7434 27.2366C52.7746 27.3358 52.8365 27.4223 52.9202 27.4835C53.0038 27.5447 53.1048 27.5773 53.2082 27.5766C53.259 27.5765 53.3095 27.5687 53.358 27.5534L55.2557 26.9468C57.1178 27.7462 59.124 28.1501 61.1485 28.133C62.2222 28.1338 63.2932 28.0238 64.3446 27.8046C64.2092 28.1597 64.1402 28.537 64.141 28.9173C64.1421 29.1783 64.177 29.4381 64.2447 29.69C62.7815 29.104 61.1831 28.9473 59.6349 29.238C58.5631 29.4225 57.5421 29.8324 56.6385 30.4409C55.7349 31.0494 54.9692 31.8429 54.3914 32.7694C54.3228 32.8806 54.3009 33.0147 54.3304 33.1421C54.36 33.2696 54.4385 33.3801 54.5489 33.4494C54.6033 33.4834 54.6639 33.5063 54.7272 33.5168C54.7905 33.5273 54.8552 33.5251 54.9177 33.5104C54.9801 33.4957 55.039 33.4687 55.0911 33.4311C55.1432 33.3934 55.1874 33.3458 55.2211 33.291C55.7268 32.4798 56.3971 31.7851 57.1882 31.2524C57.9793 30.7198 58.8733 30.3612 59.8117 30.2001C61.6609 29.8473 63.5742 30.231 65.1474 31.2703C64.9393 31.5268 64.7756 31.8168 64.6634 32.128C63.6293 31.4222 62.4058 31.0502 61.1562 31.0617C59.61 31.0409 58.1146 31.616 56.9767 32.6689C56.9262 32.7121 56.8847 32.7648 56.8545 32.824C56.8243 32.8833 56.806 32.9479 56.8007 33.0143C56.7953 33.0807 56.803 33.1475 56.8233 33.2109C56.8436 33.2742 56.8762 33.333 56.919 33.3837C56.9619 33.4345 57.0143 33.4762 57.0732 33.5066C57.1322 33.5369 57.1965 33.5553 57.2624 33.5607C57.3284 33.5661 57.3948 33.5584 57.4579 33.5379C57.5209 33.5175 57.5793 33.4848 57.6297 33.4417C58.5963 32.5783 59.8442 32.1015 61.137 32.1015C62.4297 32.1015 63.6776 32.5783 64.6442 33.4417C64.713 33.5076 64.7995 33.5518 64.893 33.569C64.9865 33.5861 65.0829 33.5755 65.1705 33.5383C65.2584 33.5004 65.3333 33.4373 65.3859 33.357C65.4385 33.2766 65.4665 33.1824 65.4663 33.0862C65.4753 32.8033 65.5461 32.5258 65.6735 32.2735C65.801 32.0211 65.982 31.8 66.2038 31.6257C66.2709 31.5782 66.325 31.5144 66.361 31.4403C66.3971 31.3662 66.414 31.2842 66.4102 31.2017C66.4063 31.1193 66.3819 31.0392 66.3391 30.9688C66.2963 30.8984 66.2366 30.84 66.1654 30.7989C65.8757 30.6313 65.6295 30.397 65.4472 30.1152C65.2648 29.8335 65.1513 29.5123 65.1161 29.178C65.0809 28.8437 65.1249 28.5057 65.2445 28.1918C65.3641 27.8778 65.556 27.5969 65.8043 27.3719C65.8541 27.3255 65.8939 27.2694 65.9211 27.2069C65.9483 27.1444 65.9623 27.0769 65.9623 27.0087C65.9623 26.9404 65.9483 26.873 65.9211 26.8105C65.8939 26.748 65.8541 26.6918 65.8043 26.6455C65.5847 26.4456 65.4091 26.2018 65.2887 25.9297C65.1683 25.6576 65.1058 25.3631 65.1052 25.0652C65.1059 24.7645 65.1686 24.4671 65.2896 24.1921C65.7042 23.9063 66.0971 23.5899 66.465 23.2455C67.7374 22.0792 68.6787 20.5938 69.1925 18.9413C69.4968 18.8944 69.7877 18.7829 70.046 18.6144C70.3042 18.4459 70.524 18.2241 70.6907 17.9638ZM59.7886 14.019C59.5466 15.4602 58.5978 16.0745 56.6117 16.0745C54.1955 16.0745 53.6884 14.9695 53.6884 14.0461C53.6884 12.8136 54.1263 12.2263 56.6117 12.2263C58.1867 12.2263 59.1893 12.4658 59.5889 12.9449C59.7005 13.0973 59.7764 13.273 59.811 13.459C59.8456 13.645 59.8379 13.8364 59.7886 14.019ZM59.9961 16.3372L60.7989 14.4672C60.8328 14.4031 60.8839 14.35 60.9464 14.3138C61.0089 14.2775 61.0802 14.2598 61.1523 14.2624C61.2238 14.2605 61.2943 14.2786 61.3561 14.3148C61.4178 14.351 61.4683 14.4037 61.5019 14.4672L62.3048 16.3372C62.3351 16.4007 62.3524 16.4697 62.3557 16.54C62.359 16.6104 62.3482 16.6807 62.324 16.7468C62.2923 16.8182 62.2463 16.8822 62.1887 16.9347C62.1312 16.9872 62.0635 17.0272 61.9898 17.052C61.4512 17.2632 60.8534 17.2632 60.3149 17.052C60.241 17.0266 60.173 16.9865 60.1149 16.9341C60.0568 16.8816 60.0099 16.8179 59.9768 16.7468C59.9235 16.6155 59.9235 16.4685 59.9768 16.3372H59.9961ZM62.516 14.019C62.4665 13.8367 62.4583 13.6454 62.4922 13.4595C62.5262 13.2736 62.6012 13.0977 62.712 12.9449C63.1153 12.4658 64.1179 12.2263 65.6929 12.2263C68.1783 12.2263 68.6163 12.8136 68.6163 14.0461C68.6163 14.9695 68.1092 16.0745 65.6929 16.0745C63.7069 16.0745 62.7581 15.4602 62.516 14.019ZM68.7968 9.33626L66.1962 6.74374L66.8492 5.54987C68.4818 6.38829 69.0619 7.4817 68.8122 9.33626H68.7968ZM66.0463 4.94328L65.3818 6.19124C65.1935 6.10624 64.9515 6.00578 64.6596 5.90146C64.5373 5.8574 64.4027 5.86399 64.2852 5.91978C64.1678 5.97558 64.0772 6.076 64.0334 6.19897C63.9896 6.32193 63.9962 6.45736 64.0516 6.57547C64.1071 6.69358 64.207 6.78468 64.3292 6.82874C64.6647 6.94431 64.9931 7.07978 65.3126 7.23443L68.6278 10.5417V11.8476C68.0093 11.4304 67.0912 11.241 65.7044 11.241C63.7837 11.241 62.589 11.5811 61.9782 12.3113C61.734 12.6014 61.5804 12.9576 61.5365 13.3352C61.4112 13.3015 61.282 13.2847 61.1523 13.2849C61.0227 13.285 60.8936 13.3019 60.7682 13.3352C60.7254 12.958 60.5731 12.6019 60.3303 12.3113C59.7156 11.5811 58.5325 11.241 56.604 11.241C55.4862 11.241 54.4144 11.3454 53.6807 11.8515V10.5417L56.992 7.23443C58.2886 6.60501 59.7052 6.26497 61.1446 6.2376C61.5417 6.23967 61.9383 6.26807 62.3316 6.3226C62.46 6.34105 62.5904 6.30745 62.6942 6.22919C62.7979 6.15094 62.8665 6.03444 62.8848 5.90533C62.9032 5.77622 62.8697 5.64506 62.7919 5.54072C62.7141 5.43638 62.5983 5.36741 62.4699 5.34896C62.1895 5.31032 61.9091 5.28328 61.6325 5.26782V3.52145C63.1115 3.27031 65.0898 3.75713 66.0387 4.94328H66.0463ZM59.8693 3.45577C60.1344 3.45556 60.3991 3.47753 60.6606 3.52145V5.26782C59.3689 5.3502 58.102 5.66287 56.919 6.19124L56.2545 4.94714C57.042 3.95804 58.5363 3.45577 59.8693 3.45577ZM55.4708 5.54987L56.0931 6.74374L53.4963 9.33626C53.2581 7.48557 53.8382 6.38829 55.4708 5.54987ZM51.7331 14.6372C51.7112 14.1287 51.8031 13.6216 52.002 13.1536C52.0673 13.0299 52.1979 12.8252 52.3631 12.8252C52.4396 12.8346 52.5122 12.8647 52.5731 12.9123C52.634 12.9599 52.6809 13.0233 52.7088 13.0956V16.1865C52.7102 16.7291 52.7564 17.2706 52.8471 17.8054C52.3938 17.5118 51.7331 16.6734 51.7331 14.6333V14.6372ZM64.6442 26.7614C62.0443 27.4057 59.318 27.3161 56.7654 26.5025L57.234 26.3518C57.3331 26.3206 57.4196 26.2584 57.4811 26.1744C57.5426 26.0903 57.5758 25.9887 57.5759 25.8843V24.5707C58.6471 25.2644 59.88 25.664 61.1523 25.7298C62.2029 25.6857 63.2288 25.3959 64.1487 24.8836C64.1487 24.9416 64.1487 24.9957 64.1487 25.0537C64.1493 25.6556 64.3227 26.2446 64.648 26.7498L64.6442 26.7614ZM65.7966 22.5114C64.1487 24.0568 62.2663 24.7484 61.137 24.7484C60.0076 24.7484 58.1253 24.0568 56.4734 22.5114C55.5935 21.7155 54.8895 20.7427 54.4071 19.6558C53.9247 18.5689 53.6746 17.3922 53.673 16.202C54.3453 16.7468 55.3402 17.0443 56.5964 17.0443C57.4084 17.0738 58.2174 16.9303 58.9704 16.6231C58.975 16.7913 59.0088 16.9574 59.0703 17.1138C59.1493 17.3076 59.2666 17.4833 59.4152 17.63C59.5638 17.7768 59.7405 17.8917 59.9346 17.9677C60.7137 18.2819 61.5833 18.2819 62.3624 17.9677C62.5554 17.893 62.7314 17.7799 62.8799 17.6352C63.0285 17.4905 63.1464 17.3171 63.2267 17.1254C63.2894 16.9692 63.3245 16.8031 63.3304 16.6347C64.081 16.9408 64.8873 17.0843 65.6968 17.0559C66.9529 17.0559 67.9478 16.7584 68.6201 16.2136C68.6181 17.4041 68.3674 18.581 67.8843 19.6679C67.4012 20.7547 66.6965 21.7274 65.8158 22.5229L65.7966 22.5114ZM69.4383 17.7977C69.5309 17.2631 69.5772 16.7214 69.5766 16.1788V13.0879C69.6052 13.0153 69.6528 12.9518 69.7143 12.9042C69.7759 12.8566 69.8491 12.8266 69.9262 12.8174C70.0875 12.8174 70.2182 13.0222 70.2835 13.1458C70.4858 13.613 70.5791 14.1205 70.5562 14.6295C70.5716 16.6772 69.9224 17.5156 69.4537 17.8093L69.4383 17.7977Z" fill="#343E4C"/>
<path d="M77.8396 18.8486C77.8415 18.0517 77.5374 17.2849 76.9906 16.7081C77.3061 16.2094 77.4727 15.6301 77.4708 15.039C77.4692 14.5746 77.365 14.1163 77.1657 13.6973C76.9664 13.2783 76.677 12.9092 76.3184 12.6165C76.6333 11.8728 76.6491 11.0353 76.3625 10.2801C76.0759 9.52487 75.5093 8.91092 74.7818 8.56738C74.8665 7.81476 74.6735 7.05705 74.2394 6.43812C73.8053 5.81918 73.1603 5.3821 72.427 5.20986C72.3266 4.46145 71.9599 3.775 71.3949 3.27771C70.8298 2.78042 70.1047 2.506 69.3538 2.50529H69.1848C68.9375 1.95911 68.5397 1.49563 68.0387 1.16971C67.5376 0.843778 66.9542 0.669046 66.3575 0.66619C65.9248 0.665117 65.4967 0.755963 65.1013 0.932783C64.5915 0.410575 63.9152 0.0856318 63.191 0.0149793C62.4667 -0.0556732 61.7409 0.132479 61.1408 0.546416C60.5401 0.132193 59.8137 -0.0561071 59.0888 0.014541C58.3639 0.085189 57.6868 0.410274 57.1764 0.932783C56.7825 0.755602 56.3556 0.664726 55.9241 0.66619C55.3272 0.668099 54.7434 0.842446 54.2421 1.16849C53.7409 1.49453 53.3434 1.95853 53.0968 2.50529H52.9239C52.1731 2.506 51.448 2.78042 50.8829 3.27771C50.3178 3.775 49.9511 4.46145 49.8508 5.20986C49.1224 5.39107 48.4834 5.83028 48.0509 6.44696C47.6183 7.06364 47.4213 7.81646 47.496 8.56738C46.7685 8.91092 46.2018 9.52487 45.9152 10.2801C45.6286 11.0353 45.6445 11.8728 45.9594 12.6165C45.601 12.9093 45.3117 13.2785 45.1124 13.6975C44.9131 14.1164 44.8088 14.5746 44.8069 15.039C44.8062 15.6305 44.9742 16.2098 45.291 16.7081C45.2229 16.7779 45.1588 16.8514 45.0989 16.9284C45.0189 17.0308 44.9827 17.1611 44.9982 17.2904C45.0137 17.4197 45.0796 17.5376 45.1815 17.618C45.2834 17.6985 45.4128 17.7349 45.5414 17.7193C45.67 17.7037 45.7872 17.6374 45.8672 17.535C45.9796 17.3914 46.1086 17.2617 46.2513 17.1486C46.3044 17.1081 46.3486 17.057 46.381 16.9985C46.4134 16.94 46.4334 16.8753 46.4396 16.8086C46.447 16.7394 46.4402 16.6695 46.4197 16.603C46.3993 16.5366 46.3655 16.475 46.3205 16.4222C45.9797 16.0341 45.7924 15.5336 45.7942 15.0158C45.802 14.6445 45.9056 14.2815 46.0948 13.9625C46.284 13.6435 46.5524 13.3794 46.8736 13.1961C46.9296 13.1628 46.9785 13.1187 47.0174 13.0663C47.0563 13.0139 47.0845 12.9542 47.1003 12.8908C47.1172 12.8257 47.1204 12.7577 47.1099 12.6912C47.0993 12.6247 47.0751 12.5611 47.0388 12.5045C46.8675 12.2274 46.7616 11.9145 46.7294 11.5898C46.6972 11.2651 46.7395 10.9373 46.8531 10.6316C46.9666 10.326 47.1484 10.0506 47.3844 9.82668C47.6204 9.60277 47.9043 9.43631 48.2143 9.34012C48.3331 9.30249 48.4332 9.22095 48.4945 9.11195C48.5559 9.00295 48.5738 8.87461 48.5447 8.75284C48.5019 8.58228 48.48 8.40713 48.4794 8.23125C48.4782 7.70025 48.6746 7.18803 49.0301 6.79545C49.3856 6.40286 49.8743 6.15836 50.4001 6.11009C50.5213 6.09756 50.6335 6.03985 50.7145 5.94833C50.7956 5.85681 50.8396 5.73809 50.838 5.61554C50.84 5.05488 51.061 4.51745 51.4534 4.11919C51.8458 3.72093 52.3781 3.49376 52.9355 3.48666C53.0708 3.48803 53.2057 3.50096 53.3388 3.5253C53.4582 3.54942 53.5822 3.52743 53.6861 3.4637C53.7901 3.39997 53.8663 3.29919 53.8997 3.18144C53.9918 2.86698 54.1547 2.57811 54.3758 2.33727C54.5969 2.09643 54.8703 1.9101 55.1746 1.79274C55.4789 1.67539 55.8061 1.63017 56.1306 1.66061C56.4551 1.69105 56.7683 1.79632 57.0458 1.96825C57.1495 2.03283 57.2734 2.05633 57.3934 2.0342C57.5133 2.01206 57.6208 1.94587 57.695 1.84847C57.8916 1.58336 58.1473 1.36834 58.4415 1.22071C58.7357 1.07308 59.0603 0.996955 59.3891 0.998465C59.919 0.997688 60.43 1.19613 60.822 1.55483C60.9109 1.63574 61.0266 1.68054 61.1466 1.68054C61.2665 1.68054 61.3822 1.63574 61.4712 1.55483C61.6897 1.35464 61.9474 1.20252 62.2277 1.1082C62.508 1.01388 62.8048 0.979435 63.0991 1.00707C63.3934 1.03471 63.6788 1.12382 63.9369 1.2687C64.195 1.41358 64.4202 1.61105 64.5981 1.84847C64.6711 1.94632 64.7779 2.01297 64.8975 2.03516C65.0171 2.05735 65.1406 2.03346 65.2435 1.96825C65.5206 1.79704 65.8332 1.69224 66.157 1.66197C66.4809 1.63169 66.8073 1.67675 67.1111 1.79366C67.4148 1.91056 67.6878 2.09618 67.9088 2.33615C68.1299 2.57613 68.2931 2.86402 68.3858 3.17757C68.4199 3.29483 68.4963 3.39506 68.6001 3.45866C68.7038 3.52225 68.8274 3.54464 68.9466 3.52144C69.0798 3.49728 69.2147 3.48435 69.35 3.4828C69.9117 3.4828 70.4505 3.70697 70.848 4.1061C71.2456 4.50523 71.4694 5.04671 71.4705 5.61168C71.4698 5.73459 71.5147 5.85333 71.5964 5.94476C71.6781 6.03618 71.7907 6.09375 71.9122 6.10623C72.4383 6.15364 72.9276 6.39788 73.2832 6.79066C73.6389 7.18343 73.8351 7.69613 73.833 8.22738C73.8336 8.40311 73.813 8.57827 73.7715 8.74898C73.7405 8.87083 73.7575 9.00004 73.8191 9.10952C73.8807 9.219 73.982 9.30026 74.1019 9.33625C74.535 9.47052 74.9137 9.74132 75.1821 10.1087C75.4505 10.476 75.5943 10.9204 75.5923 11.3763C75.5939 11.7738 75.4834 12.1637 75.2735 12.5006C75.2394 12.5565 75.2168 12.6187 75.2069 12.6835C75.197 12.7483 75.2 12.8145 75.2157 12.8781C75.2314 12.9418 75.2596 13.0016 75.2985 13.0542C75.3375 13.1068 75.3864 13.1511 75.4425 13.1845C75.7131 13.3427 75.9454 13.5594 76.1227 13.8189C76.3 14.0783 76.4179 14.3741 76.4678 14.6849C76.5178 14.9956 76.4986 15.3137 76.4117 15.6161C76.3247 15.9186 76.1721 16.1978 75.965 16.4338C75.9211 16.4845 75.888 16.5437 75.8677 16.6077C75.8473 16.6717 75.8402 16.7393 75.8467 16.8062C75.8531 16.873 75.8731 16.9379 75.9053 16.9968C75.9375 17.0557 75.9814 17.1073 76.0341 17.1486C76.2798 17.339 76.4809 17.5813 76.6233 17.8583C76.7658 18.1354 76.846 18.4406 76.8585 18.7522C76.8709 19.0639 76.8153 19.3745 76.6954 19.6622C76.5755 19.9499 76.3944 20.2076 76.1647 20.4172C76.1137 20.4628 76.073 20.5187 76.0451 20.5814C76.0173 20.644 76.0031 20.7118 76.0034 20.7804C76.0002 20.8528 76.0131 20.925 76.041 20.9918C76.0689 21.0586 76.1111 21.1184 76.1647 21.1668C76.4264 21.4058 76.6246 21.7069 76.7411 22.0426C76.8577 22.3782 76.8889 22.7379 76.832 23.0888C76.7752 23.4398 76.6319 23.7708 76.4154 24.0519C76.1989 24.333 75.916 24.5551 75.5923 24.6982C75.5301 24.7262 75.4741 24.7667 75.4279 24.8172C75.3817 24.8677 75.3461 24.9271 75.3234 24.9918C75.3032 25.0553 75.2959 25.1222 75.3018 25.1885C75.3078 25.2549 75.3269 25.3194 75.358 25.3782C75.5522 25.7305 75.643 26.131 75.6198 26.5331C75.5967 26.9353 75.4606 27.3226 75.2274 27.65C75.152 27.7562 75.1214 27.8881 75.1422 28.017C75.1631 28.1458 75.2338 28.2611 75.3388 28.3378C75.4215 28.3981 75.521 28.4305 75.6231 28.4305C75.6987 28.4295 75.7729 28.4104 75.8397 28.3747C75.9065 28.3391 75.9639 28.2881 76.0072 28.2257C76.3861 27.697 76.5891 27.0615 76.5873 26.4098C76.5873 26.0517 76.5263 25.6962 76.4067 25.3589C76.7716 25.1229 77.083 24.8125 77.321 24.4477C77.5589 24.0829 77.718 23.6719 77.7879 23.2414C77.8578 22.8108 77.8369 22.3703 77.7267 21.9483C77.6165 21.5264 77.4194 21.1324 77.1481 20.792C77.5866 20.2446 77.8264 19.5632 77.8281 18.8602L77.8396 18.8486Z" fill="#343E4C"/>
<path d="M51.0762 27.2869L50.0813 27.6076C49.463 27.8039 48.8824 28.1044 48.3641 28.4962C48.0401 28.4276 47.7365 28.2835 47.4777 28.0756C47.2189 27.8677 47.0122 27.6017 46.874 27.299C46.7359 26.9963 46.6701 26.6652 46.682 26.3323C46.694 25.9995 46.7833 25.674 46.9428 25.3821C46.9742 25.3234 46.9934 25.2588 46.9993 25.1925C47.0053 25.1261 46.9978 25.0591 46.9774 24.9957C46.9561 24.9308 46.9216 24.8711 46.8759 24.8205C46.8303 24.7699 46.7745 24.7296 46.7123 24.7021C46.3879 24.5598 46.1042 24.338 45.8871 24.0569C45.67 23.7759 45.5264 23.4445 45.4694 23.0933C45.4125 22.742 45.444 22.3819 45.5612 22.0461C45.6783 21.7102 45.8773 21.4092 46.1399 21.1707C46.1922 21.1214 46.2333 21.0614 46.2605 20.9948C46.2877 20.9281 46.3003 20.8563 46.2974 20.7843C46.2975 20.7161 46.2835 20.6487 46.2564 20.5862C46.2293 20.5237 46.1897 20.4675 46.1399 20.4211C45.7835 20.0971 45.5466 19.6614 45.4677 19.1848C45.4576 19.1211 45.4351 19.06 45.4016 19.0051C45.368 18.9501 45.324 18.9024 45.2721 18.8645C45.2202 18.8267 45.1614 18.7995 45.0991 18.7845C45.0367 18.7695 44.9721 18.767 44.9087 18.7772C44.8454 18.7873 44.7847 18.8099 44.7301 18.8436C44.6755 18.8774 44.628 18.9216 44.5904 18.9738C44.5527 19.026 44.5257 19.0852 44.5108 19.1479C44.4959 19.2106 44.4934 19.2756 44.5035 19.3393C44.5891 19.8681 44.8087 20.3658 45.1412 20.7843C44.871 21.1252 44.6749 21.5192 44.5654 21.941C44.4558 22.3627 44.4353 22.8029 44.5052 23.2331C44.575 23.6633 44.7336 24.074 44.9709 24.4388C45.2081 24.8036 45.5187 25.1144 45.8826 25.3512C45.6194 26.0917 45.6441 26.9049 45.9519 27.6279C46.2596 28.3508 46.8276 28.9301 47.5421 29.2496C46.6088 30.3063 46.097 31.6729 46.1054 33.0862C46.1054 33.2164 46.1568 33.3412 46.2483 33.4332C46.3397 33.5252 46.4638 33.5769 46.5932 33.5769C46.7226 33.5769 46.8467 33.5252 46.9382 33.4332C47.0297 33.3412 47.0811 33.2164 47.0811 33.0862C47.0789 32.0732 47.3987 31.086 47.9936 30.2686C48.5886 29.4512 49.4278 28.8465 50.3886 28.5426L51.3835 28.2257C51.5073 28.1863 51.6104 28.099 51.6702 27.9831C51.73 27.8671 51.7416 27.7321 51.7024 27.6076C51.6631 27.4831 51.5763 27.3793 51.4611 27.3192C51.3458 27.259 51.2115 27.2474 51.0877 27.2869H51.0762Z" fill="#343E4C"/>
<path d="M72.9225 27.8818C72.816 27.4395 72.6155 27.0256 72.3348 26.6686C72.8273 26.0502 73.0666 25.266 73.0037 24.4762C72.9409 23.6864 72.5807 22.9504 71.9967 22.4186C71.9491 22.3752 71.8934 22.3417 71.8328 22.32C71.7723 22.2983 71.7081 22.2887 71.6439 22.292C71.5796 22.2952 71.5167 22.3111 71.4586 22.3388C71.4005 22.3665 71.3484 22.4054 71.3053 22.4534C71.2622 22.5013 71.2288 22.5574 71.2072 22.6183C71.1856 22.6792 71.1761 22.7437 71.1794 22.8083C71.1826 22.8729 71.1984 22.9362 71.2259 22.9946C71.2535 23.0531 71.2922 23.1055 71.3399 23.1488C71.5586 23.3491 71.7334 23.5931 71.853 23.8652C71.9726 24.1373 72.0344 24.4316 72.0344 24.7291C72.0344 25.0266 71.9726 25.3208 71.853 25.593C71.7334 25.8651 71.5586 26.1091 71.3399 26.3093C71.289 26.355 71.2483 26.4109 71.2204 26.4735C71.1926 26.5361 71.1781 26.6039 71.1781 26.6725C71.1781 26.7411 71.1926 26.8089 71.2204 26.8715C71.2483 26.9341 71.289 26.99 71.3399 27.0357C71.6023 27.2749 71.801 27.5765 71.9178 27.9128C72.0346 28.2491 72.0658 28.6095 72.0085 28.9611C71.9512 29.3126 71.8072 29.6441 71.5898 29.9254C71.3723 30.2066 71.0883 30.4285 70.7636 30.5709C70.7018 30.5988 70.6464 30.6393 70.6009 30.6898C70.5553 30.7402 70.5207 30.7996 70.499 30.8642C70.4774 30.9287 70.4692 30.9971 70.4751 31.065C70.481 31.1329 70.5007 31.1988 70.5331 31.2587C70.6728 31.5114 70.7595 31.7902 70.7879 32.078C70.8163 32.3657 70.7858 32.6562 70.6983 32.9316C70.6793 32.9933 70.6726 33.0581 70.6786 33.1224C70.6845 33.1866 70.703 33.2491 70.7329 33.3061C70.7629 33.3632 70.8038 33.4138 70.8532 33.4549C70.9027 33.4961 70.9597 33.527 71.021 33.546C71.0681 33.5615 71.1174 33.5693 71.167 33.5691C71.2708 33.569 71.3718 33.5356 71.4554 33.4737C71.5389 33.4119 71.6007 33.3249 71.6318 33.2253C71.7269 32.9229 71.7749 32.6075 71.7739 32.2903C71.774 31.9309 71.7129 31.5742 71.5934 31.2355C71.9721 30.9928 72.2936 30.6701 72.5358 30.2898C72.7779 29.9094 72.9348 29.4807 72.9955 29.0332C73.6823 29.46 74.2491 30.0565 74.6418 30.766C75.0345 31.4754 75.2401 32.2742 75.2389 33.0862C75.2498 33.2093 75.3061 33.3239 75.3967 33.4073C75.4874 33.4908 75.6058 33.5371 75.7287 33.5371C75.8516 33.5371 75.97 33.4908 76.0607 33.4073C76.1514 33.3239 76.2076 33.2093 76.2185 33.0862C76.2182 31.9932 75.9079 30.923 75.3241 30.0012C74.7403 29.0794 73.9072 28.3442 72.9225 27.8818Z" fill="#343E4C"/>
</svg>
