<svg width="158" height="44" viewBox="0 0 158 44" fill="none" xmlns="http://www.w3.org/2000/svg">
<path fill-rule="evenodd" clip-rule="evenodd" d="M60.887 3.05407L60.7798 3.29664L60.6725 3.53548C61.154 3.88519 61.5234 4.36947 61.7351 4.92854C61.9468 5.48761 61.9915 6.09698 61.8638 6.68142L65.3047 8.22639C65.6501 7.74031 66.1295 7.36729 66.6834 7.15366C67.2372 6.94003 67.841 6.8952 68.4199 7.02474C68.4569 6.95011 68.4902 6.86801 68.5272 6.78591L68.6345 6.54334C68.1526 6.19414 67.7831 5.70975 67.5719 5.15041C67.3608 4.59108 67.3173 3.98147 67.4469 3.3974L64.2465 1.96064L64.0097 1.85242C63.6627 2.33875 63.182 2.71179 62.627 2.92537C62.0719 3.13895 61.467 3.1837 60.887 3.05407ZM64.0023 0.512691L63.932 0.486568C63.6351 0.355329 63.3313 0.240711 63.0219 0.143238C62.5552 -0.0439874 62.0359 -0.0478 61.5667 0.132553C61.0974 0.312906 60.7123 0.664295 60.4875 1.11725C60.3223 1.39844 60.1728 1.68873 60.0398 1.98676C60.0261 2.00834 60.0137 2.03078 60.0028 2.05394C59.995 2.07072 59.9888 2.08821 59.9843 2.10618L59.692 2.75925L59.6587 2.83389C59.5551 3.06527 59.4589 3.28171 59.3701 3.48696C59.3701 3.50562 59.3516 3.52055 59.3442 3.53921C59.334 3.56221 59.3253 3.5859 59.3183 3.61011C59.186 3.90866 59.0723 4.21527 58.9779 4.52815C58.7916 4.99819 58.7875 5.52174 58.9664 5.99469C59.1454 6.46764 59.4942 6.85535 59.9436 7.08072C60.2214 7.25012 60.5093 7.40217 60.8056 7.53601L60.8722 7.57332H60.924L61.5715 7.86814L64.5943 9.23399L65.2418 9.52134L65.2899 9.54747L65.3602 9.57359C65.6608 9.71336 65.9697 9.83425 66.2851 9.93558C66.7517 10.1228 67.271 10.1266 67.7403 9.94626C68.2096 9.76591 68.5947 9.41452 68.8195 8.96157C68.9767 8.68476 69.1188 8.39947 69.245 8.10698L69.2783 8.0398L69.3005 7.98756C69.393 7.78604 69.4892 7.56586 69.5891 7.33822L69.6261 7.25985L69.911 6.60678L69.9369 6.55453C69.9477 6.53178 69.9564 6.50804 69.9628 6.48363C70.0945 6.18441 70.2094 5.87791 70.3068 5.5656C70.4701 5.09059 70.4701 4.57399 70.3068 4.09898C70.1141 3.6349 69.7693 3.25157 69.3301 3.01302C69.0646 2.83985 68.7891 2.68284 68.505 2.54281C68.4853 2.52726 68.4626 2.51585 68.4384 2.50922C68.4222 2.49953 68.4048 2.49201 68.3866 2.48683L67.7429 2.19202L64.7016 0.829896L64.0652 0.538813L64.0023 0.512691ZM62.6778 1.31503C62.4634 1.22364 62.2244 1.20915 62.0007 1.27398C61.8601 1.32623 61.7158 1.43819 61.5197 1.75912C61.4901 1.80391 61.4642 1.85242 61.4346 1.90093C61.6923 1.91718 61.9503 1.87762 62.1916 1.78494C62.4328 1.69225 62.6515 1.54857 62.8332 1.36355L62.6778 1.31503ZM60.1397 4.87521C60.0491 5.09145 60.0347 5.3325 60.099 5.55813C60.1508 5.69994 60.2618 5.84548 60.58 6.04327L60.7206 6.1291C60.7367 5.86925 60.6974 5.60892 60.6056 5.36562C60.5137 5.12231 60.3712 4.90165 60.1878 4.71847C60.1693 4.77071 60.1545 4.82296 60.1397 4.87521ZM66.6144 8.76751C66.8304 8.85825 67.0707 8.87142 67.2952 8.80483C67.4321 8.75258 67.5764 8.64063 67.7762 8.31969L67.8576 8.17788C67.5999 8.16164 67.3418 8.20119 67.1006 8.29388C66.8594 8.38657 66.6406 8.53025 66.459 8.71527L66.6144 8.76751ZM69.1562 5.20734C69.2465 4.98956 69.2595 4.74705 69.1932 4.52068C69.1414 4.37887 69.0304 4.23333 68.7122 4.03554L68.5716 3.95344C68.5581 4.21303 68.5985 4.47261 68.6903 4.71553C68.782 4.95845 68.9231 5.17935 69.1044 5.36408L69.1562 5.20734ZM64.4611 4.95731C64.4446 4.99446 64.4394 5.03573 64.4462 5.07586C64.453 5.11599 64.4715 5.15317 64.4993 5.18267C64.5271 5.21218 64.563 5.23267 64.6024 5.24155C64.6418 5.25043 64.6829 5.24729 64.7206 5.23254C64.7582 5.21778 64.7906 5.19207 64.8137 5.15868C64.8368 5.12529 64.8495 5.08573 64.8503 5.04502C64.851 5.00432 64.8397 4.96431 64.8179 4.93008C64.796 4.89585 64.7645 4.86896 64.7275 4.85282C64.6784 4.83142 64.6229 4.83039 64.573 4.84995C64.5232 4.8695 64.483 4.90807 64.4611 4.95731ZM64.0652 6.34182C63.8079 6.22927 63.5896 6.04204 63.4381 5.80396C63.2865 5.56588 63.2087 5.28771 63.2144 5.00487C63.2201 4.72202 63.3092 4.44728 63.4702 4.21563C63.6312 3.98397 63.8569 3.80587 64.1185 3.70399C64.3802 3.60212 64.666 3.58107 64.9395 3.64354C65.2131 3.70601 65.462 3.84916 65.6547 4.05478C65.8473 4.26039 65.975 4.51918 66.0213 4.79819C66.0677 5.0772 66.0308 5.36382 65.9151 5.62157C65.7615 5.96183 65.4817 6.2278 65.1359 6.36244C64.7901 6.49709 64.4057 6.48968 64.0652 6.34182ZM67.6837 14.9997C67.7368 15.1348 67.7406 15.2846 67.6943 15.4223C67.6479 15.5599 67.5545 15.6764 67.4308 15.751C67.307 15.8255 67.161 15.8532 67.0189 15.829C66.8768 15.8049 66.7478 15.7305 66.6551 15.6192C65.9631 14.4611 65.0425 13.4589 63.9505 12.6747C62.8406 11.8799 61.627 11.4432 60.5282 11.5739C60.4326 11.5853 60.3392 11.6105 60.2507 11.6485C60.1764 11.6808 60.1094 11.7278 60.0535 11.7867C59.9977 11.8456 59.9541 11.9153 59.9255 11.9915C59.8968 12.0677 59.8837 12.149 59.8868 12.2305C59.8899 12.312 59.9092 12.392 59.9436 12.4658C59.9563 12.493 59.9711 12.5192 59.988 12.5441C60.378 12.7704 60.7895 12.9566 61.2163 13.1002C61.3514 13.1626 61.4591 13.2729 61.5189 13.4101C61.5788 13.5472 61.5866 13.7018 61.541 13.8444C61.4954 13.9871 61.3995 14.1079 61.2714 14.1839C61.1434 14.26 60.9921 14.286 60.8463 14.257C60.3532 14.0901 59.8774 13.8751 59.4256 13.6152C59.3815 13.5942 59.3394 13.5692 59.2998 13.5405C59.2147 13.492 59.1333 13.4398 59.0593 13.3913C58.3908 12.9105 57.8516 12.2692 57.4906 11.5253L56.61 9.90945C56.5132 9.74432 56.368 9.6136 56.1943 9.53538C56.0206 9.45716 55.8272 9.4353 55.6407 9.47283C55.5808 9.47625 55.5222 9.49231 55.4689 9.51997C55.4155 9.54762 55.3685 9.58625 55.3308 9.63338C55.2931 9.6805 55.2657 9.73506 55.2503 9.79354C55.2348 9.85202 55.2317 9.91312 55.2411 9.97289C55.314 10.6264 55.4631 11.269 55.6851 11.8873C56.2435 13.0351 57.1068 14.004 58.1788 14.6862C59.3272 15.4432 60.602 15.9844 61.9415 16.2834C62.7795 16.4704 63.5965 16.743 64.3797 17.097L66.0446 17.8433C66.1918 17.9092 66.3071 18.0313 66.365 18.1828C66.4229 18.3343 66.4188 18.5028 66.3536 18.6513C66.2883 18.7997 66.1673 18.916 66.017 18.9744C65.8668 19.0329 65.6997 19.0287 65.5525 18.9629L63.8876 18.2165C63.1744 17.893 62.4307 17.6429 61.6677 17.4702C60.1845 17.1391 58.7731 16.5398 57.5017 15.7013C56.8581 15.2909 56.2773 14.788 55.7776 14.2085C55.2874 13.647 54.8777 13.0189 54.5603 12.3426C54.2944 11.6207 54.1167 10.8688 54.0312 10.1035C53.9777 9.68626 54.0842 9.26416 54.3291 8.92354C54.5739 8.58293 54.9386 8.34956 55.3484 8.27118C55.7915 8.17535 56.2533 8.22423 56.667 8.41074C57.0808 8.59725 57.4249 8.91172 57.6497 9.30863L58.5302 10.9245C58.6264 11.0999 58.7226 11.2641 58.8225 11.4208C59.0079 11.0188 59.3312 10.6981 59.7327 10.5177C59.9339 10.4289 60.1471 10.371 60.3654 10.3461C61.8749 10.1669 63.3733 10.7715 64.6276 11.6597C65.8646 12.5486 66.9063 13.6857 67.6874 14.9997H67.6837Z" fill="#3366FF"/>
<path d="M85.9032 26.8269C86.6058 27.2048 87.3474 27.6064 88.1281 28.0316C88.9087 28.4411 89.6582 28.8741 90.3764 29.3308C90.595 29.4726 90.7043 29.7324 90.7043 30.1104C90.6887 30.5041 90.5638 30.9057 90.3296 31.3151C90.111 31.7246 89.8065 32.0159 89.4162 32.1892C89.2756 32.2522 89.1273 32.2758 88.9712 32.26C88.8307 32.2443 88.698 32.2128 88.5731 32.1655C88.2608 32.0553 87.9173 31.9214 87.5426 31.764C87.1835 31.5907 86.8087 31.4175 86.4184 31.2443C86.0281 31.071 85.6377 30.8899 85.2474 30.7009C84.8571 30.512 84.4902 30.323 84.1467 30.134C83.8188 30.4647 83.5221 30.7718 83.2567 31.0553C82.9913 31.323 82.7337 31.5829 82.4838 31.8348C82.234 32.0868 81.9764 32.3309 81.711 32.5671C81.4456 32.8034 81.1489 33.0396 80.821 33.2758C80.6493 33.4018 80.4932 33.4963 80.3526 33.5593C80.2121 33.6065 80.0326 33.6144 79.814 33.5829C79.3612 33.5357 78.9474 33.3624 78.5727 33.0632C78.2136 32.7482 78.0028 32.3624 77.9404 31.9057C77.8935 31.512 77.9872 31.1813 78.2214 30.9136C78.7366 30.3624 79.2831 29.7718 79.8608 29.1419C80.4541 28.4962 81.1021 27.819 81.8047 27.1103C81.7891 26.8898 81.7734 26.6221 81.7578 26.3072C81.7578 25.9764 81.75 25.6221 81.7344 25.2441C80.5634 25.2914 79.4783 25.315 78.479 25.315C78.1199 25.315 77.8389 25.2048 77.6359 24.9843C77.4329 24.7481 77.3236 24.3307 77.308 23.7323C77.2924 23.1969 77.3705 22.7795 77.5422 22.4803C77.714 22.1653 78.0028 21.9921 78.4088 21.9606C78.924 21.9291 79.4549 21.9055 80.0013 21.8897C80.5478 21.874 81.1021 21.8504 81.6641 21.8189C81.6641 21.6456 81.6563 21.4882 81.6407 21.3464C81.6407 21.1889 81.6407 21.0472 81.6407 20.9212C81.6095 20.4015 81.7422 19.9921 82.0389 19.6929C82.3511 19.3936 82.8976 19.2125 83.6783 19.1495C84.537 19.0865 85.1225 19.1732 85.4348 19.4094C85.747 19.6456 85.9032 19.9921 85.9032 20.4488V21.6299C86.5433 21.5984 87.1757 21.5827 87.8002 21.5827C88.4247 21.5669 89.0493 21.5433 89.6738 21.5118C90.392 21.496 90.7745 21.9921 90.8214 23C90.8526 23.5827 90.7589 24 90.5403 24.252C90.3374 24.4882 90.0563 24.6221 89.6972 24.6536C89.2913 24.7008 88.7604 24.7559 88.1047 24.8189C87.4489 24.8662 86.7151 24.9213 85.9032 24.9843V26.8269ZM90.0954 36.7483C90.4388 36.89 90.837 37.0475 91.2898 37.2208C91.7426 37.394 92.2032 37.5751 92.6716 37.7641C93.1556 37.9373 93.624 38.1105 94.0768 38.2838C94.5295 38.4728 94.9355 38.646 95.2946 38.8035C95.5912 38.9295 95.7396 39.1814 95.7396 39.5594C95.7552 39.9689 95.6303 40.3468 95.3649 40.6933C95.115 41.0397 94.8496 41.2681 94.5686 41.3783C94.3031 41.5043 93.9987 41.5043 93.6552 41.3783C93.3429 41.2838 92.9526 41.1421 92.4842 40.9531C92.0158 40.7641 91.524 40.5594 91.0087 40.3389C90.4935 40.1342 89.9861 39.9137 89.4864 39.6775C89.0024 39.457 88.5809 39.2523 88.2217 39.0633C87.847 39.331 87.4411 39.583 87.0039 39.8192C86.5667 40.0712 86.1296 40.3074 85.6924 40.5279C85.2552 40.7641 84.8337 40.9846 84.4277 41.1894C84.0218 41.3941 83.6549 41.5752 83.327 41.7327C83.1396 41.8272 82.9757 41.8823 82.8352 41.898C82.6946 41.9138 82.5385 41.9059 82.3667 41.8744C82.0076 41.7957 81.7266 41.6224 81.5236 41.3547C81.3207 41.1027 81.1879 40.8114 81.1255 40.4807C81.0943 40.2444 81.1021 40.0555 81.1489 39.9137C81.2114 39.772 81.3285 39.6381 81.5002 39.5121C81.7344 39.3547 82.0389 39.1736 82.4136 38.9688C82.8039 38.7798 83.2099 38.5751 83.6314 38.3546C84.0686 38.1342 84.5058 37.9137 84.9429 37.6932C85.3801 37.457 85.7861 37.2286 86.1608 37.0082L86.114 36.4176C85.3801 36.4491 84.6775 36.4806 84.0061 36.5121C83.3348 36.5278 82.7259 36.5436 82.1794 36.5593C81.9452 36.5593 81.7266 36.4806 81.5236 36.3231C81.3363 36.1499 81.227 35.764 81.1957 35.1656C81.1645 34.6774 81.2348 34.3388 81.4065 34.1498C81.5939 33.9451 81.8281 33.827 82.1091 33.7955C82.9522 33.7483 83.8812 33.701 84.8961 33.6538C85.9266 33.6065 86.9805 33.5671 88.0578 33.5357C89.1507 33.5042 90.2359 33.4727 91.3132 33.4412C92.3905 33.4097 93.4132 33.3782 94.3812 33.3467C94.6466 33.3309 94.8574 33.4018 95.0135 33.5593C95.1697 33.7168 95.2634 34.0475 95.2946 34.5514C95.3102 34.8349 95.2946 35.0632 95.2477 35.2365C95.2009 35.4097 95.1307 35.5436 95.037 35.6381C94.9589 35.7325 94.8652 35.7955 94.7559 35.827C94.6466 35.8585 94.5295 35.8822 94.4046 35.8979C93.9987 35.9451 93.4132 36.0003 92.6481 36.0633C91.8831 36.1105 91.0322 36.1578 90.0954 36.205V36.7483ZM95.4585 23.4488C95.4741 23.9055 95.482 24.3701 95.482 24.8426C95.7005 24.8426 95.9035 24.8426 96.0909 24.8426C96.2938 24.8426 96.4656 24.8504 96.6061 24.8662C97.0589 24.9134 97.3712 25.063 97.5429 25.315C97.7303 25.567 97.824 25.9371 97.824 26.4253C97.824 27.008 97.7147 27.4095 97.4961 27.63C97.2931 27.8505 97.0043 27.9922 96.6295 28.0552C96.489 28.0867 96.3095 28.1103 96.0909 28.1261C95.8879 28.1418 95.6693 28.1497 95.4351 28.1497C95.4195 28.7482 95.4039 29.323 95.3883 29.8742C95.3727 30.4254 95.3492 30.9372 95.318 31.4096C95.2868 31.7561 95.1931 32.0317 95.037 32.2364C94.8965 32.4254 94.6701 32.5829 94.3578 32.7089C94.2641 32.7404 94.1314 32.7719 93.9596 32.8034C93.7879 32.8191 93.6005 32.8348 93.3976 32.8506C93.1946 32.8506 92.9994 32.8427 92.8121 32.827C92.6247 32.7955 92.4764 32.7561 92.3671 32.7089C92.1641 32.6144 91.9846 32.4726 91.8284 32.2837C91.6879 32.0789 91.6177 31.8191 91.6177 31.5041C91.602 30.8427 91.5864 30.134 91.5708 29.3781C91.5708 28.6064 91.563 27.8111 91.5474 26.9922C91.5318 26.1733 91.524 25.3544 91.524 24.5355C91.524 23.7166 91.5318 22.9134 91.5474 22.126C91.5474 21.5275 91.7894 21.1338 92.2734 20.9448C92.6481 20.8031 93.0775 20.7401 93.5615 20.7559C94.0455 20.7559 94.4671 20.8267 94.8262 20.9685C95.076 21.063 95.2399 21.1968 95.318 21.3701C95.4117 21.5433 95.4585 21.7874 95.4585 22.1024C95.4585 22.5276 95.4585 22.9764 95.4585 23.4488Z" fill="#343E4C"/>
<path d="M110.609 31.575C110.312 32.3309 109.89 32.9766 109.344 33.512C108.797 34.0475 108.134 34.4648 107.353 34.764C106.572 35.0475 105.698 35.1971 104.73 35.2129C102.716 35.2129 101.155 34.7089 100.046 33.701C98.9376 32.6774 98.3833 31.1025 98.3833 28.9765C98.3833 28.0946 98.5238 27.2599 98.8048 26.4725C99.1015 25.6851 99.5309 25 100.093 24.4174C100.671 23.8189 101.373 23.3543 102.201 23.0236C103.044 22.6772 104.012 22.5039 105.105 22.5039C106.057 22.5039 106.9 22.6693 107.634 23C108.384 23.315 109.008 23.7559 109.508 24.3229C110.007 24.8898 110.39 25.5749 110.655 26.378C110.921 27.1654 111.054 28.0316 111.054 28.9765C111.054 29.9529 110.905 30.8191 110.609 31.575ZM116.229 24.8662C116.229 25.7323 116.214 26.6143 116.182 27.5119C116.401 27.5119 116.604 27.5119 116.791 27.5119C116.979 27.5119 117.151 27.5198 117.307 27.5355C117.759 27.5828 118.072 27.7403 118.243 28.008C118.431 28.26 118.524 28.63 118.524 29.1182C118.524 29.7009 118.415 30.1104 118.197 30.3466C117.994 30.5671 117.705 30.7088 117.33 30.7718C117.174 30.8033 116.987 30.8269 116.768 30.8427C116.549 30.8584 116.315 30.8663 116.065 30.8663C116.003 32.0947 115.933 33.3231 115.855 34.5514C115.777 35.764 115.675 36.9688 115.55 38.1657C115.519 38.5121 115.394 38.7877 115.175 38.9925C114.972 39.2129 114.738 39.3704 114.473 39.4649C114.301 39.5279 114.059 39.5515 113.747 39.5358C113.435 39.52 113.169 39.4728 112.951 39.394C112.748 39.3153 112.568 39.1814 112.412 38.9925C112.271 38.8192 112.201 38.5751 112.201 38.2602C112.185 36.89 112.178 35.5514 112.178 34.2443C112.178 32.9372 112.178 31.638 112.178 30.3466C112.193 29.0395 112.209 27.7245 112.225 26.4016C112.256 25.063 112.287 23.6772 112.318 22.2441C112.334 21.6142 112.576 21.1968 113.044 20.9921C113.419 20.8189 113.848 20.7401 114.332 20.7559C114.816 20.7559 115.238 20.8425 115.597 21.0157C115.847 21.1417 116.011 21.2992 116.089 21.4882C116.182 21.6614 116.229 21.9055 116.229 22.2205C116.229 23.1024 116.229 23.9843 116.229 24.8662ZM104.636 31.8821C105.48 31.8663 106.112 31.5986 106.533 31.0789C106.955 30.5435 107.166 29.8427 107.166 28.9765C107.166 28.0159 106.963 27.2757 106.557 26.756C106.167 26.2205 105.604 25.9528 104.871 25.9528C103.965 25.9528 103.309 26.2442 102.903 26.8269C102.497 27.3938 102.294 28.1261 102.294 29.0237C102.294 30.9293 103.075 31.8821 104.636 31.8821Z" fill="#343E4C"/>
<path d="M129.435 34.3861C130.372 34.3546 131.231 34.3309 132.012 34.3152C132.792 34.2994 133.354 34.2916 133.698 34.2916C134.182 34.2916 134.44 34.5514 134.471 35.0711C134.486 35.3703 134.494 35.7483 134.494 36.205C134.494 36.6617 134.486 37.142 134.471 37.646C134.471 38.1342 134.463 38.6145 134.447 39.0869C134.432 39.5751 134.416 40.0003 134.401 40.3626C134.369 40.8035 134.276 41.1027 134.119 41.2602C133.963 41.4177 133.721 41.5122 133.393 41.5437C132.8 41.6224 132.012 41.6775 131.028 41.709C130.06 41.7405 129.045 41.7563 127.983 41.7563C126.922 41.772 125.891 41.7799 124.892 41.7799C123.908 41.7957 123.104 41.8114 122.48 41.8272C121.886 41.8429 121.473 41.7012 121.238 41.402C121.004 41.1185 120.864 40.6775 120.817 40.0791C120.77 39.4177 120.723 38.7484 120.676 38.0712C120.645 37.394 120.622 36.6302 120.606 35.7798C120.606 35.4176 120.692 35.1499 120.864 34.9766C121.051 34.7876 121.293 34.6853 121.59 34.6695C121.902 34.6538 122.417 34.6302 123.135 34.5987C123.869 34.5672 124.697 34.5357 125.618 34.5042V33.1341C124.541 33.1656 123.495 33.1971 122.48 33.2286C121.465 33.2443 120.512 33.2601 119.622 33.2758C119.451 33.2758 119.31 33.2286 119.201 33.1341C119.107 33.0396 119.037 32.9293 118.99 32.8034C118.943 32.6616 118.912 32.512 118.896 32.3545C118.881 32.1813 118.873 32.0238 118.873 31.8821C118.873 31.5671 118.912 31.2679 118.99 30.9844C119.068 30.7009 119.287 30.5513 119.646 30.5356C120.879 30.4883 122.183 30.4411 123.557 30.3939C124.947 30.3466 126.336 30.3072 127.726 30.2757C129.115 30.2285 130.474 30.197 131.801 30.1813C133.144 30.1498 134.385 30.134 135.525 30.134C135.868 30.134 136.087 30.26 136.18 30.512C136.274 30.7639 136.321 31.0474 136.321 31.3624C136.321 31.6773 136.266 31.9766 136.157 32.26C136.048 32.5435 135.845 32.6931 135.548 32.7089C134.658 32.7719 133.69 32.8348 132.644 32.8978C131.614 32.9451 130.544 32.9845 129.435 33.016V34.3861ZM134.471 20.3543C135.173 20.3385 135.54 20.8346 135.572 21.8425C135.603 22.4252 135.517 22.811 135.314 23C135.127 23.189 134.853 23.2992 134.494 23.3307C134.057 23.378 133.339 23.4331 132.34 23.4961C131.34 23.5591 130.208 23.6221 128.944 23.6851C128.944 23.811 128.936 23.9292 128.92 24.0394C128.92 24.1339 128.92 24.2284 128.92 24.3229C129.42 24.5591 129.966 24.8032 130.56 25.0552C131.153 25.2914 131.746 25.5276 132.34 25.7638C132.933 26.0001 133.503 26.2284 134.049 26.4489C134.596 26.6694 135.072 26.8741 135.478 27.0631C135.743 27.1891 135.907 27.3859 135.97 27.6536C136.048 27.9214 135.977 28.2757 135.759 28.7167C135.54 29.2049 135.283 29.5041 134.986 29.6143C134.705 29.7245 134.369 29.7167 133.979 29.5907C133.495 29.449 132.964 29.2757 132.386 29.071C131.809 28.8663 131.215 28.6537 130.606 28.4332C129.998 28.197 129.396 27.9686 128.803 27.7481C128.21 27.5119 127.656 27.2836 127.14 27.0631C126.11 27.7245 125.079 28.3151 124.049 28.8348C123.034 29.3545 122.097 29.8112 121.238 30.2049C120.942 30.3309 120.63 30.3624 120.302 30.2994C119.989 30.2364 119.693 30.0238 119.412 29.6616C119.146 29.2993 119.029 28.9844 119.06 28.7167C119.092 28.4489 119.224 28.2285 119.459 28.0552C119.771 27.8347 120.138 27.5985 120.559 27.3465C120.996 27.0788 121.449 26.8032 121.918 26.5198C122.402 26.2363 122.886 25.9528 123.37 25.6693C123.854 25.3701 124.306 25.0788 124.728 24.7953C124.712 24.6693 124.705 24.5355 124.705 24.3937C124.705 24.2363 124.697 24.0709 124.681 23.8977C123.776 23.9292 122.933 23.9528 122.152 23.9685C121.371 23.9843 120.708 23.9922 120.161 23.9922C119.818 23.9922 119.544 23.9055 119.341 23.7323C119.138 23.5591 119.029 23.1732 119.014 22.5748C118.998 22.0394 119.076 21.622 119.248 21.3228C119.42 21.0078 119.701 20.8346 120.091 20.8031C120.637 20.7716 121.285 20.7401 122.035 20.7086C122.784 20.6771 123.588 20.6535 124.447 20.6378C125.306 20.6063 126.188 20.5826 127.093 20.5669C128.015 20.5354 128.92 20.5118 129.81 20.496C130.7 20.4645 131.543 20.4409 132.34 20.4251C133.136 20.3937 133.846 20.37 134.471 20.3543ZM130.817 38.709C130.817 38.5358 130.809 38.2838 130.794 37.9531C130.794 37.6223 130.786 37.3231 130.77 37.0554C130.443 37.0554 129.99 37.0712 129.412 37.1026C128.85 37.1184 128.257 37.142 127.632 37.1735C127.023 37.1893 126.43 37.205 125.852 37.2208C125.275 37.2365 124.814 37.2523 124.47 37.268C124.47 37.4097 124.478 37.5751 124.494 37.7641C124.509 37.9531 124.517 38.1342 124.517 38.3074C124.533 38.4964 124.548 38.6696 124.564 38.8271C124.58 39.0003 124.588 39.1342 124.588 39.2287C124.884 39.2287 125.298 39.2208 125.829 39.2051C126.36 39.2051 126.906 39.1972 127.468 39.1814C128.046 39.1657 128.592 39.1499 129.108 39.1342C129.638 39.1342 130.06 39.1263 130.372 39.1106C130.544 39.0948 130.661 39.0633 130.724 39.0161C130.786 38.9846 130.817 38.8901 130.817 38.7326V38.709Z" fill="#343E4C"/>
<path d="M148.023 21.4645C148.554 21.4645 148.975 21.4724 149.288 21.4882C149.787 21.4882 150.053 21.748 150.084 22.2677C150.115 24.4252 150.131 26.567 150.131 28.693C150.131 30.8033 150.092 32.9372 150.014 35.0947C149.998 35.5357 149.904 35.8349 149.733 35.9924C149.577 36.1499 149.327 36.2444 148.983 36.2759C148.374 36.3231 147.695 36.3704 146.946 36.4176C146.212 36.4491 145.455 36.4806 144.674 36.5121C143.893 36.5278 143.12 36.5436 142.355 36.5593C141.59 36.5593 140.88 36.5515 140.224 36.5357C139.615 36.52 139.186 36.3782 138.936 36.1105C138.686 35.827 138.546 35.3861 138.515 34.7876C138.452 33.7483 138.405 32.7404 138.374 31.764C138.343 30.7876 138.319 29.819 138.304 28.8584C138.304 27.882 138.304 26.8977 138.304 25.9056C138.319 24.8977 138.343 23.8583 138.374 22.7874C138.405 22.0787 138.741 21.7086 139.381 21.6771C139.662 21.6614 140.06 21.6456 140.576 21.6299C141.091 21.6142 141.661 21.5984 142.285 21.5827C142.925 21.5512 143.589 21.5275 144.276 21.5118C144.978 21.496 145.642 21.4882 146.267 21.4882C146.907 21.4724 147.492 21.4645 148.023 21.4645ZM155.705 24.8662C155.705 25.7323 155.689 26.6143 155.658 27.5119C155.877 27.5119 156.08 27.5119 156.267 27.5119C156.454 27.5119 156.626 27.5198 156.782 27.5355C157.235 27.5828 157.547 27.7403 157.719 28.008C157.906 28.26 158 28.63 158 29.1182C158 29.7009 157.891 30.1104 157.672 30.3466C157.469 30.5671 157.18 30.7088 156.806 30.7718C156.649 30.8033 156.462 30.8269 156.243 30.8427C156.025 30.8584 155.791 30.8663 155.541 30.8663C155.478 32.0947 155.408 33.3231 155.33 34.5514C155.252 35.764 155.151 36.9688 155.026 38.1657C154.994 38.5121 154.87 38.7877 154.651 38.9925C154.448 39.2129 154.214 39.3704 153.948 39.4649C153.777 39.5279 153.535 39.5515 153.222 39.5358C152.91 39.52 152.645 39.4728 152.426 39.394C152.223 39.3153 152.044 39.1814 151.887 38.9925C151.747 38.8192 151.677 38.5751 151.677 38.2602C151.661 36.89 151.653 35.5514 151.653 34.2443C151.653 32.9372 151.653 31.638 151.653 30.3466C151.669 29.0395 151.684 27.7245 151.7 26.4016C151.731 25.063 151.762 23.6772 151.794 22.2441C151.809 21.6142 152.051 21.1968 152.52 20.9921C152.894 20.8189 153.324 20.7401 153.808 20.7559C154.292 20.7559 154.713 20.8425 155.073 21.0157C155.322 21.1417 155.486 21.2992 155.564 21.4882C155.658 21.6614 155.705 21.9055 155.705 22.2205C155.705 23.1024 155.705 23.9843 155.705 24.8662ZM146.431 32.7325C146.431 32.1183 146.423 31.512 146.407 30.9136C146.391 30.2994 146.376 29.6852 146.36 29.071C146.345 28.4568 146.321 27.8269 146.29 27.1812C146.259 26.5198 146.228 25.8268 146.196 25.1024L142.191 25.0552C142.207 25.8268 142.223 26.5513 142.238 27.2284C142.27 27.8899 142.293 28.5434 142.309 29.1891C142.34 29.8348 142.363 30.4883 142.379 31.1498C142.394 31.8112 142.418 32.512 142.449 33.2522C143.089 33.2207 143.675 33.2049 144.206 33.2049C144.752 33.1892 145.345 33.1734 145.986 33.1577C146.282 33.1577 146.431 33.0238 146.431 32.7561V32.7325Z" fill="#343E4C"/>
<path d="M49.7521 24.5528C49.7521 26.6774 49.7153 28.6682 49.6417 30.5253C49.5827 32.3824 49.4723 34.1207 49.3102 35.7401C49.266 36.2601 49.1261 36.6538 48.8904 36.9212C48.6548 37.1738 48.2055 37.3001 47.5427 37.3001C46.924 37.3001 46.5042 37.1738 46.2833 36.9212C46.0771 36.6687 45.9666 36.275 45.9519 35.7401C45.9372 34.8338 45.9224 33.9796 45.9077 33.1773C45.893 32.3602 45.8856 31.5579 45.8856 30.7705C45.8856 29.983 45.8856 29.1882 45.8856 28.3859C45.9003 27.5836 45.9151 26.7368 45.9298 25.8454C44.8693 25.8454 43.8161 25.8454 42.7703 25.8454C41.7245 25.8305 40.6787 25.8082 39.6329 25.7785C39.3825 25.7637 39.1395 25.6374 38.9038 25.3997C38.6681 25.1471 38.5576 24.7237 38.5724 24.1294C38.5871 23.6391 38.6755 23.2751 38.8375 23.0374C38.9995 22.7848 39.2941 22.6437 39.7213 22.614C41.1942 22.5397 42.5788 22.4877 43.875 22.458C45.1712 22.4134 46.5116 22.3911 47.8962 22.3911C48.2202 22.3911 48.5001 22.3986 48.7358 22.4134C48.9715 22.4134 49.1629 22.4506 49.3102 22.5249C49.4575 22.5843 49.568 22.6808 49.6417 22.8146C49.7153 22.9483 49.7521 23.1414 49.7521 23.394V24.5528ZM55.0548 25.5557C55.0548 26.3728 55.04 27.1974 55.0106 28.0294C55.261 28.0294 55.4967 28.0294 55.7176 28.0294C55.9385 28.0294 56.13 28.0368 56.2921 28.0516C56.7192 28.0962 57.0138 28.2448 57.1758 28.4973C57.3526 28.7351 57.441 29.0842 57.441 29.5448C57.441 30.0945 57.3379 30.4808 57.1316 30.7036C56.9402 30.9116 56.6677 31.0453 56.3142 31.1047C56.1521 31.1345 55.9459 31.1567 55.6955 31.1716C55.4451 31.1865 55.18 31.1939 54.9001 31.1939C54.8412 32.3676 54.7749 33.5339 54.7013 34.6927C54.6276 35.8515 54.5319 37.003 54.414 38.1469C54.3846 38.4738 54.2667 38.7338 54.0605 38.9269C53.869 39.1349 53.6481 39.2835 53.3977 39.3726C53.2357 39.4321 53.0074 39.4544 52.7128 39.4395C52.4182 39.4246 52.1678 39.3801 51.9616 39.3058C51.7701 39.2315 51.6007 39.1052 51.4534 38.9269C51.3208 38.7635 51.2545 38.5332 51.2545 38.2361C51.2398 36.9435 51.2324 35.6807 51.2324 34.4476C51.2324 33.2144 51.2324 31.9887 51.2324 30.7705C51.2472 29.5373 51.2619 28.2968 51.2766 27.0488C51.3061 25.786 51.3356 24.4785 51.365 23.1266C51.3797 22.5323 51.608 22.1386 52.0499 21.9454C52.4034 21.782 52.8085 21.7077 53.2651 21.7226C53.7217 21.7226 54.1194 21.8043 54.4582 21.9677C54.6939 22.0866 54.8486 22.2351 54.9222 22.4134C55.0106 22.5768 55.0548 22.8071 55.0548 23.1043C55.0548 23.9214 55.0548 24.7385 55.0548 25.5557Z" fill="#3366FF"/>
<path d="M68.4296 23.5946C68.8568 23.5648 69.284 23.55 69.7111 23.55C70.153 23.5351 70.536 23.5277 70.86 23.5277C70.86 23.4386 70.86 23.3568 70.86 23.2826C70.8748 23.1934 70.8821 23.1043 70.8821 23.0151C70.8821 22.4506 71.1104 22.0791 71.5671 21.9009C71.9206 21.7671 72.3256 21.7077 72.7822 21.7226C73.2389 21.7226 73.6366 21.7894 73.9753 21.9231C74.211 22.0123 74.3657 22.1386 74.4393 22.302C74.5277 22.4654 74.5719 22.6957 74.5719 22.9928C74.5866 23.6911 74.594 24.4191 74.594 25.1768C74.594 25.9345 74.5866 26.6922 74.5719 27.4499C74.5719 28.1928 74.5572 28.9208 74.5277 29.6339C74.513 30.3322 74.4835 30.9785 74.4393 31.5727C74.4099 31.8996 74.3215 32.1596 74.1742 32.3527C74.0416 32.531 73.828 32.6796 73.5335 32.7984C73.4451 32.8282 73.3199 32.8579 73.1578 32.8876C72.9958 32.9024 72.8191 32.9173 72.6276 32.9322C72.4361 32.9322 72.252 32.9247 72.0752 32.9099C71.8985 32.8802 71.7585 32.843 71.6554 32.7984C71.4639 32.7093 71.2946 32.5756 71.1473 32.3973C71.0147 32.2042 70.9484 31.959 70.9484 31.6619C70.9337 31.4985 70.9263 31.3276 70.9263 31.1493C70.9263 30.971 70.9263 30.7927 70.9263 30.6145C70.5433 30.6442 70.0941 30.6665 69.5786 30.6813C69.063 30.6962 68.599 30.711 68.1866 30.7259C68.1719 30.8002 68.1571 30.8745 68.1424 30.9487C68.1424 31.0082 68.1424 31.075 68.1424 31.1493C68.0835 31.6693 67.9215 32.063 67.6563 32.3304C67.4059 32.583 66.9493 32.7093 66.2865 32.7093C65.6678 32.7093 65.2481 32.583 65.0271 32.3304C64.8062 32.0779 64.681 31.6842 64.6515 31.1493C64.6221 30.6888 64.6 30.1985 64.5852 29.6785C64.5852 29.1436 64.5779 28.6088 64.5631 28.0739C64.5631 27.5391 64.5631 27.0265 64.5631 26.5362C64.5631 26.046 64.5631 25.6002 64.5631 25.1991C63.5026 25.1991 62.5084 25.1991 61.5804 25.1991C60.6524 25.1842 59.6729 25.162 58.6418 25.1322C58.3914 25.1174 58.1484 24.9911 57.9127 24.7534C57.677 24.5008 57.5666 24.0774 57.5813 23.4831C57.596 22.9928 57.6844 22.6288 57.8464 22.3911C58.0085 22.1386 58.3031 21.9974 58.7302 21.9677C59.452 21.938 60.1369 21.9083 60.785 21.8786C61.4478 21.8489 62.0886 21.8266 62.7072 21.8117C63.3406 21.782 63.9666 21.7671 64.5852 21.7671C65.2186 21.7523 65.8814 21.7449 66.5737 21.7449C66.8978 21.7449 67.1776 21.7523 67.4133 21.7671C67.649 21.7671 67.8405 21.8043 67.9878 21.8786C68.1351 21.938 68.2455 22.0346 68.3192 22.1683C68.3928 22.302 68.4296 22.4951 68.4296 22.7477V23.5946ZM63.7235 36.6761C62.9429 36.6761 62.2653 36.6687 61.6909 36.6538C61.2637 36.6241 60.9765 36.3864 60.8292 35.9407C60.7555 35.7327 60.7261 35.4727 60.7408 35.1607C60.7703 34.8487 60.8365 34.5813 60.9396 34.3584C61.0133 34.2099 61.1164 34.091 61.249 34.0019C61.3815 33.8979 61.5509 33.8384 61.7571 33.8236C62.2432 33.7939 62.8029 33.7641 63.4363 33.7344C64.0697 33.7047 64.7399 33.6824 65.4469 33.6676C66.1687 33.6379 66.8978 33.6081 67.6342 33.5784C68.3707 33.5487 69.0851 33.5264 69.7774 33.5116C70.4844 33.4967 71.1473 33.4819 71.7659 33.467C72.3845 33.4521 72.9222 33.4447 73.3788 33.4447C73.6734 33.4447 73.8722 33.5116 73.9753 33.6453C74.0784 33.779 74.13 33.9944 74.13 34.2916C74.13 34.7373 74.1226 35.2276 74.1079 35.7624C74.0932 36.2973 74.0637 36.8395 74.0195 37.3892C73.9901 37.9241 73.9532 38.4515 73.9091 38.9715C73.8796 39.4915 73.8428 39.9669 73.7986 40.3978C73.7397 40.8435 73.5997 41.1703 73.3788 41.3783C73.1578 41.5863 72.7749 41.7126 72.2299 41.7572C71.6849 41.8018 71.2872 41.7275 71.0368 41.5343C70.8011 41.3561 70.6686 41.1183 70.6391 40.8212C70.6244 40.5538 70.6096 40.2418 70.5949 39.8852C70.5949 39.5286 70.5875 39.1498 70.5728 38.7487C70.5728 38.3624 70.5728 37.9761 70.5728 37.5898C70.5728 37.1887 70.5654 36.8247 70.5507 36.4978C70.0057 36.5127 69.3429 36.535 68.5622 36.5647C67.7963 36.5795 66.9935 36.6018 66.1539 36.6315C65.3291 36.6464 64.5189 36.6613 63.7235 36.6761ZM69.689 27.7174C70.1456 27.7025 70.5433 27.6951 70.8821 27.6951C70.8821 27.4871 70.8748 27.2791 70.86 27.0711C70.86 26.8631 70.86 26.6551 70.86 26.4471C70.5213 26.4768 70.1235 26.4991 69.6669 26.5139C69.2103 26.5288 68.7905 26.5437 68.4076 26.5585C68.3928 26.7665 68.3855 26.9745 68.3855 27.1825C68.3855 27.3756 68.3781 27.5762 68.3634 27.7842C68.7905 27.7545 69.2324 27.7322 69.689 27.7174Z" fill="#3366FF"/>
<path d="M14.7406 21.1275C13.8634 20.6722 12.8721 20.4891 11.8918 20.6014C11.7681 20.6197 11.6568 20.6868 11.5822 20.7879C11.5076 20.889 11.4759 21.0159 11.494 21.1406C11.5122 21.2653 11.5787 21.3776 11.679 21.4529C11.7792 21.5281 11.905 21.5601 12.0287 21.5418C12.791 21.4644 13.5597 21.6026 14.2486 21.9411C14.3555 22.0053 14.4834 22.0241 14.6041 21.9933C14.7248 21.9625 14.8285 21.8847 14.8923 21.7769C14.9244 21.7236 14.9456 21.6644 14.9547 21.6028C14.9639 21.5411 14.9608 21.4783 14.9456 21.4179C14.9305 21.3574 14.9036 21.3007 14.8665 21.2508C14.8294 21.201 14.7828 21.1591 14.7295 21.1275H14.7406Z" fill="#343E4C"/>
<path d="M17.238 21.7768C17.2796 21.8472 17.3387 21.9056 17.4094 21.9462C17.4801 21.9867 17.56 22.0081 17.6413 22.0082C17.7272 22.008 17.8114 21.9848 17.8855 21.941C18.5741 21.6019 19.343 21.4637 20.1054 21.5417C20.229 21.56 20.3548 21.528 20.4551 21.4528C20.5553 21.3775 20.6219 21.2652 20.64 21.1405C20.6582 21.0158 20.6265 20.8889 20.5519 20.7878C20.4773 20.6867 20.3659 20.6196 20.2423 20.6012C19.262 20.4892 18.2707 20.6723 17.3934 21.1274C17.2878 21.1931 17.2121 21.2982 17.183 21.4198C17.1539 21.5415 17.1737 21.6698 17.238 21.7768Z" fill="#343E4C"/>
<path d="M19.5911 29.9496H12.5614C12.4919 29.9478 12.4228 29.9612 12.3589 29.9889C12.2951 30.0166 12.2379 30.0579 12.1914 30.1101C12.1471 30.1605 12.1139 30.2198 12.0942 30.2842C12.0744 30.3485 12.0684 30.4164 12.0767 30.4833C12.1319 30.9156 12.2913 31.3277 12.5409 31.6836C12.7905 32.0394 13.1227 32.3282 13.5085 32.5246C14.2996 32.9342 15.176 33.1478 16.0651 33.1478C16.9543 33.1478 17.8307 32.9342 18.6217 32.5246C19.0067 32.3274 19.338 32.0384 19.5869 31.6826C19.8358 31.3269 19.9947 30.9151 20.0499 30.4833C20.0589 30.4164 20.0533 30.3483 20.0335 30.2839C20.0137 30.2194 19.9801 30.1601 19.9352 30.1101C19.8919 30.0609 19.839 30.0212 19.7797 29.9936C19.7205 29.966 19.6563 29.951 19.5911 29.9496ZM13.1793 30.9012H15.599V32.1738C14.5852 32.0768 13.5714 31.6663 13.1793 30.9012ZM16.5424 32.1738V30.9012H18.9695C18.5736 31.6663 17.5599 32.0768 16.5424 32.1738Z" fill="#343E4C"/>
<path d="M13.0498 24.1428C12.9852 24.1412 12.921 24.153 12.8612 24.1776C12.8014 24.2021 12.7473 24.2388 12.7021 24.2853C12.657 24.3319 12.6219 24.3874 12.5989 24.4482C12.576 24.5091 12.5657 24.5741 12.5688 24.6392V25.699C12.5688 25.8247 12.6183 25.9453 12.7064 26.0341C12.7945 26.123 12.9141 26.1729 13.0387 26.1729C13.1633 26.1729 13.2828 26.123 13.3709 26.0341C13.4591 25.9453 13.5086 25.8247 13.5086 25.699V24.6392C13.5115 24.576 13.5019 24.5129 13.4804 24.4535C13.4588 24.3941 13.4256 24.3397 13.3829 24.2935C13.3401 24.2472 13.2886 24.2101 13.2314 24.1842C13.1742 24.1583 13.1125 24.1443 13.0498 24.1428Z" fill="#343E4C"/>
<path d="M19.1028 24.1429C19.0391 24.1428 18.9762 24.1558 18.9177 24.181C18.8592 24.2062 18.8063 24.2431 18.7624 24.2895C18.7185 24.3359 18.6843 24.3908 18.6621 24.4509C18.6398 24.5111 18.6299 24.5751 18.6329 24.6392V25.699C18.6433 25.818 18.6976 25.9286 18.7849 26.0092C18.8722 26.0898 18.9863 26.1345 19.1046 26.1345C19.223 26.1345 19.337 26.0898 19.4244 26.0092C19.5117 25.9286 19.5659 25.818 19.5763 25.699V24.6392C19.5788 24.5749 19.5684 24.5108 19.5457 24.4507C19.5231 24.3905 19.4886 24.3357 19.4444 24.2893C19.4001 24.243 19.3471 24.2061 19.2884 24.1809C19.2297 24.1558 19.1665 24.1428 19.1028 24.1429Z" fill="#343E4C"/>
<path d="M25.2593 28.9196C25.8179 28.1732 26.0991 27.0835 26.0991 25.7065C26.1224 25.0639 25.9957 24.4247 25.7291 23.8406C25.6304 23.6053 25.4674 23.4031 25.259 23.2578C25.0507 23.1124 24.8057 23.0298 24.5526 23.0196C24.439 23.0204 24.3259 23.0354 24.2159 23.0643V21.6052C24.8745 18.769 24.1086 17.0598 21.6704 15.9291C20.7159 14.5781 18.385 13.5295 16.0874 14.0967C13.7898 13.5295 11.4404 14.5632 10.4858 15.9291C8.0476 17.0486 7.28543 18.769 7.94031 21.6052V23.0531C7.63755 22.9703 7.31509 23.0039 7.03548 23.1473C6.75586 23.2907 6.53904 23.5338 6.42707 23.8294C6.16225 24.4141 6.0356 25.0528 6.05709 25.6953C6.05709 27.0723 6.34197 28.1546 6.89695 28.9084C7.05532 29.1605 7.26477 29.3759 7.51154 29.5406C7.75832 29.7052 8.03683 29.8154 8.32879 29.8637C8.81617 31.4651 9.7178 32.9065 10.9409 34.0397C11.1777 34.2636 11.4293 34.4726 11.6808 34.6703V36.2079L10.4599 36.5811C10.1528 36.4318 9.98632 36.3273 9.97892 36.3236C9.8913 36.2677 9.78781 36.2426 9.68458 36.2522C9.58134 36.2618 9.48415 36.3055 9.40815 36.3767C9.33215 36.4478 9.2816 36.5423 9.26438 36.6454C9.24716 36.7485 9.26424 36.8545 9.31295 36.9468L8.28069 37.2789C8.16178 37.3175 8.0628 37.4019 8.00528 37.5137C7.94777 37.6255 7.93638 37.7557 7.9736 37.876C8.00365 37.9718 8.06332 38.0554 8.14389 38.1145C8.22445 38.1736 8.32167 38.2051 8.42129 38.2044C8.47023 38.2043 8.51887 38.1967 8.56558 38.182L10.3933 37.5961C12.1867 38.3682 14.119 38.7583 16.0689 38.7418C17.103 38.7426 18.1345 38.6363 19.1471 38.4246C19.0168 38.7676 18.9503 39.132 18.951 39.4993C18.9521 39.7515 18.9857 40.0023 19.0509 40.2457C17.6417 39.6797 16.1022 39.5283 14.6111 39.8091C13.5788 39.9873 12.5954 40.3832 11.7251 40.971C10.8549 41.5587 10.1174 42.3251 9.56084 43.22C9.49482 43.3274 9.47371 43.4569 9.50214 43.58C9.53058 43.7031 9.60623 43.8098 9.71253 43.8768C9.76499 43.9097 9.82336 43.9318 9.88431 43.9419C9.94526 43.952 10.0076 43.9499 10.0677 43.9357C10.1279 43.9215 10.1846 43.8954 10.2348 43.8591C10.2849 43.8227 10.3275 43.7767 10.36 43.7238C10.847 42.9402 11.4927 42.2693 12.2546 41.7548C13.0165 41.2403 13.8775 40.8939 14.7813 40.7383C16.5624 40.3976 18.4051 40.7682 19.9204 41.772C19.7199 42.0198 19.5623 42.2999 19.4542 42.6005C18.4582 41.9188 17.2799 41.5595 16.0763 41.5705C14.5871 41.5505 13.1469 42.106 12.0508 43.123C12.0022 43.1646 11.9623 43.2155 11.9332 43.2728C11.9041 43.33 11.8865 43.3925 11.8813 43.4566C11.8762 43.5207 11.8836 43.5852 11.9031 43.6464C11.9227 43.7076 11.954 43.7643 11.9953 43.8133C12.0366 43.8624 12.0871 43.9027 12.1438 43.932C12.2006 43.9614 12.2625 43.9791 12.3261 43.9843C12.3896 43.9895 12.4536 43.982 12.5143 43.9623C12.575 43.9426 12.6312 43.911 12.6798 43.8693C13.6108 43.0354 14.8127 42.5749 16.0578 42.5749C17.3029 42.5749 18.5047 43.0354 19.4357 43.8693C19.502 43.933 19.5853 43.9757 19.6754 43.9923C19.7654 44.0089 19.8583 43.9986 19.9426 43.9626C20.0273 43.926 20.0995 43.8651 20.1501 43.7875C20.2008 43.7099 20.2277 43.6189 20.2275 43.526C20.2362 43.2527 20.3043 42.9847 20.4271 42.741C20.5498 42.4972 20.7242 42.2836 20.9379 42.1154C21.0024 42.0695 21.0545 42.0079 21.0892 41.9363C21.124 41.8647 21.1403 41.7854 21.1366 41.7058C21.1329 41.6262 21.1093 41.5488 21.0681 41.4808C21.0269 41.4128 20.9694 41.3564 20.9009 41.3167C20.6218 41.1548 20.3847 40.9285 20.2091 40.6564C20.0334 40.3843 19.9241 40.074 19.8902 39.7511C19.8563 39.4282 19.8987 39.1018 20.0139 38.7985C20.1291 38.4953 20.3139 38.2239 20.5531 38.0066C20.601 37.9619 20.6393 37.9076 20.6655 37.8473C20.6917 37.7869 20.7052 37.7217 20.7052 37.6558C20.7052 37.5899 20.6917 37.5247 20.6655 37.4644C20.6393 37.404 20.601 37.3498 20.5531 37.305C20.3415 37.112 20.1724 36.8765 20.0564 36.6137C19.9405 36.3508 19.8803 36.0664 19.8797 35.7787C19.8803 35.4882 19.9408 35.201 20.0573 34.9353C20.4566 34.6593 20.8351 34.3537 21.1894 34.021C22.4149 32.8946 23.3215 31.4598 23.8163 29.8637C24.1094 29.8184 24.3896 29.7108 24.6383 29.548C24.8871 29.3852 25.0987 29.171 25.2593 28.9196ZM14.7591 25.1094C14.526 26.5014 13.6122 27.0947 11.6993 27.0947C9.37215 27.0947 8.88377 26.0274 8.88377 25.1355C8.88377 23.9451 9.30555 23.3778 11.6993 23.3778C13.2163 23.3778 14.1819 23.6092 14.5667 24.0719C14.6742 24.2191 14.7474 24.3888 14.7807 24.5684C14.814 24.7481 14.8066 24.933 14.7591 25.1094ZM14.9589 27.3485L15.7322 25.5423C15.7648 25.4804 15.814 25.429 15.8742 25.3941C15.9344 25.3591 16.0031 25.3419 16.0726 25.3445C16.1414 25.3426 16.2093 25.3601 16.2688 25.3951C16.3283 25.43 16.3769 25.481 16.4092 25.5423L17.1825 27.3485C17.2117 27.4098 17.2284 27.4764 17.2316 27.5444C17.2348 27.6123 17.2244 27.6802 17.201 27.7441C17.1705 27.813 17.1262 27.8748 17.0708 27.9256C17.0154 27.9763 16.9501 28.0149 16.8791 28.0389C16.3604 28.2429 15.7847 28.2429 15.266 28.0389C15.1949 28.0144 15.1293 27.9756 15.0734 27.925C15.0175 27.8743 14.9722 27.8128 14.9404 27.7441C14.889 27.6173 14.889 27.4752 14.9404 27.3485H14.9589ZM17.386 25.1094C17.3383 24.9333 17.3304 24.7486 17.3631 24.569C17.3957 24.3894 17.4681 24.2195 17.5747 24.0719C17.9632 23.6092 18.9288 23.3778 20.4458 23.3778C22.8396 23.3778 23.2614 23.9451 23.2614 25.1355C23.2614 26.0274 22.773 27.0947 20.4458 27.0947C18.533 27.0947 17.6191 26.5014 17.386 25.1094ZM23.4352 20.5864L20.9305 18.0823L21.5594 16.9292C23.1319 17.739 23.6905 18.7951 23.45 20.5864H23.4352ZM20.7862 16.3433L20.1461 17.5487C19.9648 17.4666 19.7317 17.3696 19.4505 17.2688C19.3328 17.2262 19.2031 17.2326 19.09 17.2865C18.9769 17.3404 18.8896 17.4374 18.8474 17.5562C18.8052 17.6749 18.8116 17.8057 18.865 17.9198C18.9184 18.0339 19.0146 18.1219 19.1323 18.1644C19.4554 18.2761 19.7717 18.4069 20.0795 18.5563L23.2725 21.7507V23.0121C22.6768 22.6091 21.7925 22.4262 20.4569 22.4262C18.607 22.4262 17.4563 22.7546 16.868 23.4599C16.6328 23.7402 16.4848 24.0842 16.4425 24.4489C16.3219 24.4164 16.1975 24.4001 16.0726 24.4003C15.9477 24.4004 15.8233 24.4167 15.7026 24.4489C15.6614 24.0846 15.5147 23.7406 15.2808 23.4599C14.6888 22.7546 13.5493 22.4262 11.6919 22.4262C10.6153 22.4262 9.58304 22.527 8.87637 23.0158V21.7507L12.0656 18.5563C13.3144 17.9483 14.6788 17.6199 16.0652 17.5935C16.4476 17.5955 16.8295 17.6229 17.2084 17.6756C17.3321 17.6934 17.4576 17.6609 17.5576 17.5853C17.6575 17.5098 17.7235 17.3972 17.7412 17.2725C17.7588 17.1478 17.7267 17.0211 17.6517 16.9204C17.5768 16.8196 17.4652 16.753 17.3416 16.7351C17.0715 16.6978 16.8014 16.6717 16.535 16.6568V14.97C17.9595 14.7274 19.8649 15.1976 20.7788 16.3433H20.7862ZM14.8368 14.9065C15.0922 14.9063 15.3471 14.9276 15.599 14.97V16.6568C14.3549 16.7363 13.1347 17.0383 11.9953 17.5487L11.3553 16.347C12.1137 15.3917 13.553 14.9065 14.8368 14.9065ZM10.6005 16.9292L11.1999 18.0823L8.69878 20.5864C8.46939 18.7989 9.02806 17.739 10.6005 16.9292ZM7.00055 25.7065C6.97943 25.2153 7.06794 24.7256 7.25953 24.2735C7.32243 24.154 7.44823 23.9562 7.60732 23.9562C7.68106 23.9653 7.75097 23.9944 7.80961 24.0404C7.86825 24.0864 7.91342 24.1476 7.94031 24.2175V27.2029C7.94161 27.727 7.98616 28.25 8.0735 28.7666C7.63692 28.483 7.00055 27.6732 7.00055 25.7027V25.7065ZM19.4357 37.417C16.9316 38.0393 14.3058 37.9528 11.8473 37.167L12.2987 37.0214C12.3941 36.9912 12.4774 36.9312 12.5366 36.85C12.5959 36.7688 12.6279 36.6707 12.628 36.5699V35.301C13.6596 35.971 14.8472 36.357 16.0726 36.4206C17.0844 36.3779 18.0725 36.0981 18.9584 35.6033C18.9584 35.6593 18.9584 35.7115 18.9584 35.7675C18.959 36.3489 19.126 36.9178 19.4394 37.4058L19.4357 37.417ZM20.5457 33.312C18.9584 34.8047 17.1455 35.4727 16.0578 35.4727C14.97 35.4727 13.1571 34.8047 11.5662 33.312C10.7186 32.5433 10.0406 31.6036 9.57596 30.5538C9.11133 29.504 8.87047 28.3675 8.86897 27.2179C9.51644 27.7441 10.4747 28.0314 11.6845 28.0314C12.4666 28.0599 13.2458 27.9213 13.9711 27.6246C13.9755 27.7871 14.0081 27.9475 14.0672 28.0986C14.1433 28.2858 14.2564 28.4554 14.3995 28.5972C14.5426 28.739 14.7128 28.8499 14.8997 28.9233C15.6501 29.2268 16.4876 29.2268 17.238 28.9233C17.4239 28.8512 17.5934 28.742 17.7365 28.6022C17.8795 28.4624 17.9931 28.2949 18.0705 28.1098C18.1308 27.9589 18.1646 27.7985 18.1704 27.6358C18.8933 27.9315 19.6699 28.0701 20.4495 28.0426C21.6593 28.0426 22.6176 27.7553 23.2651 27.2291C23.2631 28.379 23.0216 29.5157 22.5564 30.5655C22.0911 31.6153 21.4124 32.5548 20.5642 33.3232L20.5457 33.312ZM24.0531 28.7591C24.1423 28.2428 24.1869 27.7196 24.1863 27.1955V24.21C24.2138 24.1399 24.2597 24.0786 24.3189 24.0326C24.3782 23.9866 24.4487 23.9576 24.523 23.9488C24.6784 23.9488 24.8042 24.1466 24.8671 24.266C25.0619 24.7172 25.1518 25.2074 25.1298 25.699C25.1446 27.6769 24.5193 28.4867 24.0679 28.7703L24.0531 28.7591Z" fill="#343E4C"/>
<path d="M32.1447 29.7742C32.1465 29.0045 31.8536 28.2638 31.327 27.7067C31.6308 27.225 31.7913 26.6655 31.7895 26.0946C31.788 25.646 31.6876 25.2033 31.4957 24.7986C31.3037 24.394 31.0249 24.0374 30.6796 23.7547C30.9829 23.0364 30.9981 22.2274 30.7221 21.498C30.4461 20.7686 29.9003 20.1756 29.1996 19.8438C29.2812 19.1168 29.0953 18.385 28.6772 17.7871C28.2591 17.1893 27.6379 16.7672 26.9316 16.6008C26.835 15.8779 26.4818 15.2149 25.9375 14.7346C25.3933 14.2542 24.6949 13.9892 23.9717 13.9885H23.8089C23.5707 13.461 23.1877 13.0133 22.7051 12.6985C22.2225 12.3837 21.6606 12.2149 21.0859 12.2122C20.6691 12.2111 20.2568 12.2989 19.876 12.4696C19.385 11.9653 18.7336 11.6514 18.0361 11.5832C17.3385 11.5149 16.6394 11.6967 16.0615 12.0965C15.483 11.6964 14.7833 11.5145 14.0851 11.5827C13.3869 11.651 12.7348 11.965 12.2432 12.4696C11.8638 12.2985 11.4527 12.2107 11.0371 12.2122C10.4622 12.214 9.89989 12.3824 9.41713 12.6973C8.93438 13.0122 8.55148 13.4604 8.314 13.9885H8.14751C7.42435 13.9892 6.72594 14.2542 6.1817 14.7346C5.63747 15.2149 5.2843 15.8779 5.18764 16.6008C4.48611 16.7758 3.87064 17.2 3.45407 17.7957C3.0375 18.3913 2.84776 19.1184 2.91964 19.8438C2.21896 20.1756 1.67319 20.7686 1.39717 21.498C1.12115 22.2274 1.1364 23.0364 1.4397 23.7547C1.09452 24.0376 0.815902 24.3942 0.623956 24.7988C0.432009 25.2034 0.331522 25.646 0.329746 26.0946C0.329008 26.6659 0.490801 27.2254 0.795924 27.7067C0.730385 27.7741 0.668625 27.8451 0.610932 27.9195C0.533903 28.0184 0.49901 28.1442 0.513928 28.2691C0.528845 28.3941 0.592354 28.5079 0.69048 28.5856C0.788606 28.6633 0.913312 28.6985 1.03716 28.6834C1.16102 28.6684 1.27387 28.6043 1.3509 28.5053C1.45921 28.3667 1.5834 28.2414 1.72088 28.1322C1.77203 28.0931 1.81457 28.0437 1.84578 27.9872C1.87699 27.9307 1.8962 27.8682 1.90218 27.8038C1.9093 27.737 1.9028 27.6694 1.88308 27.6052C1.86336 27.541 1.83082 27.4816 1.78748 27.4306C1.45924 27.0557 1.27888 26.5723 1.2806 26.0722C1.28812 25.7135 1.38788 25.3629 1.57014 25.0548C1.75239 24.7466 2.01087 24.4915 2.32026 24.3145C2.37416 24.2824 2.42121 24.2397 2.45868 24.1891C2.49615 24.1385 2.52329 24.0809 2.53855 24.0197C2.55481 23.9567 2.55795 23.8911 2.54776 23.8268C2.53757 23.7626 2.51428 23.7012 2.47935 23.6465C2.31433 23.3789 2.21239 23.0766 2.18137 22.763C2.15036 22.4494 2.1911 22.1328 2.30046 21.8376C2.40982 21.5423 2.58488 21.2763 2.81218 21.0601C3.03947 20.8438 3.31293 20.683 3.6115 20.5901C3.72589 20.5538 3.82235 20.475 3.8814 20.3697C3.94046 20.2645 3.95772 20.1405 3.92969 20.0229C3.88854 19.8581 3.86742 19.689 3.86679 19.5191C3.86561 19.0062 4.05485 18.5115 4.39723 18.1323C4.73961 17.7531 5.21034 17.5169 5.71672 17.4703C5.83346 17.4582 5.94149 17.4025 6.01955 17.3141C6.09761 17.2257 6.14004 17.111 6.1385 16.9926C6.1404 16.4511 6.35326 15.932 6.73117 15.5473C7.10908 15.1627 7.62175 14.9432 8.15861 14.9364C8.28892 14.9377 8.41888 14.9502 8.5471 14.9737C8.66204 14.997 8.78147 14.9758 8.88159 14.9142C8.9817 14.8527 9.05514 14.7553 9.08727 14.6416C9.17598 14.3379 9.33292 14.0588 9.54588 13.8262C9.75885 13.5936 10.0221 13.4136 10.3152 13.3003C10.6083 13.1869 10.9234 13.1432 11.236 13.1726C11.5485 13.202 11.8502 13.3037 12.1174 13.4698C12.2173 13.5322 12.3366 13.5549 12.4522 13.5335C12.5677 13.5121 12.6713 13.4482 12.7427 13.3541C12.932 13.098 13.1783 12.8903 13.4617 12.7477C13.7451 12.6052 14.0577 12.5316 14.3743 12.5331C14.8847 12.5323 15.3769 12.724 15.7544 13.0705C15.8401 13.1486 15.9515 13.1919 16.067 13.1919C16.1826 13.1919 16.294 13.1486 16.3797 13.0705C16.5901 12.8771 16.8383 12.7302 17.1083 12.6391C17.3783 12.548 17.6641 12.5147 17.9476 12.5414C18.2311 12.5681 18.5059 12.6542 18.7545 12.7941C19.0031 12.934 19.22 13.1248 19.3913 13.3541C19.4616 13.4486 19.5645 13.513 19.6797 13.5344C19.7949 13.5558 19.9138 13.5328 20.0129 13.4698C20.2798 13.3044 20.5809 13.2032 20.8928 13.174C21.2047 13.1447 21.5191 13.1882 21.8117 13.3011C22.1042 13.4141 22.3671 13.5933 22.58 13.8251C22.7929 14.0569 22.9501 14.335 23.0394 14.6378C23.0723 14.7511 23.1458 14.8479 23.2458 14.9093C23.3457 14.9708 23.4647 14.9924 23.5796 14.97C23.7078 14.9466 23.8377 14.9342 23.968 14.9327C24.5091 14.9327 25.028 15.1492 25.4109 15.5347C25.7938 15.9202 26.0094 16.4432 26.0104 16.9889C26.0097 17.1076 26.053 17.2223 26.1316 17.3106C26.2103 17.3989 26.3187 17.4545 26.4358 17.4666C26.9425 17.5124 27.4137 17.7483 27.7563 18.1277C28.0988 18.507 28.2878 19.0022 28.2858 19.5154C28.2864 19.6851 28.2665 19.8543 28.2266 20.0192C28.1967 20.1369 28.2131 20.2616 28.2724 20.3674C28.3317 20.4731 28.4293 20.5516 28.5447 20.5864C28.9619 20.7161 29.3267 20.9776 29.5852 21.3324C29.8437 21.6873 29.9822 22.1165 29.9803 22.5568C29.9818 22.9408 29.8753 23.3174 29.6732 23.6428C29.6404 23.6968 29.6186 23.7568 29.609 23.8194C29.5995 23.882 29.6024 23.9459 29.6175 24.0074C29.6327 24.0689 29.6598 24.1267 29.6973 24.1775C29.7348 24.2283 29.7819 24.2711 29.836 24.3033C30.0966 24.4562 30.3203 24.6655 30.4911 24.9161C30.6618 25.1666 30.7754 25.4523 30.8235 25.7525C30.8716 26.0527 30.8532 26.3599 30.7694 26.652C30.6856 26.9441 30.5387 27.2138 30.3392 27.4418C30.2969 27.4908 30.2651 27.5479 30.2455 27.6098C30.2259 27.6716 30.219 27.7368 30.2252 27.8014C30.2315 27.866 30.2507 27.9287 30.2817 27.9855C30.3128 28.0424 30.355 28.0923 30.4058 28.1322C30.6424 28.3161 30.8361 28.5501 30.9733 28.8177C31.1104 29.0853 31.1878 29.3801 31.1998 29.6811C31.2117 29.9821 31.1581 30.2822 31.0427 30.56C30.9272 30.8379 30.7528 31.0868 30.5316 31.2893C30.4824 31.3333 30.4432 31.3873 30.4164 31.4478C30.3896 31.5083 30.3759 31.5738 30.3762 31.6401C30.3731 31.71 30.3855 31.7797 30.4124 31.8443C30.4392 31.9088 30.4799 31.9665 30.5316 32.0133C30.7836 32.2441 30.9745 32.5349 31.0867 32.8592C31.199 33.1834 31.2291 33.5308 31.1743 33.8697C31.1195 34.2087 30.9816 34.5284 30.773 34.7999C30.5645 35.0714 30.292 35.286 29.9803 35.4242C29.9203 35.4513 29.8664 35.4904 29.8219 35.5391C29.7774 35.5879 29.7431 35.6453 29.7213 35.7078C29.7018 35.7691 29.6948 35.8337 29.7005 35.8978C29.7062 35.9619 29.7246 36.0242 29.7546 36.081C29.9416 36.4213 30.029 36.8081 30.0068 37.1965C29.9845 37.5849 29.8534 37.959 29.6288 38.2753C29.5562 38.3779 29.5267 38.5053 29.5468 38.6297C29.5669 38.7542 29.6349 38.8655 29.7361 38.9396C29.8157 38.9978 29.9115 39.0291 30.0099 39.0291C30.0827 39.0281 30.1542 39.0097 30.2186 38.9753C30.2829 38.9409 30.3382 38.8916 30.3799 38.8313C30.7447 38.3207 30.9403 37.7068 30.9385 37.0774C30.9386 36.7315 30.8798 36.3881 30.7647 36.0623C31.116 35.8344 31.416 35.5346 31.6452 35.1822C31.8743 34.8299 32.0275 34.433 32.0949 34.0171C32.1622 33.6012 32.1421 33.1757 32.036 32.7682C31.9298 32.3606 31.74 31.9801 31.4787 31.6513C31.901 31.1225 32.132 30.4644 32.1336 29.7854L32.1447 29.7742Z" fill="#343E4C"/>
<path d="M6.36788 37.9245L5.40962 38.2343C4.81416 38.4239 4.25493 38.7141 3.75579 39.0926C3.44366 39.0263 3.15127 38.8872 2.90205 38.6864C2.65282 38.4856 2.45369 38.2287 2.32062 37.9363C2.18754 37.6439 2.12421 37.3241 2.13572 37.0026C2.14722 36.681 2.23323 36.3667 2.38685 36.0847C2.41705 36.028 2.43557 35.9657 2.44129 35.9016C2.44701 35.8374 2.43982 35.7728 2.42015 35.7116C2.39971 35.6489 2.36642 35.5912 2.32244 35.5423C2.27846 35.4935 2.22477 35.4545 2.16486 35.4279C1.85245 35.2905 1.57918 35.0763 1.37006 34.8048C1.16094 34.5333 1.02263 34.2133 0.967793 33.874C0.912954 33.5347 0.943331 33.1869 1.05615 32.8625C1.16897 32.5381 1.36062 32.2474 1.61358 32.017C1.66393 31.9695 1.70353 31.9115 1.7297 31.8471C1.75588 31.7827 1.76801 31.7134 1.76528 31.6439C1.76534 31.578 1.75189 31.5128 1.72579 31.4525C1.69968 31.3921 1.66148 31.3378 1.61358 31.2931C1.27031 30.9801 1.04212 30.5592 0.966111 30.0989C0.956393 30.0374 0.934762 29.9784 0.902449 29.9253C0.870137 29.8723 0.827779 29.8261 0.777791 29.7896C0.727802 29.753 0.671164 29.7267 0.61111 29.7123C0.551056 29.6978 0.488763 29.6954 0.427786 29.7052C0.366809 29.715 0.308344 29.7368 0.255728 29.7694C0.203111 29.802 0.157373 29.8447 0.121127 29.8951C0.0848816 29.9455 0.0588353 30.0027 0.0444782 30.0632C0.0301212 30.1238 0.027735 30.1866 0.0374524 30.2481C0.119899 30.7589 0.331422 31.2396 0.651625 31.6439C0.391469 31.9731 0.202559 32.3537 0.0970577 32.761C-0.00844321 33.1684 -0.0281942 33.5935 0.0390727 34.0091C0.10634 34.4246 0.259134 34.8213 0.48762 35.1737C0.716106 35.526 1.01522 35.8262 1.36569 36.0549C1.11222 36.7701 1.13607 37.5556 1.43248 38.2539C1.72888 38.9521 2.27593 39.5117 2.96403 39.8203C2.06514 40.8409 1.57228 42.1609 1.58029 43.526C1.58029 43.6517 1.62979 43.7723 1.71791 43.8612C1.80603 43.95 1.92555 44 2.05016 44C2.17478 44 2.2943 43.95 2.38242 43.8612C2.47054 43.7723 2.52005 43.6517 2.52005 43.526C2.51795 42.5476 2.8259 41.594 3.39897 40.8045C3.97203 40.015 4.78022 39.4309 5.70561 39.1374L6.66387 38.8314C6.78309 38.7933 6.88243 38.709 6.94002 38.597C6.99761 38.485 7.00874 38.3545 6.97096 38.2343C6.93318 38.114 6.84959 38.0138 6.73857 37.9557C6.62755 37.8977 6.49821 37.8864 6.37898 37.9245H6.36788Z" fill="#343E4C"/>
<path d="M27.4089 38.4992C27.3063 38.072 27.1131 37.6722 26.8428 37.3274C27.3172 36.7301 27.5476 35.9726 27.4871 35.2098C27.4266 34.4469 27.0797 33.736 26.5172 33.2224C26.4713 33.1805 26.4177 33.1481 26.3593 33.1271C26.301 33.1061 26.2392 33.0969 26.1773 33.1C26.1155 33.1032 26.0549 33.1185 25.9989 33.1453C25.943 33.172 25.8928 33.2096 25.8513 33.256C25.8097 33.3023 25.7776 33.3564 25.7568 33.4152C25.736 33.474 25.7269 33.5364 25.73 33.5988C25.7331 33.6612 25.7483 33.7223 25.7748 33.7787C25.8014 33.8352 25.8386 33.8858 25.8846 33.9277C26.0953 34.1211 26.2636 34.3568 26.3788 34.6196C26.494 34.8824 26.5535 35.1666 26.5535 35.454C26.5535 35.7414 26.494 36.0256 26.3788 36.2884C26.2636 36.5513 26.0953 36.7869 25.8846 36.9803C25.8356 37.0244 25.7964 37.0785 25.7695 37.1389C25.7427 37.1994 25.7288 37.2649 25.7288 37.3311C25.7288 37.3974 25.7427 37.4629 25.7695 37.5233C25.7964 37.5838 25.8356 37.6378 25.8846 37.6819C26.1373 37.913 26.3287 38.2042 26.4412 38.5291C26.5537 38.8539 26.5837 39.202 26.5285 39.5416C26.4733 39.8812 26.3347 40.2014 26.1253 40.473C25.9158 40.7446 25.6423 40.959 25.3296 41.0965C25.27 41.1235 25.2167 41.1626 25.1728 41.2113C25.129 41.26 25.0956 41.3174 25.0747 41.3798C25.0539 41.4421 25.046 41.5082 25.0517 41.5738C25.0573 41.6393 25.0764 41.703 25.1076 41.7608C25.2421 42.0049 25.3256 42.2742 25.353 42.5521C25.3803 42.8301 25.351 43.1107 25.2667 43.3767C25.2484 43.4362 25.2419 43.4988 25.2476 43.5609C25.2533 43.623 25.2712 43.6833 25.3 43.7384C25.3289 43.7935 25.3683 43.8424 25.4159 43.8821C25.4635 43.9219 25.5184 43.9518 25.5775 43.9701C25.6228 43.985 25.6703 43.9926 25.7181 43.9925C25.818 43.9923 25.9153 43.96 25.9958 43.9003C26.0763 43.8406 26.1358 43.7565 26.1657 43.6603C26.2574 43.3682 26.3036 43.0636 26.3026 42.7572C26.3027 42.4101 26.2439 42.0655 26.1287 41.7384C26.4935 41.504 26.8032 41.1923 27.0364 40.825C27.2696 40.4576 27.4207 40.0435 27.4792 39.6113C28.1407 40.0235 28.6866 40.5997 29.0648 41.2849C29.443 41.9702 29.641 42.7417 29.6399 43.526C29.6503 43.6449 29.7046 43.7556 29.7919 43.8362C29.8792 43.9168 29.9933 43.9615 30.1116 43.9615C30.23 43.9615 30.3441 43.9168 30.4314 43.8362C30.5187 43.7556 30.5729 43.6449 30.5834 43.526C30.5831 42.4703 30.2842 41.4366 29.722 40.5463C29.1597 39.6559 28.3573 38.9457 27.4089 38.4992Z" fill="#343E4C"/>
</svg>
