<svg width="32" height="32" viewBox="0 0 32 32" fill="none" xmlns="http://www.w3.org/2000/svg">
<g clip-path="url(#clip0_473_1843)">
<mask id="mask0_473_1843" style="mask-type:alpha" maskUnits="userSpaceOnUse" x="-1" y="0" width="33" height="32">
<rect x="-0.384521" width="32" height="32" fill="#D9D9D9"/>
</mask>
<g mask="url(#mask0_473_1843)">
<path d="M5.47182 28.6138C5.36775 28.6138 5.27018 28.5945 5.17912 28.5558C5.08805 28.5172 5.00348 28.4592 4.92542 28.3819L3.42472 26.8732C3.17061 26.6191 3.10841 26.3401 3.23812 26.0363C3.36783 25.7324 3.60949 25.5805 3.96312 25.5805H27.3182C27.6718 25.5805 27.9148 25.7324 28.0472 26.0363C28.1795 26.3401 28.1196 26.6182 27.8673 26.8705L26.3535 28.3843C26.2778 28.46 26.1951 28.5172 26.1055 28.5558C26.0159 28.5945 25.9199 28.6138 25.8174 28.6138H5.47182ZM3.56892 24.2471C3.69161 23.8046 3.87735 23.375 4.12615 22.9584C4.37495 22.5417 4.65756 22.1778 4.97398 21.8667V12.1196H4.70442C4.39711 12.1196 4.14298 12.0199 3.94205 11.8205C3.74112 11.6211 3.64065 11.369 3.64065 11.064C3.64065 10.759 3.74112 10.5055 3.94205 10.3033C4.14298 10.1011 4.39711 10 4.70442 10H4.97398V9.00003H4.70442C4.39711 9.00003 4.14298 8.89956 3.94205 8.69863C3.74112 8.4977 3.64065 8.24357 3.64065 7.93626C3.64065 7.63126 3.74112 7.37904 3.94205 7.1796C4.14298 6.98017 4.39711 6.88046 4.70442 6.88046H4.97398V5.88046H4.70442C4.39711 5.88046 4.14298 5.78 3.94205 5.57906C3.74112 5.37813 3.64065 5.12401 3.64065 4.8167C3.64065 4.50939 3.74112 4.25526 3.94205 4.05433C4.14298 3.8534 4.39711 3.75293 4.70442 3.75293H12.6087C13.4532 3.75293 14.1643 4.04182 14.7421 4.6196C15.3199 5.19737 15.6087 5.90849 15.6087 6.75293V6.88046H26.7044C27.0117 6.88046 27.2659 6.98016 27.4668 7.17956C27.6677 7.37894 27.7682 7.63111 27.7682 7.93606C27.7682 8.24102 27.6677 8.49459 27.4668 8.69676C27.2659 8.89894 27.0117 9.00003 26.7044 9.00003H15.6087V9.1196C15.6087 9.96404 15.3199 10.6752 14.7421 11.2529C14.1643 11.8307 13.4532 12.1196 12.6087 12.1196H10.3073V20.1174C10.5928 20.1512 10.8683 20.2073 11.1337 20.2855C11.3992 20.3638 11.6467 20.4759 11.8761 20.6218C12.4467 19.1962 13.3632 18.0283 14.6258 17.1181C15.8883 16.208 17.3377 15.7529 18.974 15.7529C21.1774 15.7529 23.0225 16.5511 24.5095 18.1475C25.9964 19.7439 26.6585 21.6496 26.4957 23.8645V24.2471H3.56892ZM10.3073 6.88046H12.8145V5.88046H10.3073V6.88046ZM10.3073 10H12.8145V9.00003H10.3073V10ZM6.97398 6.88046H8.30732V5.88046H6.97398V6.88046ZM6.97398 10H8.30732V9.00003H6.97398V10ZM6.97398 20.4826C7.16867 20.3715 7.37845 20.2855 7.60332 20.2247C7.82821 20.1638 8.06287 20.1115 8.30732 20.0677V12.1196H6.97398V20.4826Z" fill="#539AFF"/>
</g>
</g>
<defs>
<clipPath id="clip0_473_1843">
<rect width="32" height="32" fill="white"/>
</clipPath>
</defs>
</svg>
