<svg width="40" height="40" viewBox="0 0 40 40" fill="none" xmlns="http://www.w3.org/2000/svg">
<path fill-rule="evenodd" clip-rule="evenodd" d="M25.9717 2.36698C28.1584 3.10288 29.5835 5.16042 29.5835 7.85797C29.5835 9.55387 28.6194 11.1148 27.545 12.3602C26.4407 13.6404 25.0429 14.7892 23.8202 15.6805C23.7678 15.7187 23.7159 15.7566 23.6643 15.7943C22.4777 16.6614 21.4987 17.3767 20.0001 17.3767C18.5016 17.3767 17.5226 16.6614 16.3359 15.7943C16.2844 15.7566 16.2324 15.7187 16.18 15.6805C14.9574 14.7892 13.5596 13.6404 12.4552 12.3602C11.3809 11.1148 10.4168 9.55387 10.4168 7.85799C10.4168 5.16044 11.8418 3.10288 14.0286 2.36698C15.8937 1.73931 18.0647 2.1536 20.0001 3.56243C21.9355 2.1536 24.1065 1.73931 25.9717 2.36698ZM25.1743 4.73641C24.0876 4.37069 22.467 4.60729 20.846 6.09726C20.3678 6.53688 19.6325 6.53688 19.1542 6.09726C17.5332 4.60729 15.9127 4.37069 14.8259 4.73641C13.7835 5.08723 12.9168 6.09359 12.9168 7.85799C12.9168 8.63726 13.391 9.6176 14.3482 10.7272C15.2753 11.8019 16.5023 12.8217 17.6527 13.6603C19.0579 14.6846 19.3918 14.8767 20.0001 14.8767C20.6084 14.8767 20.9424 14.6846 22.3476 13.6603C23.4979 12.8217 24.7249 11.8019 25.6521 10.7272C26.6093 9.61763 27.0835 8.63728 27.0835 7.85797C27.0835 6.09358 26.2168 5.08722 25.1743 4.73641ZM14.4733 24.0803C17.583 23.4779 20.9119 23.6131 23.6055 25.2197C23.9839 25.4453 24.3385 25.7265 24.648 26.0741C25.2744 26.7777 25.5979 27.6522 25.6132 28.529C25.932 28.3234 26.2513 28.0951 26.5757 27.85L29.5877 25.5747C31.0953 24.4359 33.2864 24.4357 34.7942 25.5742C36.1875 26.6262 36.7429 28.5142 35.7455 30.1129C35.0367 31.2492 33.9691 32.8208 32.8827 33.827C31.7845 34.8441 30.2216 35.6993 29.0393 36.27C27.6035 36.963 26.0527 37.3461 24.5448 37.5902C21.4628 38.0891 18.2558 38.0128 15.2084 37.385C13.6511 37.0641 12.0327 36.8974 10.4333 36.8974H6.66679C5.97643 36.8974 5.41679 36.3377 5.41679 35.6474C5.41679 34.957 5.97643 34.3974 6.66679 34.3974H10.4333C12.2035 34.3974 13.9909 34.5816 15.7129 34.9364C18.4663 35.5037 21.3669 35.5721 24.1453 35.1224C25.5268 34.8987 26.8169 34.5667 27.9526 34.0185C29.0916 33.4688 30.3722 32.7447 31.1839 31.9928C32.0048 31.2326 32.9235 29.9132 33.6245 28.7897C33.836 28.4506 33.8067 27.9612 33.2878 27.5694C32.6716 27.1041 31.7107 27.1042 31.0946 27.5696L28.0826 29.8448C26.8802 30.7531 25.4003 31.7248 23.5646 32.0176C23.3794 32.0472 23.1865 32.0742 22.9863 32.098C22.8909 32.1153 22.7915 32.1267 22.6888 32.1305C21.7516 32.2237 20.6663 32.2453 19.4689 32.1322C18.7816 32.0673 18.277 31.4576 18.3419 30.7703C18.4068 30.083 19.0166 29.5784 19.7039 29.6433C20.7496 29.7421 21.6878 29.7202 22.4838 29.6385C22.5 29.6369 22.5161 29.6352 22.5321 29.6335C22.5653 29.6141 22.6161 29.579 22.6828 29.5208C23.2152 29.0561 23.2627 28.2778 22.7808 27.7364C22.6586 27.5992 22.5081 27.476 22.3249 27.3668C20.3563 26.1926 17.7272 25.9964 14.9488 26.5347C12.1863 27.0699 9.44163 28.3028 7.38988 29.7579C6.82676 30.1572 6.04651 30.0245 5.64716 29.4613C5.24781 28.8982 5.38057 28.118 5.9437 27.7186C8.2743 26.0658 11.3478 24.6858 14.4733 24.0803Z" fill="#343E4C"/>
</svg>
