<svg width="32" height="35" viewBox="0 0 32 35" fill="none" xmlns="http://www.w3.org/2000/svg">
<path fill-rule="evenodd" clip-rule="evenodd" d="M18.8751 3.25028C18.7014 3.25004 18.521 3.25 18.3333 3.25L11.6667 3.25C11.479 3.25 11.2986 3.25004 11.1249 3.25028C10.6277 5.69897 8.69896 7.62775 6.25027 8.12493C6.25004 8.29858 6.25 8.47903 6.25 8.66667C6.25 8.85431 6.25004 9.03476 6.25027 9.20842C8.69896 9.70559 10.6277 11.6344 11.1249 14.0831C11.2986 14.0833 11.479 14.0833 11.6667 14.0833H18.3333C18.521 14.0833 18.7014 14.0833 18.8751 14.0831C19.3722 11.6344 21.301 9.7056 23.7497 9.20842C23.75 9.03476 23.75 8.85431 23.75 8.66667C23.75 8.47903 23.75 8.29858 23.7497 8.12493C21.301 7.62775 19.3723 5.69897 18.8751 3.25028ZM19.8825 0.75545C19.4249 0.749969 18.9373 0.749985 18.42 0.750002L11.58 0.750002C11.0627 0.749985 10.5751 0.749969 10.1175 0.755451C10.0788 0.751846 10.0396 0.750004 10 0.750004C9.94768 0.750004 9.8961 0.753219 9.84547 0.759462C9.09083 0.772861 8.42262 0.8052 7.84253 0.88319C6.79621 1.02386 5.85154 1.33332 5.09243 2.09243C4.33331 2.85155 4.02386 3.79622 3.88318 4.84254C3.80519 5.42262 3.77286 6.09084 3.75946 6.84547C3.75321 6.89611 3.75 6.94768 3.75 7C3.75 7.03962 3.75184 7.0788 3.75545 7.11747C3.74996 7.57505 3.74998 8.06268 3.75 8.58V8.75333C3.74998 9.27066 3.74996 9.75829 3.75545 10.2159C3.75184 10.2545 3.75 10.2937 3.75 10.3333C3.75 10.3857 3.75321 10.4372 3.75946 10.4879C3.77286 11.2425 3.80519 11.9107 3.88318 12.4908C4.02386 13.5371 4.33331 14.4818 5.09243 15.2409C5.85154 16 6.79621 16.3095 7.84253 16.4502C8.42262 16.5281 9.09084 16.5605 9.84547 16.5739C9.89611 16.5801 9.94768 16.5833 10 16.5833C10.0396 16.5833 10.0788 16.5815 10.1175 16.5779C10.575 16.5834 11.0627 16.5834 11.58 16.5833H18.4201C18.9374 16.5834 19.425 16.5834 19.8825 16.5779C19.9212 16.5815 19.9604 16.5833 20 16.5833C20.0523 16.5833 20.1039 16.5801 20.1545 16.5739C20.9092 16.5605 21.5774 16.5281 22.1575 16.4501C23.2038 16.3095 24.1485 16 24.9076 15.2409C25.6667 14.4818 25.9761 13.5371 26.1168 12.4908C26.1948 11.9107 26.2271 11.2425 26.2405 10.4879C26.2468 10.4372 26.25 10.3857 26.25 10.3333C26.25 10.2937 26.2482 10.2545 26.2446 10.2159C26.25 9.75829 26.25 9.27065 26.25 8.75333V8.58001C26.25 8.06269 26.25 7.57505 26.2446 7.11746C26.2482 7.07879 26.25 7.03961 26.25 7C26.25 6.94768 26.2468 6.89611 26.2405 6.84548C26.2271 6.09084 26.1948 5.42262 26.1168 4.84254C25.9761 3.79621 25.6667 2.85155 24.9076 2.09243C24.1485 1.33331 23.2038 1.02386 22.1575 0.883189C21.5774 0.805199 20.9092 0.77286 20.1545 0.759461C20.1039 0.753218 20.0523 0.750004 20 0.750004C19.9604 0.750004 19.9212 0.751846 19.8825 0.75545ZM21.4901 3.32327C21.8698 4.32987 22.6701 5.13016 23.6767 5.50986C23.6659 5.39328 23.6534 5.28207 23.6391 5.17566C23.5357 4.40655 23.357 4.07739 23.1398 3.8602C22.9226 3.643 22.5934 3.4643 21.8243 3.3609C21.7179 3.34659 21.6067 3.33413 21.4901 3.32327ZM23.6767 11.8235C22.6701 12.2032 21.8698 13.0035 21.4901 14.0101C21.6067 13.9992 21.7179 13.9868 21.8243 13.9724C22.5934 13.869 22.9226 13.6903 23.1398 13.4731C23.357 13.2559 23.5357 12.9268 23.6391 12.1577C23.6534 12.0513 23.6659 11.9401 23.6767 11.8235ZM8.50985 14.0101C8.13016 13.0035 7.32986 12.2032 6.32327 11.8235C6.33412 11.9401 6.34658 12.0513 6.36089 12.1577C6.46429 12.9268 6.643 13.2559 6.86019 13.4731C7.07739 13.6903 7.40655 13.869 8.17565 13.9724C8.28207 13.9868 8.39327 13.9992 8.50985 14.0101ZM6.32327 5.50986C7.32986 5.13016 8.13016 4.32987 8.50985 3.32327C8.39327 3.33413 8.28207 3.34659 8.17565 3.3609C7.40655 3.4643 7.07739 3.643 6.86019 3.8602C6.643 4.07739 6.46429 4.40656 6.36089 5.17566C6.34658 5.28207 6.33412 5.39328 6.32327 5.50986ZM15 8.25C14.7699 8.25 14.5833 8.43655 14.5833 8.66667C14.5833 8.89679 14.7699 9.08334 15 9.08334C15.2301 9.08334 15.4167 8.89679 15.4167 8.66667C15.4167 8.43655 15.2301 8.25 15 8.25ZM12.0833 8.66667C12.0833 7.05584 13.3892 5.75 15 5.75C16.6108 5.75 17.9167 7.05584 17.9167 8.66667C17.9167 10.2775 16.6108 11.5833 15 11.5833C13.3892 11.5833 12.0833 10.2775 12.0833 8.66667ZM9.47319 21.0803C12.5829 20.4778 15.9118 20.613 18.6054 22.2196C18.9838 22.4453 19.3384 22.7264 19.6479 23.074C20.2743 23.7777 20.5978 24.6522 20.6131 25.529C20.9319 25.3234 21.2512 25.095 21.5756 24.85L24.5876 22.5747C26.0952 21.4358 28.2863 21.4356 29.7941 22.5742C31.1873 23.6261 31.7428 25.5142 30.7454 27.1129C30.0365 28.2491 28.969 29.8208 27.8826 30.8269C26.7844 31.8441 25.2215 32.6993 24.0392 33.2699C22.6033 33.963 21.0526 34.3461 19.5447 34.5902C16.4627 35.0891 13.2557 35.0128 10.2083 34.3849C8.65097 34.0641 7.03258 33.8973 5.43322 33.8973H1.66667C0.97631 33.8973 0.416666 33.3377 0.416666 32.6473C0.416666 31.957 0.97631 31.3973 1.66667 31.3973H5.43322C7.2034 31.3973 8.9908 31.5816 10.7128 31.9363C13.4662 32.5036 16.3668 32.5721 19.1452 32.1223C20.5267 31.8987 21.8168 31.5666 22.9524 31.0185C24.0915 30.4687 25.3721 29.7446 26.1838 28.9928C27.0047 28.2325 27.9234 26.9131 28.6243 25.7896C28.8359 25.4505 28.8066 24.9612 28.2877 24.5693C27.6714 24.104 26.7105 24.1041 26.0945 24.5695L23.0825 26.8448C21.8801 27.7531 20.4002 28.7248 18.5645 29.0176C18.3793 29.0471 18.1864 29.0742 17.9862 29.098C17.8907 29.1153 17.7913 29.1266 17.6887 29.1305C16.7515 29.2236 15.6662 29.2453 14.4688 29.1322C13.7815 29.0673 13.2769 28.4575 13.3418 27.7702C13.4067 27.0829 14.0165 26.5784 14.7038 26.6433C15.7495 26.742 16.6877 26.7202 17.4837 26.6385C17.4998 26.6368 17.5159 26.6351 17.532 26.6334C17.5652 26.6141 17.616 26.5789 17.6826 26.5208C18.2151 26.056 18.2626 25.2778 17.7806 24.7364C17.6585 24.5992 17.508 24.476 17.3248 24.3667C15.3562 23.1926 12.7271 22.9964 9.94869 23.5346C7.18613 24.0698 4.44151 25.3028 2.38976 26.7578C1.82663 27.1572 1.04639 27.0244 0.64704 26.4613C0.247687 25.8982 0.380449 25.1179 0.943573 24.7186C3.27418 23.0658 6.34766 21.6858 9.47319 21.0803Z" fill="#343E4C"/>
</svg>
