<svg width="20" height="20" viewBox="0 0 20 20" fill="none" xmlns="http://www.w3.org/2000/svg">
<path fill-rule="evenodd" clip-rule="evenodd" d="M8.82784 1.93236C9.56902 1.5781 10.4307 1.5781 11.1718 1.93236C11.4938 2.08626 11.7889 2.33793 12.1974 2.68639C12.2186 2.70448 12.2401 2.72283 12.262 2.74144C12.4604 2.91052 12.5229 2.9625 12.5861 3.00488C12.7469 3.11266 12.9275 3.18746 13.1174 3.22496C13.1921 3.2397 13.273 3.24712 13.5329 3.26786C13.5615 3.27014 13.5896 3.27237 13.6174 3.27458C14.1527 3.31705 14.5393 3.34773 14.8758 3.46659C15.6504 3.74018 16.2597 4.34946 16.5333 5.12404C16.6521 5.46055 16.6828 5.84714 16.7253 6.38242C16.7275 6.4102 16.7297 6.43839 16.732 6.46699C16.7527 6.72683 16.7601 6.80778 16.7749 6.88245C16.8124 7.07237 16.8872 7.25296 16.995 7.41376C17.0373 7.47699 17.0893 7.53947 17.2584 7.73787C17.277 7.75972 17.2954 7.78123 17.3135 7.80244C17.6619 8.21097 17.9136 8.50601 18.0675 8.828C18.4217 9.56918 18.4217 10.4308 18.0675 11.172C17.9136 11.494 17.6619 11.789 17.3135 12.1976C17.2954 12.2188 17.277 12.2403 17.2584 12.2621C17.0893 12.4605 17.0373 12.523 16.995 12.5862C16.8872 12.747 16.8124 12.9276 16.7749 13.1176C16.7601 13.1922 16.7527 13.2732 16.732 13.533C16.7297 13.5616 16.7275 13.5898 16.7253 13.6176C16.6828 14.1529 16.6521 14.5394 16.5333 14.876C16.2597 15.6505 15.6504 16.2598 14.8758 16.5334C14.5393 16.6523 14.1527 16.6829 13.6174 16.7254C13.5896 16.7276 13.5615 16.7299 13.5329 16.7321C13.273 16.7529 13.1921 16.7603 13.1174 16.775C12.9275 16.8125 12.7469 16.8873 12.5861 16.9951C12.5229 17.0375 12.4604 17.0895 12.262 17.2586C12.2401 17.2772 12.2186 17.2955 12.1974 17.3136C11.7889 17.6621 11.4938 17.9137 11.1718 18.0676C10.4307 18.4219 9.56902 18.4219 8.82784 18.0676C8.50584 17.9137 8.2108 17.6621 7.80226 17.3136C7.78105 17.2955 7.75954 17.2772 7.73771 17.2586C7.53931 17.0895 7.47683 17.0375 7.4136 16.9951C7.2528 16.8873 7.0722 16.8125 6.88228 16.775C6.80761 16.7603 6.72667 16.7529 6.46683 16.7321C6.43823 16.7299 6.41004 16.7276 6.38226 16.7254C5.84697 16.6829 5.46039 16.6523 5.12388 16.5334C4.34929 16.2598 3.74002 15.6505 3.46643 14.876C3.34757 14.5394 3.31689 14.1529 3.27442 13.6176C3.27221 13.5898 3.26998 13.5616 3.26769 13.533C3.24696 13.2732 3.23954 13.1922 3.22479 13.1176C3.1873 12.9276 3.11249 12.747 3.00471 12.5862C2.96234 12.523 2.91035 12.4605 2.74128 12.2621C2.72267 12.2403 2.70432 12.2188 2.68623 12.1976C2.33776 11.789 2.0861 11.494 1.9322 11.172C1.57794 10.4308 1.57794 9.56918 1.9322 8.828C2.0861 8.50601 2.33776 8.21096 2.68623 7.80243C2.70432 7.78122 2.72267 7.75971 2.74128 7.73787C2.91035 7.53947 2.96234 7.47699 3.00471 7.41376C3.11249 7.25296 3.1873 7.07237 3.22479 6.88245C3.23954 6.80778 3.24696 6.72684 3.26769 6.46699C3.26998 6.43839 3.27221 6.4102 3.27442 6.38242C3.31689 5.84714 3.34757 5.46055 3.46643 5.12405C3.74002 4.34946 4.34929 3.74018 5.12388 3.46659C5.46039 3.34773 5.84698 3.31705 6.38226 3.27458C6.41004 3.27237 6.43823 3.27014 6.46683 3.26786C6.72667 3.24712 6.80761 3.2397 6.88228 3.22496C7.0722 3.18746 7.2528 3.11266 7.4136 3.00488C7.47683 2.9625 7.53931 2.91052 7.73771 2.74144C7.75955 2.72283 7.78106 2.70448 7.80226 2.68639C8.2108 2.33793 8.50584 2.08626 8.82784 1.93236ZM10.6309 3.06408C10.2318 2.87332 9.76786 2.87332 9.36876 3.06408C9.21446 3.13783 9.05183 3.2696 8.5513 3.69614C8.54308 3.70315 8.53497 3.71006 8.52697 3.71688C8.36271 3.85692 8.2428 3.95914 8.11197 4.04683C7.81333 4.24699 7.47794 4.38592 7.12524 4.45555C6.97072 4.48606 6.81365 4.49856 6.59848 4.51569C6.58799 4.51652 6.57737 4.51737 6.56661 4.51823C5.91107 4.57054 5.70289 4.59237 5.54164 4.64932C5.12455 4.79664 4.79648 5.12471 4.64916 5.5418C4.59221 5.70305 4.57038 5.91123 4.51807 6.56677C4.51721 6.57753 4.51636 6.58816 4.51553 6.59864C4.4984 6.81381 4.48589 6.97088 4.45539 7.1254C4.38575 7.47811 4.24683 7.81349 4.04667 8.11213C3.95898 8.24297 3.85676 8.36287 3.71672 8.52713C3.70989 8.53514 3.70298 8.54324 3.69598 8.55146C3.26943 9.05199 3.13767 9.21463 3.06392 9.36892C2.87316 9.76802 2.87316 10.232 3.06392 10.6311C3.13767 10.7854 3.26943 10.948 3.69598 11.4485C3.70298 11.4568 3.7099 11.4649 3.71672 11.4729C3.85676 11.6371 3.95898 11.757 4.04667 11.8879C4.24683 12.1865 4.38575 12.5219 4.45539 12.8746C4.48589 13.0291 4.4984 13.1862 4.51553 13.4014C4.51636 13.4118 4.51721 13.4225 4.51807 13.4332C4.57038 14.0888 4.59221 14.2969 4.64916 14.4582C4.79648 14.8753 5.12455 15.2034 5.54164 15.3507C5.70289 15.4076 5.91107 15.4295 6.56661 15.4818L6.59847 15.4843C6.81365 15.5014 6.97072 15.5139 7.12524 15.5445C7.47794 15.6141 7.81333 15.753 8.11197 15.9532C8.2428 16.0409 8.36271 16.1431 8.52697 16.2831L8.5513 16.3039C9.05183 16.7304 9.21446 16.8622 9.36876 16.9359C9.76786 17.1267 10.2318 17.1267 10.6309 16.9359C10.7852 16.8622 10.9479 16.7304 11.4484 16.3039L11.4727 16.2831C11.637 16.1431 11.7569 16.0409 11.8877 15.9532C12.1863 15.753 12.5217 15.6141 12.8744 15.5445C13.029 15.5139 13.186 15.5014 13.4012 15.4843L13.4331 15.4818C14.0886 15.4295 14.2968 15.4076 14.458 15.3507C14.8751 15.2034 15.2032 14.8753 15.3505 14.4582C15.4075 14.2969 15.4293 14.0888 15.4816 13.4332L15.4842 13.4014C15.5013 13.1862 15.5138 13.0291 15.5443 12.8746C15.6139 12.5219 15.7528 12.1865 15.953 11.8879C16.0407 11.757 16.1429 11.6371 16.2829 11.4729L16.3037 11.4485C16.7302 10.948 16.862 10.7854 16.9358 10.6311C17.1265 10.232 17.1265 9.76802 16.9358 9.36892C16.862 9.21463 16.7302 9.05199 16.3037 8.55146L16.2829 8.52711C16.1429 8.36286 16.0407 8.24296 15.953 8.11213C15.7528 7.81349 15.6139 7.47811 15.5443 7.1254C15.5138 6.97088 15.5013 6.81381 15.4842 6.59864L15.4816 6.56677C15.4293 5.91123 15.4075 5.70305 15.3505 5.5418C15.2032 5.12471 14.8751 4.79664 14.458 4.64932C14.2968 4.59237 14.0886 4.57054 13.4331 4.51823C13.4223 4.51737 13.4117 4.51652 13.4012 4.51569C13.186 4.49856 13.029 4.48606 12.8744 4.45555C12.5217 4.38592 12.1863 4.24699 11.8877 4.04683C11.7569 3.95914 11.637 3.85692 11.4727 3.71688C11.4647 3.71006 11.4566 3.70314 11.4484 3.69614C10.9479 3.2696 10.7852 3.13783 10.6309 3.06408ZM13.3701 7.46594C13.6151 7.71087 13.6151 8.10797 13.3701 8.3529L9.18897 12.5341C8.94404 12.779 8.54694 12.779 8.30201 12.5341L6.62955 10.8616C6.38462 10.6167 6.38462 10.2196 6.62955 9.97464C6.87448 9.72971 7.27158 9.72971 7.51651 9.97464L8.74549 11.2036L12.4832 7.46594C12.7281 7.22102 13.1252 7.22102 13.3701 7.46594Z" fill="#343E4C"/>
</svg>
