<svg width="20" height="20" viewBox="0 0 20 20" fill="none" xmlns="http://www.w3.org/2000/svg">
<path fill-rule="evenodd" clip-rule="evenodd" d="M10 2.29175C8.96447 2.29175 8.125 3.13121 8.125 4.16675V4.37881C8.47291 4.37508 8.8485 4.37508 9.25437 4.37508H10.7456C11.1515 4.37508 11.5271 4.37508 11.875 4.37881V4.16675C11.875 3.13121 11.0355 2.29175 10 2.29175ZM13.125 4.42253V4.16675C13.125 2.44086 11.7259 1.04175 10 1.04175C8.27411 1.04175 6.875 2.44086 6.875 4.16675V4.42253C6.7625 4.43074 6.65394 4.44037 6.54914 4.45166C5.81718 4.53055 5.20506 4.69582 4.66149 5.06839C4.47453 5.19653 4.29892 5.34049 4.13661 5.49869C3.66467 5.95864 3.38256 6.52646 3.16165 7.22874C2.94718 7.91057 2.77384 8.7773 2.55602 9.8664L2.54013 9.94589C2.22626 11.5152 1.97893 12.7518 1.90789 13.7367C1.83531 14.7431 1.93674 15.5897 2.41344 16.3234C2.57249 16.5682 2.75813 16.7946 2.96698 16.9986C3.59292 17.6099 4.40321 17.8754 5.40426 18.0016C6.384 18.1251 7.64509 18.1251 9.24545 18.1251H10.7546C12.3549 18.1251 13.616 18.1251 14.5957 18.0016C15.5968 17.8754 16.4071 17.6099 17.033 16.9986C17.2419 16.7946 17.4275 16.5682 17.5866 16.3234C18.0633 15.5897 18.1647 14.7431 18.0921 13.7367C18.0211 12.7518 17.7737 11.5152 17.4599 9.94596L17.444 9.86644C17.2262 8.77732 17.0528 7.91057 16.8383 7.22874C16.6174 6.52646 16.3353 5.95864 15.8634 5.49869C15.7011 5.34049 15.5255 5.19653 15.3385 5.06839C14.7949 4.69582 14.1828 4.53055 13.4509 4.45166C13.3461 4.44037 13.2375 4.43074 13.125 4.42253ZM6.6831 5.69446C6.06084 5.76153 5.67642 5.88818 5.36818 6.09945C5.24026 6.18713 5.12011 6.28563 5.00905 6.39386C4.74144 6.65469 4.54185 7.0068 4.35405 7.60382C4.16214 8.21392 4.00117 9.01446 3.77467 10.1469C3.45006 11.77 3.21936 12.9295 3.15466 13.8266C3.09083 14.7116 3.1986 15.2375 3.46162 15.6423C3.57044 15.8098 3.69746 15.9648 3.84036 16.1043C4.18572 16.4416 4.68033 16.6504 5.5606 16.7614C6.45301 16.8739 7.6352 16.8751 9.29044 16.8751H10.7096C12.3648 16.8751 13.547 16.8739 14.4394 16.7614C15.3197 16.6504 15.8143 16.4416 16.1596 16.1043C16.3025 15.9648 16.4296 15.8098 16.5384 15.6423C16.8014 15.2375 16.9092 14.7116 16.8453 13.8266C16.7806 12.9295 16.5499 11.77 16.2253 10.1469C15.9988 9.01446 15.8379 8.21392 15.6459 7.60382C15.4582 7.0068 15.2586 6.65469 14.9909 6.39386C14.8799 6.28563 14.7597 6.18713 14.6318 6.09945C14.3236 5.88818 13.9392 5.76153 13.3169 5.69446C12.681 5.62593 11.8645 5.62508 10.7096 5.62508H9.29044C8.13554 5.62508 7.31899 5.62593 6.6831 5.69446ZM7.43414 11.9108C7.75958 11.7958 8.11666 11.9664 8.23169 12.2918C8.48939 13.0209 9.18475 13.5417 10.0002 13.5417C10.8156 13.5417 11.5109 13.0209 11.7686 12.2918C11.8837 11.9664 12.2407 11.7958 12.5662 11.9108C12.8916 12.0258 13.0622 12.3829 12.9472 12.7084C12.5185 13.9213 11.3618 14.7917 10.0002 14.7917C8.63854 14.7917 7.48184 13.9213 7.05314 12.7084C6.93811 12.3829 7.10869 12.0258 7.43414 11.9108Z" fill="#343E4C"/>
</svg>
