<svg width="20" height="20" viewBox="0 0 20 20" fill="none" xmlns="http://www.w3.org/2000/svg">
<path fill-rule="evenodd" clip-rule="evenodd" d="M9.99997 2.29167C8.96444 2.29167 8.12497 3.13114 8.12497 4.16667V4.37873C8.47289 4.375 8.84847 4.375 9.25434 4.37501H10.7456C11.1515 4.375 11.5271 4.375 11.875 4.37873V4.16667C11.875 3.13114 11.0355 2.29167 9.99997 2.29167ZM13.125 4.42245V4.16667C13.125 2.44078 11.7259 1.04167 9.99997 1.04167C8.27408 1.04167 6.87497 2.44078 6.87497 4.16667V4.42245C6.76247 4.43066 6.65391 4.44029 6.54912 4.45158C5.81715 4.53048 5.20504 4.69574 4.66146 5.06831C4.4745 5.19646 4.2989 5.34042 4.13658 5.49861C3.66464 5.95857 3.38253 6.52639 3.16163 7.22866C2.94715 7.91049 2.77381 8.77723 2.556 9.86633L2.5401 9.94582C2.22623 11.5151 1.9789 12.7517 1.90787 13.7366C1.83529 14.743 1.93671 15.5896 2.41341 16.3233C2.57246 16.5681 2.7581 16.7945 2.96695 16.9985C3.59289 17.6098 4.40319 17.8753 5.40423 18.0015C6.38397 18.125 7.64506 18.125 9.24542 18.125H10.7545C12.3549 18.125 13.616 18.125 14.5957 18.0015C15.5968 17.8753 16.4071 17.6098 17.033 16.9985C17.2418 16.7945 17.4275 16.5681 17.5865 16.3233C18.0632 15.5896 18.1647 14.743 18.0921 13.7366C18.021 12.7517 17.7737 11.5151 17.4599 9.94589L17.444 9.86636C17.2261 8.77724 17.0528 7.9105 16.8383 7.22866C16.6174 6.52639 16.3353 5.95857 15.8634 5.49861C15.701 5.34042 15.5254 5.19646 15.3385 5.06831C14.7949 4.69574 14.1828 4.53048 13.4508 4.45158C13.346 4.44029 13.2375 4.43066 13.125 4.42245ZM6.68307 5.69439C6.06081 5.76145 5.67639 5.88811 5.36815 6.09937C5.24023 6.18705 5.12008 6.28555 5.00902 6.39379C4.74141 6.65461 4.54182 7.00673 4.35402 7.60375C4.16211 8.21385 4.00114 9.01438 3.77465 10.1469C3.45003 11.7699 3.21933 12.9294 3.15463 13.8266C3.0908 14.7115 3.19857 15.2374 3.46159 15.6423C3.57042 15.8097 3.69743 15.9647 3.84033 16.1042C4.1857 16.4415 4.6803 16.6504 5.56057 16.7613C6.45298 16.8738 7.63517 16.875 9.29041 16.875H10.7095C12.3648 16.875 13.547 16.8738 14.4394 16.7613C15.3196 16.6504 15.8142 16.4415 16.1596 16.1042C16.3025 15.9647 16.4295 15.8097 16.5384 15.6423C16.8014 15.2374 16.9091 14.7115 16.8453 13.8266C16.7806 12.9294 16.5499 11.7699 16.2253 10.1469C15.9988 9.01438 15.8378 8.21385 15.6459 7.60375C15.4581 7.00673 15.2585 6.65461 14.9909 6.39379C14.8799 6.28555 14.7597 6.18705 14.6318 6.09937C14.3236 5.88811 13.9391 5.76145 13.3169 5.69439C12.681 5.62585 11.8644 5.62501 10.7095 5.62501H9.29041C8.13551 5.62501 7.31896 5.62585 6.68307 5.69439ZM7.43411 11.9107C7.75956 11.7957 8.11663 11.9663 8.23166 12.2917C8.48936 13.0208 9.18472 13.5417 10.0001 13.5417C10.8155 13.5417 11.5109 13.0208 11.7686 12.2917C11.8836 11.9663 12.2407 11.7957 12.5662 11.9107C12.8916 12.0258 13.0622 12.3828 12.9472 12.7083C12.5185 13.9212 11.3618 14.7917 10.0001 14.7917C8.63851 14.7917 7.48181 13.9212 7.05311 12.7083C6.93808 12.3828 7.10866 12.0258 7.43411 11.9107Z" fill="#343E4C"/>
</svg>
