<svg width="60" height="50" viewBox="0 0 60 50" fill="none" xmlns="http://www.w3.org/2000/svg">
<ellipse cx="30" cy="40" rx="30" ry="10" fill="url(#paint0_linear_982_1928)" fill-opacity="0.2"/>
<ellipse cx="30" cy="39" rx="15" ry="5" fill="url(#paint1_linear_982_1928)" fill-opacity="0.35"/>
<mask id="mask0_982_1928" style="mask-type:alpha" maskUnits="userSpaceOnUse" x="10" y="0" width="40" height="40">
<rect x="10" width="40" height="40" fill="#D9D9D9"/>
</mask>
<g mask="url(#mask0_982_1928)">
<path d="M30.0003 19.9997C30.917 19.9997 31.702 19.673 32.3553 19.0197C33.0075 18.3675 33.3337 17.583 33.3337 16.6663C33.3337 15.7497 33.0075 14.9647 32.3553 14.3113C31.702 13.6591 30.917 13.333 30.0003 13.333C29.0837 13.333 28.2992 13.6591 27.647 14.3113C26.9937 14.9647 26.667 15.7497 26.667 16.6663C26.667 17.583 26.9937 18.3675 27.647 19.0197C28.2992 19.673 29.0837 19.9997 30.0003 19.9997ZM30.0003 36.0413C29.7781 36.0413 29.5559 35.9997 29.3337 35.9163C29.1114 35.833 28.917 35.7219 28.7503 35.583C24.6948 31.9997 21.667 28.6736 19.667 25.6047C17.667 22.5347 16.667 19.6663 16.667 16.9997C16.667 12.833 18.0075 9.51356 20.6887 7.04134C23.3687 4.56912 26.4725 3.33301 30.0003 3.33301C33.5281 3.33301 36.632 4.56912 39.312 7.04134C41.9931 9.51356 43.3337 12.833 43.3337 16.9997C43.3337 19.6663 42.3337 22.5347 40.3337 25.6047C38.3337 28.6736 35.3059 31.9997 31.2503 35.583C31.0837 35.7219 30.8892 35.833 30.667 35.9163C30.4448 35.9997 30.2225 36.0413 30.0003 36.0413Z" fill="url(#paint2_linear_982_1928)"/>
</g>
<defs>
<linearGradient id="paint0_linear_982_1928" x1="30" y1="30" x2="30" y2="50" gradientUnits="userSpaceOnUse">
<stop stop-color="#539AFF"/>
<stop offset="1" stop-color="#2441B7"/>
</linearGradient>
<linearGradient id="paint1_linear_982_1928" x1="30" y1="34" x2="30" y2="44" gradientUnits="userSpaceOnUse">
<stop stop-color="#539AFF"/>
<stop offset="1" stop-color="#2441B7"/>
</linearGradient>
<linearGradient id="paint2_linear_982_1928" x1="30.0003" y1="3.33301" x2="30.0003" y2="36.0413" gradientUnits="userSpaceOnUse">
<stop stop-color="#2441B7"/>
<stop offset="1" stop-color="#539AFF"/>
</linearGradient>
</defs>
</svg>
