<svg width="19" height="22" viewBox="0 0 19 22" fill="none" xmlns="http://www.w3.org/2000/svg">
<path fill-rule="evenodd" clip-rule="evenodd" d="M0.75 9.14329C0.75 4.24427 4.65501 0.25 9.5 0.25C14.345 0.25 18.25 4.24427 18.25 9.14329C18.25 11.5084 17.576 14.0479 16.3844 16.2419C15.1944 18.4331 13.4556 20.3372 11.2805 21.3539C10.1506 21.882 8.84943 21.882 7.71949 21.3539C5.54437 20.3372 3.80562 18.4331 2.61556 16.2419C1.42403 14.0479 0.75 11.5084 0.75 9.14329ZM9.5 1.75C5.50843 1.75 2.25 5.04748 2.25 9.14329C2.25 11.2404 2.85263 13.5354 3.9337 15.526C5.01624 17.5192 6.54602 19.1496 8.35465 19.995C9.08205 20.335 9.91795 20.335 10.6454 19.995C12.454 19.1496 13.9838 17.5192 15.0663 15.526C16.1474 13.5354 16.75 11.2404 16.75 9.14329C16.75 5.04748 13.4916 1.75 9.5 1.75ZM9.5 6.75C8.25736 6.75 7.25 7.75736 7.25 9C7.25 10.2426 8.25736 11.25 9.5 11.25C10.1229 11.25 10.6854 10.9979 11.0937 10.5883C11.5001 10.1806 11.75 9.62018 11.75 9C11.75 7.75736 10.7426 6.75 9.5 6.75ZM5.75 9C5.75 6.92893 7.42893 5.25 9.5 5.25C11.5711 5.25 13.25 6.92893 13.25 9C13.25 9.76278 13.0217 10.473 12.6305 11.0652L13.5317 11.971C13.8238 12.2647 13.8226 12.7396 13.529 13.0317C13.2353 13.3238 12.7604 13.3226 12.4683 13.029L11.5707 12.1268C10.9775 12.5203 10.2652 12.75 9.5 12.75C7.42893 12.75 5.75 11.0711 5.75 9Z" fill="white"/>
</svg>
