<svg width="20" height="20" viewBox="0 0 20 20" fill="none" xmlns="http://www.w3.org/2000/svg">
<path fill-rule="evenodd" clip-rule="evenodd" d="M9.58342 2.2915C5.55634 2.2915 2.29175 5.55609 2.29175 9.58317C2.29175 13.6102 5.55634 16.8748 9.58342 16.8748C13.6105 16.8748 16.8751 13.6102 16.8751 9.58317C16.8751 5.55609 13.6105 2.2915 9.58342 2.2915ZM1.04175 9.58317C1.04175 4.86574 4.86598 1.0415 9.58342 1.0415C14.3008 1.0415 18.1251 4.86574 18.1251 9.58317C18.1251 11.7169 17.3427 13.668 16.0491 15.165L18.7754 17.8912C19.0194 18.1353 19.0194 18.531 18.7754 18.7751C18.5313 19.0192 18.1356 19.0192 17.8915 18.7751L15.1653 16.0489C13.6682 17.3424 11.7172 18.1248 9.58342 18.1248C4.86598 18.1248 1.04175 14.3006 1.04175 9.58317Z" fill="#3366FF"/>
</svg>
