<svg width="32" height="32" viewBox="0 0 32 32" fill="none" xmlns="http://www.w3.org/2000/svg">
<rect width="32" height="32" rx="16" fill="#539AFF"/>
<path fill-rule="evenodd" clip-rule="evenodd" d="M22 13C22 14.1323 21.6864 15.1913 21.1413 16.0949L21.1962 15.9998H16H10.8038L10.8587 16.0949C10.3136 15.1912 10 14.1322 10 13C10 9.68629 12.6863 7 16 7C19.3137 7 22 9.68629 22 13ZM10.8587 16.0949L16 24.9998L21.1413 16.0949C20.091 17.8358 18.1815 19 16 19C13.8185 19 11.909 17.8358 10.8587 16.0949ZM15.8999 15.4C17.2806 15.4 18.3999 14.2807 18.3999 12.9C18.3999 11.5193 17.2806 10.4 15.8999 10.4C14.5192 10.4 13.3999 11.5193 13.3999 12.9C13.3999 14.2807 14.5192 15.4 15.8999 15.4Z" fill="white"/>
<path d="M21.1962 15.9998H16H10.8038L10.8587 16.0949C11.909 17.8358 13.8185 19 16 19C18.1815 19 20.091 17.8358 21.1413 16.0949L21.1962 15.9998Z" fill="white"/>
</svg>
