<svg width="150" height="169" viewBox="0 0 150 169" fill="none" xmlns="http://www.w3.org/2000/svg">
<path d="M55.0277 84.3691C51.7528 82.6843 48.0521 82.0068 44.3925 82.4221C43.931 82.4899 43.5153 82.7382 43.2368 83.1124C42.9584 83.4865 42.84 83.956 42.9078 84.4174C42.9755 84.8789 43.2239 85.2945 43.5982 85.5729C43.9725 85.8512 44.442 85.9696 44.9036 85.9018C47.7496 85.6153 50.6192 86.1269 53.1907 87.3793C53.5901 87.617 54.0675 87.6865 54.5181 87.5726C54.9687 87.4587 55.3556 87.1706 55.594 86.7717C55.7136 86.5745 55.7927 86.3555 55.8269 86.1275C55.861 85.8994 55.8495 85.6669 55.793 85.4433C55.7364 85.2197 55.636 85.0096 55.4975 84.8252C55.359 84.6408 55.1852 84.4858 54.9863 84.3691H55.0277Z" fill="#C7C7C7"/>
<path d="M64.3515 86.7713C64.5069 87.0321 64.7273 87.248 64.9912 87.3981C65.2551 87.5482 65.5534 87.6272 65.857 87.6274C66.1776 87.6268 66.4921 87.541 66.7686 87.3789C69.3395 86.1244 72.2097 85.6127 75.0558 85.9014C75.5173 85.9692 75.9869 85.8508 76.3612 85.5725C76.7355 85.2941 76.9838 84.8785 77.0516 84.417C77.1193 83.9556 77.001 83.4862 76.7225 83.112C76.4441 82.7378 76.0284 82.4895 75.5668 82.4218C71.9072 82.0073 68.2068 82.6847 64.9316 84.3687C64.5372 84.6115 64.2549 85.0004 64.1462 85.4505C64.0375 85.9006 64.1114 86.3754 64.3515 86.7713Z" fill="#C7C7C7"/>
<path d="M73.1353 117.012H46.8927C46.6333 117.005 46.3754 117.055 46.137 117.157C45.8985 117.26 45.6852 117.413 45.5115 117.605C45.3461 117.792 45.2224 118.012 45.1485 118.25C45.0747 118.488 45.0525 118.739 45.0834 118.986C45.2894 120.586 45.8844 122.111 46.8162 123.427C47.748 124.744 48.9883 125.813 50.4286 126.539C53.3816 128.055 56.6532 128.845 59.9726 128.845C63.292 128.845 66.5636 128.055 69.5166 126.539C70.9536 125.81 72.1905 124.74 73.1197 123.424C74.0489 122.108 74.6422 120.584 74.848 118.986C74.8817 118.739 74.8608 118.487 74.7869 118.248C74.7129 118.01 74.5876 117.79 74.4198 117.605C74.2582 117.423 74.0606 117.277 73.8396 117.174C73.6186 117.072 73.3788 117.017 73.1353 117.012ZM49.1993 120.533H58.2323V125.241C54.4478 124.882 50.6634 123.363 49.1993 120.533ZM61.7543 125.241V120.533H70.8149C69.3371 123.363 65.5526 124.882 61.7543 125.241Z" fill="#C7C7C7"/>
<path d="M48.7168 95.5259C48.4758 95.52 48.2362 95.5637 48.0129 95.6545C47.7896 95.7452 47.5874 95.881 47.419 96.0533C47.2505 96.2256 47.1193 96.4308 47.0337 96.656C46.9481 96.8813 46.9098 97.1218 46.9212 97.3624V101.284C46.9212 101.749 47.1061 102.195 47.435 102.524C47.764 102.853 48.2101 103.038 48.6754 103.038C49.1406 103.038 49.5867 102.853 49.9157 102.524C50.2447 102.195 50.4295 101.749 50.4295 101.284V97.3624C50.4406 97.1287 50.4048 96.8951 50.3242 96.6755C50.2437 96.4558 50.1199 96.2544 49.9603 96.0833C49.8007 95.9122 49.6085 95.7747 49.3949 95.679C49.1813 95.5832 48.9508 95.5312 48.7168 95.5259Z" fill="#C7C7C7"/>
<path d="M71.3113 95.5261C71.0738 95.5258 70.8387 95.5738 70.6203 95.667C70.4019 95.7603 70.2047 95.8969 70.0407 96.0687C69.8767 96.2404 69.7493 96.4436 69.6661 96.666C69.583 96.8884 69.5459 97.1254 69.5572 97.3626V101.284C69.5962 101.724 69.7986 102.134 70.1245 102.432C70.4505 102.73 70.8763 102.896 71.3182 102.896C71.76 102.896 72.1859 102.73 72.5118 102.432C72.8378 102.134 73.0402 101.724 73.0792 101.284V97.3626C73.0885 97.1247 73.0496 96.8875 72.965 96.665C72.8803 96.4425 72.7516 96.2394 72.5865 96.0679C72.4214 95.8964 72.2233 95.76 72.0042 95.6669C71.785 95.5738 71.5494 95.5259 71.3113 95.5261Z" fill="#C7C7C7"/>
<path d="M94.2961 113.201C96.3817 110.439 97.4314 106.407 97.4314 101.312C97.5183 98.9339 97.0452 96.5691 96.0502 94.4076C95.6816 93.537 95.073 92.7891 94.2953 92.2512C93.5176 91.7133 92.6029 91.4076 91.658 91.3698C91.2338 91.3728 90.8116 91.4285 90.4011 91.5355V86.1365C92.8597 75.6422 90.0006 69.3181 80.8986 65.1342C77.3351 60.1356 68.6336 56.2555 60.0564 58.3543C51.4792 56.2555 42.7087 60.0804 39.1452 65.1342C30.0432 69.2766 27.1979 75.6422 29.6426 86.1365V91.4941C28.5124 91.1876 27.3086 91.3117 26.2648 91.8424C25.221 92.3731 24.4115 93.2726 23.9936 94.3662C23.0049 96.5297 22.5321 98.8931 22.6124 101.27C22.6124 106.366 23.6759 110.37 25.7477 113.159C26.3389 114.092 27.1208 114.889 28.042 115.498C28.9632 116.107 30.003 116.515 31.0929 116.694C32.9123 122.619 36.2782 127.953 40.8441 132.145C41.728 132.974 42.6672 133.747 43.6065 134.479V140.168L39.0485 141.549C37.9021 140.997 37.2806 140.61 37.253 140.596C36.9259 140.389 36.5396 140.296 36.1542 140.332C35.7688 140.367 35.406 140.529 35.1222 140.793C34.8385 141.056 34.6498 141.405 34.5855 141.787C34.5213 142.168 34.585 142.561 34.7668 142.902L30.9133 144.131C30.4694 144.274 30.0999 144.586 29.8852 145C29.6705 145.413 29.628 145.895 29.7669 146.34C29.8791 146.695 30.1019 147.004 30.4026 147.223C30.7034 147.441 31.0663 147.558 31.4382 147.555C31.6209 147.555 31.8025 147.527 31.9768 147.473L38.7999 145.305C45.495 148.162 52.7082 149.605 59.9874 149.544C63.8479 149.547 67.6986 149.153 71.4789 148.37C70.9922 149.639 70.744 150.988 70.7468 152.347C70.7508 153.28 70.8762 154.208 71.1198 155.109C65.8589 153.014 60.1119 152.454 54.5455 153.493C50.6917 154.152 47.0205 155.617 43.7718 157.792C40.523 159.967 37.7699 162.802 35.6922 166.114C35.4458 166.511 35.367 166.99 35.4731 167.446C35.5793 167.901 35.8617 168.296 36.2585 168.544C36.4544 168.666 36.6723 168.747 36.8998 168.785C37.1273 168.822 37.36 168.814 37.5845 168.762C37.809 168.709 38.0209 168.613 38.2081 168.478C38.3953 168.344 38.5542 168.174 38.6756 167.978C40.4938 165.079 42.9039 162.596 45.7482 160.692C48.5925 158.789 51.8068 157.507 55.1808 156.931C61.8299 155.67 68.7089 157.042 74.3656 160.756C73.6172 161.673 73.0288 162.709 72.6252 163.821C68.9071 161.299 64.5082 159.97 60.015 160.01C54.4559 159.936 49.0792 161.992 44.9876 165.755C44.8063 165.909 44.657 166.097 44.5485 166.309C44.4399 166.521 44.3741 166.752 44.3549 166.989C44.3356 167.226 44.3633 167.465 44.4363 167.691C44.5093 167.918 44.6263 168.128 44.7805 168.309C44.9346 168.49 45.123 168.64 45.3349 168.748C45.5467 168.857 45.7779 168.923 46.0151 168.942C46.2524 168.961 46.4912 168.933 46.7177 168.86C46.9443 168.787 47.1543 168.67 47.3357 168.516C50.8112 165.431 55.2979 163.727 59.9459 163.727C64.594 163.727 69.0807 165.431 72.5562 168.516C72.8037 168.752 73.1146 168.91 73.4508 168.971C73.7869 169.033 74.1337 168.994 74.4484 168.861C74.7646 168.726 75.034 168.501 75.2231 168.214C75.4122 167.926 75.5126 167.59 75.5119 167.246C75.5445 166.235 75.7989 165.243 76.2571 164.341C76.7154 163.439 77.3663 162.649 78.1638 162.026C78.4049 161.857 78.5993 161.629 78.729 161.364C78.8586 161.099 78.9194 160.806 78.9056 160.511C78.8919 160.216 78.804 159.93 78.6502 159.679C78.4964 159.427 78.2816 159.218 78.0257 159.071C76.9839 158.472 76.099 157.635 75.4432 156.628C74.7874 155.621 74.3795 154.473 74.2528 153.278C74.1262 152.084 74.2844 150.876 74.7145 149.754C75.1446 148.632 75.8344 147.628 76.7274 146.824C76.9065 146.658 77.0494 146.457 77.1471 146.234C77.2449 146.011 77.2953 145.769 77.2953 145.526C77.2953 145.282 77.2449 145.041 77.1471 144.817C77.0494 144.594 76.9065 144.393 76.7274 144.228C75.9378 143.513 75.3062 142.642 74.8733 141.67C74.4404 140.697 74.2157 139.645 74.2136 138.58C74.216 137.505 74.4418 136.443 74.8766 135.459C76.3674 134.438 77.7801 133.307 79.103 132.076C83.6778 127.909 87.0622 122.6 88.9095 116.694C90.0036 116.526 91.0495 116.128 91.9781 115.526C92.9067 114.923 93.6968 114.131 94.2961 113.201ZM55.0979 99.1024C54.2278 104.253 50.8163 106.448 43.6755 106.448C34.9878 106.448 33.1647 102.499 33.1647 99.199C33.1647 94.7942 34.7392 92.6954 43.6755 92.6954C49.3384 92.6954 52.9433 93.5515 54.3797 95.2637C54.781 95.8081 55.054 96.4361 55.1784 97.1008C55.3028 97.7656 55.2753 98.4498 55.0979 99.1024ZM55.8438 107.387L58.7305 100.704C58.8522 100.475 59.0359 100.285 59.2606 100.156C59.4854 100.026 59.742 99.9627 60.0012 99.9723C60.258 99.9653 60.5117 100.03 60.7338 100.159C60.9558 100.289 61.1374 100.477 61.2581 100.704L64.1447 107.387C64.2538 107.614 64.3161 107.861 64.328 108.112C64.3398 108.364 64.301 108.615 64.2138 108.851C64.1 109.106 63.9345 109.335 63.7276 109.523C63.5208 109.71 63.2771 109.853 63.0122 109.942C61.0759 110.697 58.9265 110.697 56.9902 109.942C56.7246 109.851 56.4801 109.708 56.2712 109.52C56.0624 109.333 55.8935 109.105 55.7747 108.851C55.5828 108.382 55.5828 107.856 55.7747 107.387H55.8438ZM64.9044 99.1024C64.7261 98.4507 64.6969 97.7673 64.8188 97.1028C64.9408 96.4382 65.2108 95.8097 65.6088 95.2637C67.059 93.5515 70.664 92.6954 76.3268 92.6954C85.2631 92.6954 86.8377 94.7942 86.8377 99.199C86.8377 102.499 85.0145 106.448 76.3268 106.448C69.1861 106.448 65.7745 104.253 64.9044 99.1024ZM87.4869 82.3668L78.1362 73.1015L80.4842 68.8348C86.3543 71.8312 88.4399 75.7389 87.5421 82.3668H87.4869ZM77.5975 66.6669L75.2081 71.1269C74.5313 70.8232 73.6611 70.4642 72.6114 70.0913C72.1719 69.9339 71.6877 69.9574 71.2655 70.1568C70.8433 70.3562 70.5176 70.7151 70.3601 71.1546C70.2026 71.594 70.2261 72.078 70.4256 72.5001C70.625 72.9222 70.984 73.2478 71.4236 73.4053C72.6299 73.8183 73.8105 74.3024 74.9595 74.8552L86.8791 86.675V91.3422C84.6554 89.8509 81.3544 89.1743 76.3683 89.1743C69.4623 89.1743 65.1668 90.3894 62.9707 92.9992C62.0927 94.0361 61.5402 95.3089 61.3824 96.6583C60.9318 96.5382 60.4674 96.4779 60.0012 96.4788C59.535 96.4791 59.0708 96.5395 58.62 96.6583C58.4661 95.3104 57.9185 94.0377 57.0454 92.9992C54.8355 90.3894 50.5815 89.1743 43.6479 89.1743C39.6286 89.1743 35.7751 89.5471 33.137 91.356V86.675L45.0429 74.8552C49.7048 72.6057 54.798 71.3904 59.9735 71.2926C61.4013 71.3 62.827 71.4015 64.2414 71.5964C64.703 71.6623 65.1718 71.5423 65.5448 71.2626C65.9178 70.9829 66.1644 70.5666 66.2303 70.1051C66.2963 69.6437 66.1762 69.175 65.8964 68.8021C65.6167 68.4292 65.2002 68.1827 64.7387 68.1168C63.7304 67.9787 62.7221 67.882 61.7277 67.8268V61.5855C67.0452 60.6879 74.1584 62.4278 77.5699 66.6669H77.5975ZM55.388 61.3507C56.3413 61.35 57.293 61.4285 58.2332 61.5855V67.8268C53.5888 68.1212 49.0337 69.2386 44.7805 71.1269L42.391 66.6807C45.2224 63.1458 50.5953 61.3507 55.388 61.3507ZM39.5734 68.8348L41.8109 73.1015L32.4741 82.3668C31.6177 75.7527 33.7033 71.8312 39.5734 68.8348ZM26.1344 101.312C26.0556 99.4942 26.386 97.6822 27.1012 96.0093C27.336 95.5675 27.8056 94.8356 28.3996 94.8356C28.6748 94.8693 28.9358 94.977 29.1547 95.1472C29.3736 95.3174 29.5422 95.5438 29.6426 95.8022V106.849C29.6475 108.788 29.8138 110.723 30.1399 112.634C28.51 111.585 26.1344 108.589 26.1344 101.298V101.312ZM72.5562 144.642C63.2081 146.944 53.4058 146.624 44.228 143.717L45.913 143.178C46.269 143.067 46.5802 142.844 46.8012 142.544C47.0223 142.243 47.1418 141.88 47.1423 141.507V136.813C50.9935 139.292 55.4267 140.72 60.0012 140.955C63.7785 140.797 67.467 139.762 70.7745 137.931C70.7745 138.138 70.7745 138.332 70.7745 138.539C70.7766 140.69 71.4001 142.795 72.57 144.6L72.5562 144.642ZM76.6997 129.453C70.7744 134.976 64.0066 137.448 59.9459 137.448C55.8852 137.448 49.1174 134.976 43.1783 129.453C40.0143 126.609 37.4832 123.132 35.7487 119.247C34.0142 115.363 33.115 111.158 33.1094 106.904C35.5265 108.851 39.1038 109.914 43.6203 109.914C46.5398 110.02 49.4487 109.507 52.156 108.409C52.1727 109.01 52.2942 109.604 52.5151 110.163C52.7992 110.855 53.2212 111.483 53.7554 112.008C54.2896 112.532 54.925 112.943 55.6228 113.214C58.4241 114.337 61.5506 114.337 64.3519 113.214C65.0459 112.947 65.6788 112.543 66.2128 112.026C66.7468 111.509 67.1709 110.889 67.4596 110.204C67.685 109.646 67.8111 109.052 67.8325 108.451C70.5312 109.544 73.4303 110.057 76.3406 109.956C80.8571 109.956 84.4344 108.892 86.8515 106.945C86.8442 111.2 85.9428 115.406 84.2059 119.291C82.469 123.175 79.9353 126.651 76.7688 129.494L76.6997 129.453ZM89.7934 112.607C90.1263 110.696 90.2927 108.76 90.2907 106.821V95.7746C90.3934 95.5151 90.5645 95.2882 90.7858 95.1181C91.0071 94.9479 91.2703 94.8408 91.5475 94.808C92.1276 94.808 92.5973 95.5399 92.8321 95.9817C93.5594 97.6512 93.8949 99.465 93.8127 101.284C93.8679 108.602 91.5337 111.599 89.8487 112.648L89.7934 112.607Z" fill="#C7C7C7"/>
<path d="M120 116.362C120.007 113.515 118.913 110.774 116.947 108.713C118.081 106.93 118.681 104.86 118.674 102.748C118.668 101.088 118.293 99.4498 117.577 97.9524C116.86 96.4551 115.819 95.1357 114.53 94.0898C115.662 91.432 115.719 88.4387 114.689 85.7397C113.658 83.0407 111.621 80.8466 109.005 79.6188C109.31 76.929 108.616 74.2211 107.055 72.0091C105.494 69.7971 103.175 68.2351 100.539 67.6195C100.178 64.9448 98.8594 62.4915 96.8277 60.7142C94.796 58.937 92.1888 57.9562 89.4892 57.9537H88.8814C87.9921 56.0018 86.5621 54.3453 84.7605 53.1805C82.959 52.0157 80.8613 51.3912 78.7159 51.381C77.1601 51.3772 75.621 51.7019 74.1994 52.3338C72.3664 50.4675 69.9346 49.3062 67.3306 49.0537C64.7266 48.8012 62.1168 49.4736 59.9593 50.953C57.7996 49.4726 55.1876 48.7996 52.5812 49.0521C49.9749 49.3046 47.5406 50.4664 45.7055 52.3338C44.2891 51.7006 42.7543 51.3758 41.2028 51.381C39.0565 51.3879 36.9575 52.0109 35.1553 53.1762C33.3531 54.3414 31.9237 55.9997 31.0372 57.9537H30.4157C27.716 57.9562 25.1088 58.937 23.0771 60.7142C21.0454 62.4915 19.727 64.9448 19.3662 67.6195C16.7473 68.2671 14.4497 69.8368 12.8946 72.0407C11.3395 74.2446 10.6312 76.9351 10.8995 79.6188C8.28377 80.8466 6.24638 83.0407 5.21597 85.7397C4.18555 88.4387 4.24247 91.432 5.37471 94.0898C4.08613 95.1364 3.04602 96.4558 2.32946 97.9531C1.61291 99.4503 1.23778 101.088 1.23115 102.748C1.22839 104.861 1.83238 106.932 2.97144 108.713C2.72678 108.962 2.49622 109.225 2.28084 109.5C1.99329 109.866 1.86303 110.331 1.91872 110.794C1.97441 111.256 2.21149 111.677 2.5778 111.965C2.94412 112.252 3.40966 112.382 3.87202 112.327C4.33437 112.271 4.75566 112.034 5.04322 111.668C5.44756 111.155 5.91118 110.691 6.42441 110.287C6.61535 110.142 6.77414 109.96 6.89065 109.75C7.00716 109.541 7.07887 109.31 7.1012 109.072C7.1278 108.825 7.10354 108.575 7.0299 108.337C6.95627 108.1 6.83482 107.88 6.67303 107.691C5.44768 106.304 4.77435 104.515 4.7808 102.665C4.80884 101.337 5.18128 100.04 5.86165 98.9001C6.54201 97.76 7.50696 96.8162 8.66194 96.1611C8.86316 96.0421 9.0388 95.8845 9.17868 95.6972C9.31855 95.51 9.41989 95.2969 9.47684 95.0702C9.53755 94.8373 9.54926 94.5943 9.51122 94.3566C9.47318 94.119 9.38623 93.8918 9.25585 93.6894C8.6398 92.6992 8.25924 91.5808 8.14346 90.4204C8.02768 89.26 8.17976 88.0885 8.58802 86.9961C8.99628 85.9037 9.64981 84.9196 10.4983 84.1194C11.3468 83.3192 12.3677 82.7243 13.4823 82.3805C13.9093 82.246 14.2694 81.9546 14.4899 81.565C14.7103 81.1755 14.7747 80.7168 14.6701 80.2816C14.5165 79.6721 14.4376 79.0461 14.4353 78.4175C14.4309 76.5198 15.1373 74.6892 16.4155 73.2862C17.6936 71.8831 19.4509 71.0093 21.3413 70.8368C21.7771 70.792 22.1804 70.5858 22.4718 70.2587C22.7632 69.9316 22.9216 69.5073 22.9158 69.0694C22.9229 67.0656 23.7175 65.1449 25.1283 63.7216C26.5391 62.2983 28.453 61.4864 30.4571 61.461C30.9436 61.4659 31.4287 61.5121 31.9074 61.5991C32.3365 61.6853 32.7823 61.6067 33.1561 61.3789C33.5298 61.1512 33.8039 60.791 33.9239 60.3702C34.2551 59.2464 34.8409 58.214 35.6359 57.3532C36.431 56.4925 37.4137 55.8266 38.508 55.4072C39.6022 54.9878 40.7784 54.8262 41.9452 54.935C43.112 55.0437 44.238 55.42 45.2358 56.0344C45.6087 56.2652 46.0541 56.3492 46.4855 56.2701C46.9168 56.191 47.3034 55.9544 47.57 55.6063C48.2768 54.6589 49.1961 53.8904 50.254 53.3628C51.3119 52.8352 52.4789 52.5631 53.6611 52.5685C55.5663 52.5658 57.4038 53.275 58.8129 54.5569C59.1328 54.8461 59.5488 55.0062 59.98 55.0062C60.4113 55.0062 60.8272 54.8461 61.1471 54.5569C61.9329 53.8415 62.8593 53.2978 63.8672 52.9607C64.8751 52.6236 65.9422 52.5005 67.0004 52.5993C68.0586 52.6981 69.0845 53.0165 70.0126 53.5343C70.9406 54.0521 71.7504 54.7578 72.39 55.6063C72.6523 55.956 73.0366 56.1942 73.4666 56.2735C73.8965 56.3529 74.3406 56.2675 74.7104 56.0344C75.7069 55.4225 76.8308 55.048 77.9952 54.9398C79.1596 54.8316 80.3332 54.9926 81.4254 55.4104C82.5176 55.8282 83.499 56.4916 84.2937 57.3493C85.0884 58.2069 85.6752 59.2358 86.0086 60.3564C86.1313 60.7754 86.406 61.1337 86.779 61.3609C87.1519 61.5882 87.5963 61.6682 88.0251 61.5853C88.5038 61.499 88.9889 61.4528 89.4753 61.4472C91.495 61.4472 93.4322 62.2484 94.8616 63.6748C96.291 65.1012 97.0958 67.0364 97.0995 69.0555C97.0972 69.4948 97.2587 69.9192 97.5523 70.2459C97.846 70.5727 98.2508 70.7784 98.6879 70.823C100.579 70.9924 102.339 71.8653 103.617 73.269C104.896 74.6728 105.601 76.5051 105.594 78.4037C105.596 79.0317 105.522 79.6577 105.373 80.2678C105.261 80.7033 105.323 81.1651 105.544 81.5563C105.765 81.9476 106.13 82.238 106.561 82.3667C108.118 82.8465 109.48 83.8143 110.445 85.1271C111.41 86.44 111.927 88.0282 111.92 89.6574C111.925 91.0782 111.528 92.4715 110.773 93.6756C110.651 93.8755 110.569 94.0977 110.534 94.3293C110.498 94.561 110.509 94.7974 110.565 95.0248C110.622 95.2522 110.723 95.4662 110.863 95.6541C111.003 95.8421 111.179 96.0003 111.381 96.1196C112.354 96.6853 113.189 97.4597 113.827 98.3869C114.464 99.3141 114.888 100.371 115.067 101.482C115.247 102.593 115.178 103.729 114.866 104.81C114.553 105.891 114.004 106.889 113.259 107.732C113.102 107.914 112.983 108.125 112.91 108.354C112.837 108.583 112.811 108.824 112.834 109.063C112.857 109.302 112.929 109.534 113.045 109.744C113.161 109.955 113.318 110.139 113.508 110.287C114.391 110.967 115.114 111.833 115.627 112.823C116.139 113.814 116.427 114.904 116.472 116.018C116.517 117.132 116.317 118.242 115.886 119.27C115.455 120.298 114.803 121.219 113.978 121.969C113.794 122.131 113.648 122.331 113.548 122.555C113.448 122.779 113.396 123.021 113.398 123.267C113.386 123.525 113.432 123.783 113.533 124.022C113.633 124.261 113.785 124.474 113.978 124.647C114.919 125.502 115.631 126.578 116.05 127.777C116.469 128.977 116.581 130.262 116.377 131.517C116.172 132.771 115.658 133.954 114.879 134.958C114.101 135.963 113.083 136.757 111.92 137.268C111.696 137.368 111.495 137.513 111.328 137.694C111.162 137.874 111.034 138.086 110.953 138.318C110.88 138.544 110.854 138.783 110.875 139.021C110.896 139.258 110.965 139.488 111.077 139.698C111.775 140.958 112.102 142.389 112.019 143.826C111.935 145.263 111.446 146.647 110.608 147.818C110.336 148.197 110.226 148.669 110.301 149.129C110.376 149.589 110.63 150.002 111.008 150.275C111.305 150.491 111.663 150.607 112.03 150.607C112.302 150.603 112.569 150.535 112.809 150.408C113.049 150.28 113.256 150.098 113.411 149.875C114.773 147.986 115.503 145.714 115.497 143.385C115.497 142.105 115.278 140.835 114.848 139.629C116.16 138.786 117.279 137.677 118.135 136.373C118.99 135.069 119.562 133.6 119.814 132.062C120.065 130.523 119.99 128.949 119.594 127.441C119.198 125.933 118.489 124.525 117.513 123.308C119.09 121.352 119.952 118.916 119.958 116.404L120 116.362Z" fill="#C7C7C7"/>
<path d="M23.772 146.52L20.1947 147.666C17.9717 148.368 15.8841 149.441 14.0208 150.842C12.8556 150.596 11.764 150.082 10.8336 149.339C9.90326 148.596 9.15989 147.645 8.6631 146.563C8.16631 145.481 7.92991 144.298 7.97285 143.108C8.01579 141.919 8.33687 140.756 8.91037 139.712C9.02311 139.502 9.09223 139.272 9.11359 139.035C9.13496 138.797 9.10811 138.558 9.03467 138.332C8.95838 138.1 8.8341 137.886 8.66991 137.705C8.50571 137.525 8.30528 137.38 8.08165 137.282C6.91538 136.774 5.89525 135.981 5.11457 134.976C4.33389 133.972 3.81759 132.788 3.61287 131.532C3.40815 130.277 3.52155 128.99 3.94271 127.79C4.36387 126.59 5.07933 125.514 6.02367 124.661C6.21161 124.485 6.35945 124.271 6.45716 124.033C6.55487 123.794 6.60016 123.538 6.58997 123.281C6.59018 123.037 6.53999 122.796 6.44253 122.572C6.34508 122.349 6.20247 122.148 6.02367 121.983C4.74221 120.825 3.89033 119.267 3.60659 117.564C3.57032 117.336 3.48956 117.118 3.36894 116.922C3.24831 116.725 3.09018 116.555 2.90357 116.419C2.71696 116.284 2.50552 116.187 2.28134 116.133C2.05715 116.08 1.8246 116.071 1.59697 116.107C1.36934 116.143 1.15108 116.224 0.954658 116.345C0.758235 116.465 0.58749 116.623 0.452181 116.81C0.316872 116.997 0.219638 117.208 0.166042 117.432C0.112446 117.656 0.103538 117.889 0.139814 118.116C0.447596 120.006 1.23723 121.785 2.43258 123.281C1.46139 124.499 0.756173 125.907 0.362327 127.414C-0.0315194 128.922 -0.105252 130.495 0.145862 132.032C0.396976 133.57 0.967374 135.037 1.82034 136.341C2.6733 137.645 3.78991 138.756 5.09828 139.602C4.15204 142.248 4.24109 145.155 5.34758 147.738C6.45407 150.322 8.49628 152.392 11.065 153.534C7.7094 157.311 5.86949 162.195 5.89937 167.246C5.89937 167.711 6.08417 168.157 6.41313 168.486C6.74209 168.815 7.18826 169 7.65348 169C8.1187 169 8.56486 168.815 8.89382 168.486C9.22278 168.157 9.40759 167.711 9.40759 167.246C9.39978 163.626 10.5494 160.097 12.6887 157.176C14.828 154.255 17.845 152.094 21.2996 151.007L24.8769 149.875C25.322 149.734 25.6928 149.422 25.9078 149.008C26.1228 148.594 26.1643 148.111 26.0233 147.666C25.8823 147.221 25.5702 146.85 25.1558 146.635C24.7413 146.42 24.2585 146.379 23.8134 146.52H23.772Z" fill="#C7C7C7"/>
<path d="M102.32 148.646C101.937 147.065 101.216 145.586 100.207 144.31C101.978 142.1 102.838 139.298 102.612 136.475C102.386 133.652 101.091 131.022 98.9915 129.121C98.8201 128.966 98.6199 128.846 98.4022 128.769C98.1845 128.691 97.9536 128.657 97.7227 128.669C97.4919 128.68 97.2655 128.737 97.0567 128.836C96.8478 128.935 96.6605 129.074 96.5054 129.246C96.3503 129.417 96.2305 129.617 96.1528 129.835C96.0752 130.052 96.0411 130.283 96.0527 130.514C96.0642 130.745 96.1211 130.971 96.2201 131.18C96.3191 131.389 96.4583 131.576 96.6297 131.731C97.4163 132.447 98.0448 133.319 98.4748 134.291C98.9049 135.264 99.127 136.315 99.127 137.379C99.127 138.442 98.9049 139.493 98.4748 140.466C98.0448 141.438 97.4163 142.31 96.6297 143.026C96.4468 143.189 96.3005 143.389 96.2003 143.613C96.1001 143.837 96.0483 144.079 96.0483 144.324C96.0483 144.569 96.1001 144.812 96.2003 145.035C96.3005 145.259 96.4468 145.459 96.6297 145.622C97.5734 146.477 98.2878 147.555 98.7078 148.757C99.1277 149.959 99.2398 151.247 99.0337 152.503C98.8277 153.76 98.3101 154.944 97.5283 155.949C96.7465 156.954 95.7253 157.748 94.5579 158.257C94.3357 158.356 94.1364 158.501 93.9727 158.681C93.809 158.862 93.6843 159.074 93.6065 159.305C93.5287 159.535 93.4994 159.78 93.5205 160.022C93.5417 160.265 93.6127 160.501 93.7292 160.714C94.2313 161.618 94.5431 162.614 94.6452 163.642C94.7473 164.671 94.6377 165.709 94.3231 166.693C94.2548 166.914 94.2306 167.145 94.252 167.375C94.2734 167.605 94.3398 167.828 94.4476 168.032C94.5554 168.236 94.7023 168.416 94.8801 168.563C95.0578 168.711 95.2628 168.821 95.4833 168.889C95.6527 168.944 95.8299 168.972 96.0082 168.972C96.3813 168.971 96.7445 168.852 97.045 168.631C97.3456 168.41 97.5678 168.099 97.6794 167.743C98.0215 166.662 98.1939 165.535 98.1905 164.401C98.1906 163.117 97.971 161.842 97.5413 160.632C98.9028 159.764 100.059 158.611 100.93 157.252C101.8 155.893 102.364 154.36 102.583 152.761C105.052 154.286 107.09 156.418 108.502 158.954C109.914 161.489 110.653 164.344 110.649 167.246C110.688 167.686 110.89 168.095 111.216 168.393C111.542 168.692 111.968 168.857 112.41 168.857C112.852 168.857 113.278 168.692 113.603 168.393C113.929 168.095 114.132 167.686 114.171 167.246C114.17 163.34 113.054 159.515 110.955 156.22C108.856 152.926 105.861 150.298 102.32 148.646Z" fill="#C7C7C7"/>
<path d="M122.832 66.6667L121.999 56.6667H121.165C113.277 56.6667 106.582 53.9167 101.082 48.4167C95.5821 42.9167 92.8321 36.2222 92.8321 28.3333C92.8321 20.4444 95.5821 13.75 101.082 8.25C106.582 2.75 113.277 0 121.165 0C125.11 0 128.79 0.73611 132.207 2.20833C135.624 3.68055 138.624 5.70833 141.207 8.29167C143.79 10.875 145.818 13.875 147.29 17.2917C148.763 20.7083 149.499 24.3889 149.499 28.3333C149.499 36.7778 146.971 44.3472 141.915 51.0417C136.86 57.7361 130.499 62.9445 122.832 66.6667ZM121.082 46.5833C122.027 46.5833 122.832 46.25 123.499 45.5833C124.165 44.9167 124.499 44.1111 124.499 43.1667C124.499 42.2222 124.165 41.4167 123.499 40.75C122.832 40.0833 122.027 39.75 121.082 39.75C120.138 39.75 119.332 40.0833 118.665 40.75C117.999 41.4167 117.665 42.2222 117.665 43.1667C117.665 44.1111 117.999 44.9167 118.665 45.5833C119.332 46.25 120.138 46.5833 121.082 46.5833ZM121.165 36C121.777 36 122.332 35.7778 122.832 35.3333C123.332 34.8889 123.665 34.2778 123.832 33.5C123.943 32.7778 124.249 32.125 124.749 31.5417C125.249 30.9583 126.11 30.0556 127.332 28.8333C128.332 27.8333 129.165 26.75 129.832 25.5833C130.499 24.4167 130.832 23.1667 130.832 21.8333C130.832 19 129.874 16.875 127.957 15.4583C126.04 14.0417 123.777 13.3333 121.165 13.3333C119.221 13.3333 117.54 13.7778 116.124 14.6667C114.707 15.5556 113.554 16.6667 112.665 18C112.277 18.6111 112.207 19.25 112.457 19.9167C112.707 20.5833 113.221 21.0556 113.999 21.3333C114.554 21.5556 115.11 21.5556 115.665 21.3333C116.221 21.1111 116.721 20.6944 117.165 20.0833C117.61 19.4722 118.152 18.9722 118.79 18.5833C119.429 18.1944 120.221 18 121.165 18C122.665 18 123.79 18.4167 124.54 19.25C125.29 20.0833 125.665 21 125.665 22C125.665 22.9444 125.388 23.7917 124.832 24.5417C124.277 25.2917 123.61 26.0556 122.832 26.8333C121.277 28.1667 120.235 29.25 119.707 30.0833C119.179 30.9167 118.86 32.0556 118.749 33.5C118.693 34.1667 118.901 34.75 119.374 35.25C119.846 35.75 120.443 36 121.165 36ZM129.499 50V54.5C133.443 51.1667 136.651 47.2639 139.124 42.7917C141.596 38.3195 142.832 33.5 142.832 28.3333C142.832 22.2778 140.735 17.1528 136.54 12.9583C132.346 8.76389 127.221 6.66667 121.165 6.66667C115.11 6.66667 109.985 8.76389 105.79 12.9583C101.596 17.1528 99.4987 22.2778 99.4987 28.3333C99.4987 34.3889 101.596 39.5139 105.79 43.7083C109.985 47.9028 115.11 50 121.165 50H129.499Z" fill="#C7C7C7"/>
</svg>
