<svg width="22" height="22" viewBox="0 0 22 22" fill="none" xmlns="http://www.w3.org/2000/svg">
<path d="M8.25 11C8.25 10.5858 8.58579 10.25 9 10.25H10.25V9C10.25 8.58579 10.5858 8.25 11 8.25C11.4142 8.25 11.75 8.58579 11.75 9V10.25H13C13.4142 10.25 13.75 10.5858 13.75 11C13.75 11.4142 13.4142 11.75 13 11.75H11.75V13C11.75 13.4142 11.4142 13.75 11 13.75C10.5858 13.75 10.25 13.4142 10.25 13V11.75H9C8.58579 11.75 8.25 11.4142 8.25 11Z" fill="#1A2029"/>
<path fill-rule="evenodd" clip-rule="evenodd" d="M11 0.25C5.06294 0.25 0.25 5.06294 0.25 11C0.25 16.9371 5.06294 21.75 11 21.75C16.9371 21.75 21.75 16.9371 21.75 11C21.75 5.06294 16.9371 0.25 11 0.25ZM10.25 1.77997C5.7395 2.14188 2.14188 5.7395 1.77997 10.25H4C4.41421 10.25 4.75 10.5858 4.75 11C4.75 11.4142 4.41421 11.75 4 11.75H1.77997C2.14188 16.2605 5.7395 19.8581 10.25 20.22V18C10.25 17.5858 10.5858 17.25 11 17.25C11.4142 17.25 11.75 17.5858 11.75 18V20.22C16.2605 19.8581 19.8581 16.2605 20.22 11.75H18C17.5858 11.75 17.25 11.4142 17.25 11C17.25 10.5858 17.5858 10.25 18 10.25H20.22C19.8581 5.7395 16.2605 2.14188 11.75 1.77997V4C11.75 4.41421 11.4142 4.75 11 4.75C10.5858 4.75 10.25 4.41421 10.25 4V1.77997Z" fill="#1A2029"/>
</svg>
