<svg width="19" height="21" viewBox="0 0 19 21" fill="none" xmlns="http://www.w3.org/2000/svg">
<path fill-rule="evenodd" clip-rule="evenodd" d="M11.3251 1.75017C11.2209 1.75002 11.1126 1.75 11.0001 1.75L7.00006 1.75C6.88748 1.75 6.77921 1.75002 6.67501 1.75017C6.37671 3.21938 5.21944 4.37665 3.75022 4.67496C3.75008 4.77915 3.75006 4.88742 3.75006 5C3.75006 5.11259 3.75008 5.22086 3.75022 5.32505C5.21944 5.62335 6.37671 6.78062 6.67501 8.24984C6.77921 8.24998 6.88748 8.25 7.00006 8.25H11.0001C11.1126 8.25 11.2209 8.24998 11.3251 8.24984C11.6234 6.78062 12.7807 5.62336 14.2499 5.32505C14.25 5.22086 14.2501 5.11259 14.2501 5C14.2501 4.88742 14.25 4.77915 14.2499 4.67496C12.7807 4.37665 11.6234 3.21938 11.3251 1.75017ZM11.9296 0.25327C11.655 0.249981 11.3625 0.249991 11.0521 0.250001L6.94806 0.250001C6.63767 0.249991 6.34509 0.249982 6.07054 0.25327C6.04734 0.251108 6.02383 0.250002 6.00006 0.250002C5.96867 0.250002 5.93772 0.251931 5.90734 0.255677C5.45456 0.263717 5.05363 0.28312 4.70558 0.329914C4.07779 0.414319 3.51099 0.599989 3.05552 1.05546C2.60005 1.51093 2.41438 2.07773 2.32997 2.70552C2.28318 3.05357 2.26377 3.45451 2.25573 3.90728C2.25199 3.93767 2.25006 3.96861 2.25006 4C2.25006 4.02377 2.25117 4.04728 2.25333 4.07048C2.25004 4.34503 2.25005 4.63761 2.25006 4.948V5.052C2.25005 5.36239 2.25004 5.65497 2.25333 5.92952C2.25117 5.95273 2.25006 5.97624 2.25006 6C2.25006 6.0314 2.25199 6.06234 2.25573 6.09272C2.26377 6.5455 2.28318 6.94643 2.32997 7.29448C2.41438 7.92228 2.60005 8.48908 3.05552 8.94455C3.51099 9.40002 4.07779 9.58569 4.70558 9.67009C5.05363 9.71688 5.45456 9.73629 5.90734 9.74433C5.93772 9.74807 5.96867 9.75 6.00006 9.75C6.02383 9.75 6.04733 9.7489 6.07054 9.74673C6.34509 9.75002 6.63767 9.75001 6.94807 9.75H11.0521C11.3625 9.75001 11.655 9.75002 11.9296 9.74673C11.9528 9.7489 11.9763 9.75 12.0001 9.75C12.0315 9.75 12.0624 9.74807 12.0928 9.74433C12.5456 9.73629 12.9465 9.71688 13.2945 9.67009C13.9223 9.58568 14.4891 9.40001 14.9446 8.94454C15.4001 8.48907 15.5857 7.92228 15.6701 7.29448C15.7169 6.94643 15.7363 6.5455 15.7444 6.09272C15.7481 6.06234 15.7501 6.0314 15.7501 6C15.7501 5.97624 15.749 5.95273 15.7468 5.92953C15.7501 5.65497 15.7501 5.36239 15.7501 5.052V4.94801C15.7501 4.63761 15.7501 4.34503 15.7468 4.07048C15.749 4.04728 15.7501 4.02377 15.7501 4C15.7501 3.96861 15.7481 3.93767 15.7444 3.90729C15.7363 3.45451 15.7169 3.05357 15.6701 2.70552C15.5857 2.07773 15.4001 1.51093 14.9446 1.05546C14.4891 0.599988 13.9223 0.414318 13.2945 0.329913C12.9465 0.283119 12.5456 0.263716 12.0928 0.255677C12.0624 0.251931 12.0315 0.250002 12.0001 0.250002C11.9763 0.250002 11.9528 0.251108 11.9296 0.25327ZM12.8941 1.79396C13.122 2.39792 13.6021 2.8781 14.2061 3.10591C14.1996 3.03597 14.1921 2.96924 14.1835 2.90539C14.1215 2.44393 14.0143 2.24644 13.8839 2.11612C13.7536 1.9858 13.5561 1.87858 13.0947 1.81654C13.0308 1.80795 12.9641 1.80048 12.8941 1.79396ZM14.2061 6.89409C13.6021 7.12191 13.122 7.60208 12.8941 8.20604C12.9641 8.19953 13.0308 8.19205 13.0947 8.18347C13.5561 8.12142 13.7536 8.0142 13.8839 7.88388C14.0143 7.75357 14.1215 7.55607 14.1835 7.09461C14.1921 7.03076 14.1996 6.96404 14.2061 6.89409ZM5.10597 8.20604C4.87816 7.60208 4.39798 7.12191 3.79402 6.89409C3.80053 6.96404 3.80801 7.03076 3.8166 7.09461C3.87864 7.55607 3.98586 7.75357 4.11618 7.88389C4.24649 8.0142 4.44399 8.12142 4.90545 8.18347C4.9693 8.19205 5.03602 8.19953 5.10597 8.20604ZM3.79402 3.10591C4.39798 2.8781 4.87816 2.39792 5.10597 1.79396C5.03602 1.80048 4.9693 1.80795 4.90545 1.81654C4.44399 1.87858 4.24649 1.9858 4.11618 2.11612C3.98586 2.24644 3.87864 2.44393 3.8166 2.90539C3.80801 2.96924 3.80053 3.03597 3.79402 3.10591ZM9.00006 4.75C8.86199 4.75 8.75006 4.86193 8.75006 5C8.75006 5.13807 8.86199 5.25 9.00006 5.25C9.13813 5.25 9.25006 5.13807 9.25006 5C9.25006 4.86193 9.13813 4.75 9.00006 4.75ZM7.25006 5C7.25006 4.0335 8.03356 3.25 9.00006 3.25C9.96656 3.25 10.7501 4.0335 10.7501 5C10.7501 5.9665 9.96656 6.75 9.00006 6.75C8.03356 6.75 7.25006 5.9665 7.25006 5ZM5.68397 12.4482C7.5498 12.0867 9.54713 12.1678 11.1633 13.1318C11.3903 13.2672 11.6031 13.4359 11.7888 13.6444C12.1646 14.0666 12.3588 14.5913 12.3679 15.1174C12.5592 14.994 12.7508 14.857 12.9454 14.71L14.7526 13.3448C15.6572 12.6615 16.9718 12.6614 17.8765 13.3445C18.7125 13.9757 19.0457 15.1085 18.4473 16.0677C18.022 16.7495 17.3815 17.6925 16.7296 18.2962C16.0707 18.9065 15.1329 19.4196 14.4236 19.762C13.5621 20.1778 12.6316 20.4077 11.7269 20.5541C9.87766 20.8535 7.95348 20.8077 6.12505 20.431C5.19064 20.2384 4.21961 20.1384 3.25999 20.1384H1.00006C0.585847 20.1384 0.25006 19.8026 0.25006 19.3884C0.25006 18.9742 0.585847 18.6384 1.00006 18.6384H3.25999C4.3221 18.6384 5.39454 18.749 6.42772 18.9618C8.07977 19.3022 9.82015 19.3432 11.4872 19.0734C12.3161 18.9392 13.0901 18.74 13.7715 18.4111C14.4549 18.0812 15.2233 17.6468 15.7104 17.1957C16.2029 16.7395 16.7541 15.9479 17.1747 15.2738C17.3016 15.0703 17.284 14.7767 16.9727 14.5416C16.6029 14.2624 16.0264 14.2625 15.6567 14.5417L13.8496 15.9069C13.1281 16.4518 12.2402 17.0349 11.1388 17.2106C11.0276 17.2283 10.9119 17.2445 10.7918 17.2588C10.7345 17.2692 10.6749 17.276 10.6133 17.2783C10.051 17.3342 9.39977 17.3472 8.68132 17.2793C8.26894 17.2404 7.96621 16.8745 8.00515 16.4621C8.04409 16.0497 8.40995 15.747 8.82233 15.786C9.44977 15.8452 10.0127 15.8321 10.4903 15.7831C10.5 15.7821 10.5096 15.7811 10.5192 15.7801C10.5392 15.7685 10.5696 15.7474 10.6096 15.7125C10.9291 15.4336 10.9576 14.9667 10.6684 14.6418C10.5951 14.5595 10.5049 14.4856 10.3949 14.42C9.21378 13.7155 7.63629 13.5978 5.96927 13.9208C4.31174 14.2419 2.66497 14.9817 1.43392 15.8547C1.09604 16.0943 0.627897 16.0146 0.388285 15.6768C0.148673 15.3389 0.228331 14.8708 0.566205 14.6311C1.96457 13.6395 3.80866 12.8115 5.68397 12.4482Z" fill="#8C95A1"/>
</svg>
