<svg width="20" height="20" viewBox="0 0 20 20" fill="none" xmlns="http://www.w3.org/2000/svg">
<mask id="mask0_1044_1937" style="mask-type:alpha" maskUnits="userSpaceOnUse" x="0" y="0" width="20" height="20">
<rect width="20" height="20" fill="#FDFDFD"/>
</mask>
<g mask="url(#mask0_1044_1937)">
<path d="M3.6603 17.8837C3.59526 17.8837 3.53428 17.8717 3.47737 17.8475C3.42045 17.8234 3.36759 17.7871 3.3188 17.7388L2.38087 16.7959C2.22205 16.6371 2.18317 16.4627 2.26424 16.2728C2.34531 16.0829 2.49635 15.9879 2.71737 15.9879H17.3143C17.5353 15.9879 17.6872 16.0829 17.7699 16.2728C17.8526 16.4627 17.8151 16.6365 17.6575 16.7942L16.7113 17.7403C16.664 17.7876 16.6124 17.8234 16.5563 17.8475C16.5003 17.8717 16.4403 17.8837 16.3763 17.8837H3.6603ZM2.47099 15.1546C2.54767 14.878 2.66376 14.6095 2.81926 14.3491C2.97476 14.0887 3.15139 13.8613 3.34916 13.6668V7.57487H3.18068C2.98861 7.57487 2.82978 7.51256 2.7042 7.38793C2.57862 7.26332 2.51582 7.10572 2.51582 6.91512C2.51582 6.72452 2.57862 6.56604 2.7042 6.43968C2.82978 6.31332 2.98861 6.25014 3.18068 6.25014H3.34916V5.62514H3.18068C2.98861 5.62514 2.82978 5.56235 2.7042 5.43677C2.57862 5.31118 2.51582 5.15236 2.51582 4.96029C2.51582 4.76966 2.57862 4.61202 2.7042 4.48737C2.82978 4.36273 2.98861 4.30041 3.18068 4.30041H3.34916V3.67541H3.18068C2.98861 3.67541 2.82978 3.61262 2.7042 3.48704C2.57862 3.36145 2.51582 3.20263 2.51582 3.01056C2.51582 2.81849 2.57862 2.65966 2.7042 2.53408C2.82978 2.40849 2.98861 2.3457 3.18068 2.3457H8.12089C8.64866 2.3457 9.09311 2.52626 9.45422 2.88737C9.81533 3.24848 9.99589 3.69293 9.99589 4.2207V4.30041H16.9307C17.1227 4.30041 17.2816 4.36272 17.4072 4.48735C17.5327 4.61196 17.5955 4.76956 17.5955 4.96016C17.5955 5.15076 17.5327 5.30924 17.4072 5.4356C17.2816 5.56196 17.1227 5.62514 16.9307 5.62514H9.99589V5.69987C9.99589 6.22765 9.81533 6.67209 9.45422 7.0332C9.09311 7.39431 8.64866 7.57487 8.12089 7.57487H6.68249V12.5735C6.86093 12.5946 7.03311 12.6297 7.19901 12.6786C7.36493 12.7275 7.51959 12.7975 7.66301 12.8887C8.01959 11.9977 8.59243 11.2678 9.38153 10.699C10.1706 10.1301 11.0765 9.8457 12.0992 9.8457C13.4763 9.8457 14.6295 10.3446 15.5588 11.3423C16.4882 12.34 16.902 13.5311 16.8002 14.9155V15.1546H2.47099ZM6.68249 4.30041H8.24951V3.67541H6.68249V4.30041ZM6.68249 6.25014H8.24951V5.62514H6.68249V6.25014ZM4.59916 4.30041H5.43249V3.67541H4.59916V4.30041ZM4.59916 6.25014H5.43249V5.62514H4.59916V6.25014ZM4.59916 12.8018C4.72084 12.7323 4.85195 12.6786 4.99249 12.6405C5.13305 12.6025 5.27971 12.5698 5.43249 12.5424V7.57487H4.59916V12.8018Z" fill="#FDFDFD"/>
</g>
</svg>
