<svg width="20" height="20" viewBox="0 0 20 20" fill="none" xmlns="http://www.w3.org/2000/svg">
<path fill-rule="evenodd" clip-rule="evenodd" d="M11.9375 3.12514C11.8507 3.12502 11.7605 3.125 11.6666 3.125L8.3333 3.125C8.23948 3.125 8.14926 3.12502 8.06243 3.12514C7.81384 4.34948 6.84945 5.31388 5.62511 5.56246C5.62499 5.64929 5.62497 5.73951 5.62497 5.83334C5.62497 5.92716 5.62499 6.01738 5.62511 6.10421C6.84945 6.35279 7.81384 7.31719 8.06243 8.54153C8.14926 8.54165 8.23948 8.54167 8.3333 8.54167H11.6666C11.7605 8.54167 11.8507 8.54165 11.9375 8.54153C12.1861 7.31719 13.1505 6.3528 14.3748 6.10421C14.375 6.01738 14.375 5.92716 14.375 5.83333C14.375 5.73951 14.375 5.64929 14.3748 5.56246C13.1505 5.31388 12.1861 4.34948 11.9375 3.12514ZM12.4412 1.87773C12.2124 1.87498 11.9686 1.87499 11.71 1.875L8.28997 1.875C8.03131 1.87499 7.7875 1.87498 7.5587 1.87773C7.53937 1.87592 7.51978 1.875 7.49997 1.875C7.47381 1.875 7.44802 1.87661 7.4227 1.87973C7.04539 1.88643 6.71128 1.9026 6.42124 1.94159C5.89807 2.01193 5.42574 2.16666 5.04618 2.54622C4.66662 2.92577 4.5119 3.39811 4.44156 3.92127C4.40257 4.21131 4.3864 4.54542 4.3797 4.92274C4.37658 4.94805 4.37497 4.97384 4.37497 5C4.37497 5.01981 4.37589 5.0394 4.37769 5.05873C4.37495 5.28753 4.37496 5.53134 4.37497 5.79V5.87667C4.37496 6.13533 4.37495 6.37914 4.37769 6.60794C4.37589 6.62727 4.37497 6.64686 4.37497 6.66667C4.37497 6.69283 4.37658 6.71862 4.3797 6.74393C4.3864 7.12125 4.40257 7.45536 4.44156 7.7454C4.5119 8.26856 4.66662 8.7409 5.04618 9.12045C5.42574 9.50001 5.89807 9.65474 6.42124 9.72508C6.71128 9.76407 7.04539 9.78024 7.42271 9.78694C7.44802 9.79006 7.47381 9.79167 7.49997 9.79167C7.51977 9.79167 7.53936 9.79075 7.5587 9.78895C7.78749 9.79169 8.03131 9.79168 8.28997 9.79167H11.71C11.9687 9.79168 12.2125 9.79168 12.4412 9.78894C12.4606 9.79075 12.4802 9.79167 12.5 9.79167C12.5261 9.79167 12.5519 9.79006 12.5772 9.78694C12.9546 9.78024 13.2887 9.76407 13.5787 9.72507C14.1019 9.65474 14.5742 9.50001 14.9538 9.12045C15.3333 8.7409 15.488 8.26856 15.5584 7.7454C15.5974 7.45536 15.6135 7.12125 15.6202 6.74393C15.6234 6.71862 15.625 6.69283 15.625 6.66667C15.625 6.64686 15.624 6.62727 15.6222 6.60794C15.625 6.37914 15.625 6.13533 15.625 5.87666V5.79001C15.625 5.53134 15.625 5.28753 15.6222 5.05873C15.624 5.0394 15.625 5.01981 15.625 5C15.625 4.97384 15.6234 4.94806 15.6202 4.92274C15.6135 4.54542 15.5974 4.21131 15.5584 3.92127C15.488 3.39811 15.3333 2.92577 14.9538 2.54622C14.5742 2.16666 14.1019 2.01193 13.5787 1.94159C13.2887 1.9026 12.9545 1.88643 12.5772 1.87973C12.5519 1.87661 12.5261 1.875 12.5 1.875C12.4802 1.875 12.4606 1.87592 12.4412 1.87773ZM13.245 3.16164C13.4349 3.66493 13.835 4.06508 14.3383 4.25493C14.3329 4.19664 14.3267 4.14104 14.3195 4.08783C14.2678 3.70328 14.1785 3.5387 14.0699 3.4301C13.9613 3.3215 13.7967 3.23215 13.4121 3.18045C13.3589 3.17329 13.3033 3.16706 13.245 3.16164ZM14.3383 7.41174C13.835 7.60159 13.4349 8.00174 13.245 8.50503C13.3033 8.49961 13.3589 8.49338 13.4121 8.48622C13.7967 8.43452 13.9613 8.34517 14.0699 8.23657C14.1785 8.12797 14.2678 7.96339 14.3195 7.57884C14.3267 7.52563 14.3329 7.47003 14.3383 7.41174ZM6.7549 8.50503C6.56505 8.00174 6.1649 7.60159 5.6616 7.41174C5.66703 7.47003 5.67326 7.52564 5.68042 7.57884C5.73212 7.96339 5.82147 8.12797 5.93007 8.23657C6.03866 8.34517 6.20324 8.43452 6.5878 8.48622C6.641 8.49338 6.69661 8.49961 6.7549 8.50503ZM5.6616 4.25493C6.1649 4.06508 6.56505 3.66493 6.75489 3.16164C6.6966 3.16706 6.641 3.17329 6.5878 3.18045C6.20324 3.23215 6.03866 3.3215 5.93007 3.4301C5.82147 3.5387 5.73212 3.70328 5.68042 4.08783C5.67326 4.14104 5.66703 4.19664 5.6616 4.25493ZM9.99997 5.625C9.88491 5.625 9.79164 5.71828 9.79164 5.83334C9.79164 5.94839 9.88491 6.04167 9.99997 6.04167C10.115 6.04167 10.2083 5.94839 10.2083 5.83334C10.2083 5.71828 10.115 5.625 9.99997 5.625ZM8.54164 5.83334C8.54164 5.02792 9.19455 4.375 9.99997 4.375C10.8054 4.375 11.4583 5.02792 11.4583 5.83334C11.4583 6.63875 10.8054 7.29167 9.99997 7.29167C9.19455 7.29167 8.54164 6.63875 8.54164 5.83334ZM7.23656 12.0401C8.79142 11.7389 10.4559 11.8065 11.8027 12.6098C11.9919 12.7226 12.1692 12.8632 12.3239 13.037C12.6371 13.3888 12.7989 13.8261 12.8065 14.2645C12.9659 14.1617 13.1256 14.0475 13.2878 13.925L14.7938 12.7873C15.5476 12.2179 16.6431 12.2178 17.397 12.7871C18.0936 13.3131 18.3714 14.2571 17.8727 15.0564C17.5182 15.6246 16.9845 16.4104 16.4413 16.9135C15.8922 17.422 15.1107 17.8496 14.5195 18.135C13.8016 18.4815 13.0263 18.673 12.2723 18.7951C10.7313 19.0445 9.12782 19.0064 7.60413 18.6925C6.82546 18.532 6.01626 18.4487 5.21658 18.4487H3.3333C2.98812 18.4487 2.7083 18.1688 2.7083 17.8237C2.7083 17.4785 2.98812 17.1987 3.3333 17.1987H5.21658C6.10167 17.1987 6.99537 17.2908 7.85636 17.4682C9.23306 17.7518 10.6834 17.786 12.0726 17.5612C12.7633 17.4493 13.4084 17.2833 13.9762 17.0092C14.5457 16.7344 15.186 16.3723 15.5919 15.9964C16.0023 15.6163 16.4617 14.9566 16.8121 14.3948C16.9179 14.2253 16.9033 13.9806 16.6438 13.7847C16.3357 13.552 15.8552 13.5521 15.5472 13.7848L14.0412 14.9224C13.44 15.3765 12.7001 15.8624 11.7822 16.0088C11.6896 16.0236 11.5932 16.0371 11.4931 16.049C11.4453 16.0576 11.3956 16.0633 11.3443 16.0652C10.8757 16.1118 10.3331 16.1226 9.73435 16.0661C9.3907 16.0336 9.13843 15.7288 9.17088 15.3851C9.20332 15.0415 9.50821 14.7892 9.85186 14.8216C10.3747 14.871 10.8438 14.8601 11.2418 14.8192C11.2499 14.8184 11.2579 14.8176 11.2659 14.8167C11.2826 14.8071 11.308 14.7895 11.3413 14.7604C11.6075 14.528 11.6313 14.1389 11.3903 13.8682C11.3292 13.7996 11.254 13.738 11.1624 13.6834C10.1781 13.0963 8.8635 12.9982 7.47431 13.2673C6.09304 13.5349 4.72073 14.1514 3.69485 14.8789C3.41329 15.0786 3.02317 15.0122 2.82349 14.7306C2.62381 14.4491 2.69019 14.059 2.97176 13.8593C4.13706 13.0329 5.6738 12.3429 7.23656 12.0401Z" fill="#FDFDFD"/>
</svg>
